<svg xmlns="http://www.w3.org/2000/svg" xmlns:oryx="http://oryx-editor.org" id="_34999911-E952-4780-9DF8-2BA03ACDBAC7" width="738" height="301" xmlns:xlink="http://www.w3.org/1999/xlink" xmlns:svg="http://www.w3.org/2000/svg"><defs><marker id="_876C6F02-5427-47A1-AB10-1023AAE839E2start" refX="1" refY="5" markerUnits="userSpaceOnUse" markerWidth="17" markerHeight="11" orient="auto" fill="#000000" stroke="#000000"> 	  		<path id="_876C6F02-5427-47A1-AB10-1023AAE839E2conditional" d="M 0 5 L 8 0 L 16 5 L 8 10 L 0 5" fill="white" stroke="#000000" stroke-width="1" display="none"/> 			<path id="_876C6F02-5427-47A1-AB10-1023AAE839E2default" d="M 5 0 L 11 10" fill="white" stroke="#000000" stroke-width="1" display="none"/> 	  	</marker><marker id="_876C6F02-5427-47A1-AB10-1023AAE839E2end" refX="15" refY="6" markerUnits="userSpaceOnUse" markerWidth="15" markerHeight="12" orient="auto" fill="#000000" stroke="#000000"> 	  		<path id="_876C6F02-5427-47A1-AB10-1023AAE839E2frame2" d="M 0 1 L 15 6 L 0 11z" fill="#000000" stroke="#000000" stroke-linejoin="round" stroke-width="2"/> 	  	</marker><marker id="_0B4535C5-5EB6-4E4F-9EA3-CC671749E163start" refX="1" refY="5" markerUnits="userSpaceOnUse" markerWidth="17" markerHeight="11" orient="auto" fill="#000000" stroke="#000000"> 	  		<path id="_0B4535C5-5EB6-4E4F-9EA3-CC671749E163conditional" d="M 0 5 L 8 0 L 16 5 L 8 10 L 0 5" fill="white" stroke="#000000" stroke-width="1" display="none"/> 			<path id="_0B4535C5-5EB6-4E4F-9EA3-CC671749E163default" d="M 5 0 L 11 10" fill="white" stroke="#000000" stroke-width="1" display="none"/> 	  	</marker><marker id="_0B4535C5-5EB6-4E4F-9EA3-CC671749E163end" refX="15" refY="6" markerUnits="userSpaceOnUse" markerWidth="15" markerHeight="12" orient="auto" fill="#000000" stroke="#000000"> 	  		<path id="_0B4535C5-5EB6-4E4F-9EA3-CC671749E163frame2" d="M 0 1 L 15 6 L 0 11z" fill="#000000" stroke="#000000" stroke-linejoin="round" stroke-width="2"/> 	  	</marker><marker id="_75658976-EB99-490A-AB79-536CBCF6CA37start" refX="1" refY="5" markerUnits="userSpaceOnUse" markerWidth="17" markerHeight="11" orient="auto" fill="#000000" stroke="#000000"> 	  		<path id="_75658976-EB99-490A-AB79-536CBCF6CA37conditional" d="M 0 5 L 8 0 L 16 5 L 8 10 L 0 5" fill="white" stroke="#000000" stroke-width="1" display="none"/> 			<path id="_75658976-EB99-490A-AB79-536CBCF6CA37default" d="M 5 0 L 11 10" fill="white" stroke="#000000" stroke-width="1" display="none"/> 	  	</marker><marker id="_75658976-EB99-490A-AB79-536CBCF6CA37end" refX="15" refY="6" markerUnits="userSpaceOnUse" markerWidth="15" markerHeight="12" orient="auto" fill="#000000" stroke="#000000"> 	  		<path id="_75658976-EB99-490A-AB79-536CBCF6CA37frame2" d="M 0 1 L 15 6 L 0 11z" fill="#000000" stroke="#000000" stroke-linejoin="round" stroke-width="2"/> 	  	</marker><marker id="_9CED2FBE-3AD2-4C17-ABF0-0A67C3F27C6Astart" refX="1" refY="5" markerUnits="userSpaceOnUse" markerWidth="17" markerHeight="11" orient="auto" fill="#000000" stroke="#000000"> 	  		<path id="_9CED2FBE-3AD2-4C17-ABF0-0A67C3F27C6Aconditional" d="M 0 5 L 8 0 L 16 5 L 8 10 L 0 5" fill="white" stroke="#000000" stroke-width="1" display="none"/> 			<path id="_9CED2FBE-3AD2-4C17-ABF0-0A67C3F27C6Adefault" d="M 5 0 L 11 10" fill="white" stroke="#000000" stroke-width="1" display="none"/> 	  	</marker><marker id="_9CED2FBE-3AD2-4C17-ABF0-0A67C3F27C6Aend" refX="15" refY="6" markerUnits="userSpaceOnUse" markerWidth="15" markerHeight="12" orient="auto" fill="#000000" stroke="#000000"> 	  		<path id="_9CED2FBE-3AD2-4C17-ABF0-0A67C3F27C6Aframe2" d="M 0 1 L 15 6 L 0 11z" fill="#000000" stroke="#000000" stroke-linejoin="round" stroke-width="2"/> 	  	</marker><marker id="_ECC3BB64-E0CB-4276-B2AA-82FEF37DDCA2start" refX="1" refY="5" markerUnits="userSpaceOnUse" markerWidth="17" markerHeight="11" orient="auto" fill="#000000" stroke="#000000"> 	  		<path id="_ECC3BB64-E0CB-4276-B2AA-82FEF37DDCA2conditional" d="M 0 5 L 8 0 L 16 5 L 8 10 L 0 5" fill="white" stroke="#000000" stroke-width="1" display="none"/> 			<path id="_ECC3BB64-E0CB-4276-B2AA-82FEF37DDCA2default" d="M 5 0 L 11 10" fill="white" stroke="#000000" stroke-width="1" display="none"/> 	  	</marker><marker id="_ECC3BB64-E0CB-4276-B2AA-82FEF37DDCA2end" refX="15" refY="6" markerUnits="userSpaceOnUse" markerWidth="15" markerHeight="12" orient="auto" fill="#000000" stroke="#000000"> 	  		<path id="_ECC3BB64-E0CB-4276-B2AA-82FEF37DDCA2frame2" d="M 0 1 L 15 6 L 0 11z" fill="#000000" stroke="#000000" stroke-linejoin="round" stroke-width="2"/> 	  	</marker></defs><g stroke="none" font-family="Verdana, sans-serif" font-size-adjust="none" font-style="normal" font-variant="normal" font-weight="normal" line-heigth="normal" font-size="12"><g class="stencils" transform="translate(15, 16)"><g class="me"/><g class="children"><g id="_5A621B8C-77DB-4169-BC19-D6CCF711DA42" bpmn2nodeid="processStartEvent"><g class="stencils" transform="translate(120, 205)"><g class="me"><g pointer-events="fill" id="_5A621B8C-77DB-4169-BC19-D6CCF711DA42">        <defs id="_5A621B8C-77DB-4169-BC19-D6CCF711DA42__5A621B8C-77DB-4169-BC19-D6CCF711DA42_5"> 		<radialGradient id="_5A621B8C-77DB-4169-BC19-D6CCF711DA42background" cx="10%" cy="10%" r="100%" fx="10%" fy="10%"> 			<stop offset="0%" stop-color="#ffffff" stop-opacity="1" id="_5A621B8C-77DB-4169-BC19-D6CCF711DA42__5A621B8C-77DB-4169-BC19-D6CCF711DA42_6"/> 			<stop id="_5A621B8C-77DB-4169-BC19-D6CCF711DA42fill_el" offset="100%" stop-color="#9acd32" stop-opacity="1"/> 		</radialGradient> 	</defs> 	     <circle id="_5A621B8C-77DB-4169-BC19-D6CCF711DA42bg_frame" cx="15" cy="15" r="15" stroke="#000000" fill="url(#_5A621B8C-77DB-4169-BC19-D6CCF711DA42background) white" stroke-width="1" style="stroke-dasharray: 5.5, 3"/>      <circle id="_5A621B8C-77DB-4169-BC19-D6CCF711DA42frame" cx="15" cy="15" r="15" stroke="#000000" fill="none" stroke-width="1" display="inherit"/>  	<text font-size="11" id="_5A621B8C-77DB-4169-BC19-D6CCF711DA42text_name" x="15" y="32" oryx:align="top center" stroke="black" stroke-width="0pt" letter-spacing="-0.01px" fill="#000000" text-anchor="middle" transform="rotate(0 15 32)" visibility="inherit" oryx:fontSize="11"/>   </g></g><g class="children" style="overflow:hidden"/><g class="edge"/></g><g class="controls"><g class="dockers"/><g class="magnets" transform="translate(120, 205)"><g pointer-events="all" display="none" transform="translate(7, 7)"><circle cx="8" cy="8" r="4" stroke="none" fill="red" fill-opacity="0.3"/></g></g></g></g><g id="_7E32A7E4-B972-4B72-A0F8-6D60E3BF5F4A" bpmn2nodeid="_EB416D90-DC06-40D3-89D5-E31126554895"><g class="stencils" transform="translate(210, 180)"><g class="me"><g pointer-events="fill" oryx:minimumSize="50 40" id="_7E32A7E4-B972-4B72-A0F8-6D60E3BF5F4A">   	<defs id="_7E32A7E4-B972-4B72-A0F8-6D60E3BF5F4A__7E32A7E4-B972-4B72-A0F8-6D60E3BF5F4A_17"> 		<radialGradient id="_7E32A7E4-B972-4B72-A0F8-6D60E3BF5F4Abackground" cx="10%" cy="10%" r="100%" fx="10%" fy="10%"> 			<stop offset="0%" stop-color="#ffffff" stop-opacity="1" id="_7E32A7E4-B972-4B72-A0F8-6D60E3BF5F4A__7E32A7E4-B972-4B72-A0F8-6D60E3BF5F4A_18"/> 			<stop id="_7E32A7E4-B972-4B72-A0F8-6D60E3BF5F4Afill_el" offset="100%" stop-color="#fafad2" stop-opacity="1"/> 		</radialGradient> 		<radialGradient id="_7E32A7E4-B972-4B72-A0F8-6D60E3BF5F4Aborderbackground" cx="10%" cy="10%" r="100%" fx="10%" fy="10%"> 			<stop offset="0%" stop-color="#ffffff" stop-opacity="1" id="_7E32A7E4-B972-4B72-A0F8-6D60E3BF5F4A__7E32A7E4-B972-4B72-A0F8-6D60E3BF5F4A_19"/> 			<stop id="_7E32A7E4-B972-4B72-A0F8-6D60E3BF5F4Afill_border" offset="100%" stop-color="#000000" stop-opacity="1" stroke="#000000"/> 		</radialGradient> 	</defs> 	 	<rect id="_7E32A7E4-B972-4B72-A0F8-6D60E3BF5F4Atext_frame" oryx:anchors="bottom top right left" x="1" y="1" width="94" height="79" rx="10" ry="10" stroke="none" stroke-width="0" fill="none"/> 	<rect id="_7E32A7E4-B972-4B72-A0F8-6D60E3BF5F4Abg_frame" oryx:resize="vertical horizontal" x="0" y="0" width="100" height="80" rx="10" ry="10" stroke="#000000" stroke-width="1" fill="url(#_7E32A7E4-B972-4B72-A0F8-6D60E3BF5F4Abackground) #ffffcc"/> 		<text font-size="12" id="_7E32A7E4-B972-4B72-A0F8-6D60E3BF5F4Atext_name" x="50" y="40" oryx:align="middle center" oryx:fittoelem="text_frame" stroke="black" text-anchor="middle" stroke-width="0pt" letter-spacing="-0.01px" fill="#000000" transform="rotate(0 50 40)" visibility="inherit" oryx:fontSize="12"/>     <g id="_7E32A7E4-B972-4B72-A0F8-6D60E3BF5F4AmanualTask" transform="scale(0.7,0.7) translate(8,8)" display="none">     	<path oryx:anchors="top left" id="_7E32A7E4-B972-4B72-A0F8-6D60E3BF5F4Aframe" style="opacity:1;fill:none;fill-opacity:1;stroke-width:1" d="M0.5,3.751l4.083-3.25c0,0,11.166,0.083,12.083,0.083s-2.417,2.917-1.5,2.917     s11.667,0,12.584,0c1.166,1.708-0.168,3.167-0.834,3.667s0.875,1.917-1,4.417c-0.75,0.25,0.75,1.875-1.333,3.333     c-1.167,0.583,0.583,1.542-1.25,2.833c-1.167,0-20.833,0.083-20.833,0.083l-2-1.333V3.751z" stroke="#000000"/> 		<path id="_7E32A7E4-B972-4B72-A0F8-6D60E3BF5F4Aframe2" oryx:anchors="top left" style="opacity:1;fill:none;stroke-width:2" d="M 13.5 7 L 27 7" stroke="#000000"/> 		<path id="_7E32A7E4-B972-4B72-A0F8-6D60E3BF5F4Aframe3" oryx:anchors="top left" style="opacity:1;fill:none;stroke-width:2" d="M 13.5 11 L 26 11" stroke="#000000"/> 		<path id="_7E32A7E4-B972-4B72-A0F8-6D60E3BF5F4Aframe4" oryx:anchors="top left" style="opacity:1;fill:none;stroke-width:1.5" d="M 14 14.5 L 25 14.5" stroke="#000000"/> 		<path id="_7E32A7E4-B972-4B72-A0F8-6D60E3BF5F4Aframe5" oryx:anchors="top left" style="opacity:1;fill:none;stroke-width:1.5" d="M 8.2 3.1 L 15 3.1" stroke="#000000"/> 	</g> 	 	<g id="_7E32A7E4-B972-4B72-A0F8-6D60E3BF5F4AbusinessRuleTask" transform="scale(0.7,0.7) translate(8,8)" display="none"> 		<rect id="_7E32A7E4-B972-4B72-A0F8-6D60E3BF5F4Aframe6" oryx:anchors="top left" x="0" y="0" width="22" height="4" style="opacity:1;fill:#B3B1B3;fill-opacity:1;" stroke="#000000"/> 		<rect id="_7E32A7E4-B972-4B72-A0F8-6D60E3BF5F4Aframe7" oryx:anchors="top left" x="0" y="4" style="opacity:1;fill:none;" width="22" height="12" stroke="#000000"/> 		<path id="_7E32A7E4-B972-4B72-A0F8-6D60E3BF5F4Aframe8" oryx:anchors="top left" style="opacity:1;fill:none;" d="M 0 10 L 22 10" stroke="#000000"/> 		<path id="_7E32A7E4-B972-4B72-A0F8-6D60E3BF5F4Aframe9" oryx:anchors="top left" style="opacity:1; fill:none;" d="M 7 4 L 7 16" stroke="#000000"/> 	</g> 	 	<g id="_7E32A7E4-B972-4B72-A0F8-6D60E3BF5F4AscriptTask" transform="scale(0.7,0.7) translate(8,8)" display="none"> 		<path oryx:anchors="top left" id="_7E32A7E4-B972-4B72-A0F8-6D60E3BF5F4Aframe10" style="opacity:1;fill:none;" stroke="#000000" d="M6.402,0.5h14.5c0,0-5.833,2.833-5.833,5.583s4.417,6,4.417,9.167    s-4.167,5.083-4.167,5.083H0.235c0,0,5-2.667,5-5s-4.583-6.75-4.583-9.25S6.402,0.5,6.402,0.5z"/> 		<path oryx:anchors="top left" id="_7E32A7E4-B972-4B72-A0F8-6D60E3BF5F4Aframe11" style="opacity:1;fill:none;stroke-width:1.5" d="M 3.5 4.5 L 13.5 4.5" stroke="#000000"/> 		<path oryx:anchors="top left" id="_7E32A7E4-B972-4B72-A0F8-6D60E3BF5F4Aframe12" style="opacity:1;fill:none;stroke-width:1.5" d="M 3.8 8.5 L 13.8 8.5" stroke="#000000"/> 		<path oryx:anchors="top left" id="_7E32A7E4-B972-4B72-A0F8-6D60E3BF5F4Aframe13" style="opacity:1;fill:none;stroke-width:1.5" d="M 6.3 12.5 L 16.3 12.5" stroke="#000000"/> 		<path oryx:anchors="top left" id="_7E32A7E4-B972-4B72-A0F8-6D60E3BF5F4Aframe14" style="opacity:1;fill:none;stroke-width:1.5" d="M 6.5 16.5 L 16.5 16.5" stroke="#000000"/> 	</g> 	 	<g id="_7E32A7E4-B972-4B72-A0F8-6D60E3BF5F4AuserTask" transform="scale(0.7,0.7) translate(8,8)" display="none"> 		<path id="_7E32A7E4-B972-4B72-A0F8-6D60E3BF5F4Aframe15" oryx:anchors="top left" style="opacity:1;fill:#F4F6F7" stroke="#000000" d="M0.585,24.167h24.083v-7.833c0,0-2.333-3.917-7.083-5.167h-9.25    c-4.417,1.333-7.833,5.75-7.833,5.75L0.585,24.167z"/> 		<path id="_7E32A7E4-B972-4B72-A0F8-6D60E3BF5F4Aframe16" oryx:anchors="top left" style="opacity:1;fill:none" d="M 6 20 L 6 24" stroke="#000000"/> 		<path id="_7E32A7E4-B972-4B72-A0F8-6D60E3BF5F4Aframe17" oryx:anchors="top left" style="opacity:1;fill:none" d="M 20 20 L 20 24" stroke="#000000"/> 		<circle id="_7E32A7E4-B972-4B72-A0F8-6D60E3BF5F4Aframe18" oryx:anchors="top left" fill="black" cx="13.002" cy="5.916" r="5.417" stroke="#000000"/> 		<path id="_7E32A7E4-B972-4B72-A0F8-6D60E3BF5F4Aframe19" oryx:anchors="top left" style="opacity:1;fill:#F0EFF0;" stroke="#000000" d="M8.043,7.083c0,0,2.814-2.426,5.376-1.807s4.624-0.693,4.624-0.693    c0.25,1.688,0.042,3.75-1.458,5.584c0,0,1.083,0.75,1.083,1.5s0.125,1.875-1,3s-5.5,1.25-6.75,0S8.668,12.834,8.668,12    s0.583-1.25,1.25-1.917C8.835,9.5,7.419,7.708,8.043,7.083z"/> 	</g> 	 	<g id="_7E32A7E4-B972-4B72-A0F8-6D60E3BF5F4AserviceTask" transform="scale(0.7,0.7) translate(8,8)" display="none"> 		<polygon oryx:anchors="top left" id="_7E32A7E4-B972-4B72-A0F8-6D60E3BF5F4Aframe20" style="opacity:1;fill:#ffffff" stroke="#000000" points="15.392,5.064 17.954,2.502 20.347,4.895 17.786,7.455     18.729,9.732 22.353,9.732 22.353,13.115 18.731,13.115 17.788,15.392 20.351,17.955 17.958,20.347 15.397,17.786 13.12,18.729     13.12,22.353 9.737,22.353 9.737,18.731 7.46,17.788 4.897,20.35 2.506,17.958 5.066,15.397 4.124,13.12 0.5,13.12 0.5,9.737     4.121,9.737 5.065,7.461 2.503,4.898 4.895,2.506 7.455,5.066 9.732,4.125 9.732,0.5 13.116,0.5 13.116,4.121 "/> 		<circle oryx:anchors="top left" id="_7E32A7E4-B972-4B72-A0F8-6D60E3BF5F4Aframe21" style="opacity:1;fill:none" stroke="#000000" cx="11.427" cy="11.426" r="3.714"/> 		<polygon oryx:anchors="top left" id="_7E32A7E4-B972-4B72-A0F8-6D60E3BF5F4Aframe22" style="opacity:1;fill:#ffffff" stroke="#000000" points="21.392,11.064 23.954,8.502 26.347,10.895 23.786,13.455     24.729,15.732 28.353,15.732 28.353,19.115 24.731,19.115 23.788,21.392 26.351,23.955 23.958,26.347 21.397,23.786 19.12,24.729     19.12,28.353 15.737,28.353 15.737,24.731 13.46,23.788 10.897,26.35 8.506,23.958 11.066,21.397 10.124,19.12 6.5,19.12     6.5,15.737 10.121,15.737 11.065,13.461 8.503,10.898 10.895,8.506 13.455,11.066 15.732,10.125 15.732,6.5 19.116,6.5     19.116,10.121 "/> 		<circle oryx:anchors="top left" id="_7E32A7E4-B972-4B72-A0F8-6D60E3BF5F4Aframe23" style="opacity:1;fill:none;" stroke="#000000" cx="17.427" cy="17.426" r="3.714"/> 	</g> 	 	<g id="_7E32A7E4-B972-4B72-A0F8-6D60E3BF5F4AsendTask" display="none"> 		<path id="_7E32A7E4-B972-4B72-A0F8-6D60E3BF5F4Astframe24" oryx:anchors="left top" stroke="#FFFFFF" fill="black" stroke-width="1" d="M8,11 L8,21 L24,21 L24,11 L16,17z"/> 		<path id="_7E32A7E4-B972-4B72-A0F8-6D60E3BF5F4Astframe25" oryx:anchors="left top" stroke="#FFFFFF" fill="black" stroke-width="1" d="M7,10 L16,17 L25 10z"/> 	</g> 	 	<g id="_7E32A7E4-B972-4B72-A0F8-6D60E3BF5F4AreceiveTask" display="none"> 		<path id="_7E32A7E4-B972-4B72-A0F8-6D60E3BF5F4Aframe26" oryx:anchors="left top" stroke="#000000" fill="none" stroke-width="1" d="M8,11 L8,21 L24,21 L24,11z M8,11 L16,17 L24,11"/> 	</g> 	 	<g id="_7E32A7E4-B972-4B72-A0F8-6D60E3BF5F4Anone" display="inherit"/>  	<g id="_7E32A7E4-B972-4B72-A0F8-6D60E3BF5F4Asequential" display="none">         <path oryx:anchors="bottom" fill="none" stroke="#000000" stroke-width="2" d="M46,76h10M46,72h10 M46,68h10" id="_7E32A7E4-B972-4B72-A0F8-6D60E3BF5F4A__7E32A7E4-B972-4B72-A0F8-6D60E3BF5F4A_20"/>     </g>   </g></g><g class="children" style="overflow:hidden"/><g class="edge"/></g><g class="controls"><g class="dockers"/><g class="magnets" transform="translate(210, 180)"><g pointer-events="all" display="none" transform="translate(-7, 12)"><circle cx="8" cy="8" r="4" stroke="none" fill="red" fill-opacity="0.3"/></g><g pointer-events="all" display="none" transform="translate(-7, 32)"><circle cx="8" cy="8" r="4" stroke="none" fill="red" fill-opacity="0.3"/></g><g pointer-events="all" display="none" transform="translate(-7, 52)"><circle cx="8" cy="8" r="4" stroke="none" fill="red" fill-opacity="0.3"/></g><g pointer-events="all" display="none" transform="translate(17, 71)"><circle cx="8" cy="8" r="4" stroke="none" fill="red" fill-opacity="0.3"/></g><g pointer-events="all" display="none" transform="translate(42, 71)"><circle cx="8" cy="8" r="4" stroke="none" fill="red" fill-opacity="0.3"/></g><g pointer-events="all" display="none" transform="translate(67, 71)"><circle cx="8" cy="8" r="4" stroke="none" fill="red" fill-opacity="0.3"/></g><g pointer-events="all" display="none" transform="translate(91, 12)"><circle cx="8" cy="8" r="4" stroke="none" fill="red" fill-opacity="0.3"/></g><g pointer-events="all" display="none" transform="translate(91, 32)"><circle cx="8" cy="8" r="4" stroke="none" fill="red" fill-opacity="0.3"/></g><g pointer-events="all" display="none" transform="translate(91, 52)"><circle cx="8" cy="8" r="4" stroke="none" fill="red" fill-opacity="0.3"/></g><g pointer-events="all" display="none" transform="translate(17, -7)"><circle cx="8" cy="8" r="4" stroke="none" fill="red" fill-opacity="0.3"/></g><g pointer-events="all" display="none" transform="translate(42, -7)"><circle cx="8" cy="8" r="4" stroke="none" fill="red" fill-opacity="0.3"/></g><g pointer-events="all" display="none" transform="translate(67, -7)"><circle cx="8" cy="8" r="4" stroke="none" fill="red" fill-opacity="0.3"/></g><g pointer-events="all" display="none" transform="translate(42, 32)"><circle cx="8" cy="8" r="4" stroke="none" fill="red" fill-opacity="0.3"/></g></g></g></g><g id="_72D3D2C2-3B00-41A1-A780-9098547FBB86" bpmn2nodeid="_3D61B10E-B2B2-4202-8337-41E703A913B9"><g class="stencils" transform="translate(355, 200)"><g class="me"><g id="_72D3D2C2-3B00-41A1-A780-9098547FBB86">        <defs id="_72D3D2C2-3B00-41A1-A780-9098547FBB86__72D3D2C2-3B00-41A1-A780-9098547FBB86_4"> 		<radialGradient id="_72D3D2C2-3B00-41A1-A780-9098547FBB86background" cx="10%" cy="10%" r="100%" fx="10%" fy="10%"> 			<stop offset="0%" stop-color="#ffffff" stop-opacity="1" id="_72D3D2C2-3B00-41A1-A780-9098547FBB86__72D3D2C2-3B00-41A1-A780-9098547FBB86_5"/> 			<stop id="_72D3D2C2-3B00-41A1-A780-9098547FBB86fill_el" offset="100%" stop-color="#f0e68c" stop-opacity="1"/> 		</radialGradient> 		<radialGradient id="_72D3D2C2-3B00-41A1-A780-9098547FBB86borderbackground" cx="10%" cy="10%" r="100%" fx="10%" fy="10%"> 			<stop offset="0%" stop-color="#ffffff" stop-opacity="1" id="_72D3D2C2-3B00-41A1-A780-9098547FBB86__72D3D2C2-3B00-41A1-A780-9098547FBB86_6"/> 			<stop id="_72D3D2C2-3B00-41A1-A780-9098547FBB86fill_border" offset="100%" stop-color="#a67f00" stop-opacity="1" stroke="#a67f00"/> 		</radialGradient> 	</defs> 	     <path d=" M0 20.5  L20.5 0  L40 20.5  L20.5 40  z" id="_72D3D2C2-3B00-41A1-A780-9098547FBB86bg_frame" fill="url(#_72D3D2C2-3B00-41A1-A780-9098547FBB86background) white" style="stroke-width:1" stroke="#a67f00"/>     <g id="_72D3D2C2-3B00-41A1-A780-9098547FBB86frame" stroke="#a67f00">       <path id="_72D3D2C2-3B00-41A1-A780-9098547FBB86frame2" d=" M13.25 12.05  L17.25 12.05  L27.65 28.95  L23.75 28.95  z" style="stroke-width:1" stroke="#a67f00" fill="url(#_72D3D2C2-3B00-41A1-A780-9098547FBB86borderbackground)"/>       <path id="_72D3D2C2-3B00-41A1-A780-9098547FBB86frame3" d=" M13.25 28.95  L23.75 12.05  L27.65 12.05  L17.25 28.95  z" style="stroke-width:1" stroke="#a67f00" fill="url(#_72D3D2C2-3B00-41A1-A780-9098547FBB86borderbackground)"/>     </g> 	 	<text id="_72D3D2C2-3B00-41A1-A780-9098547FBB86text_name" x="30.5" y="30.5" oryx:align="left top" stroke-width="0pt" letter-spacing="-0.01px" fill="#000000" text-anchor="start" transform="rotate(0 30.5 30.5)" visibility="inherit" oryx:fontSize="12"/> 	   </g></g><g class="children" style="overflow:hidden"/><g class="edge"/></g><g class="controls"><g class="dockers"/><g class="magnets" transform="translate(355, 200)"><g pointer-events="all" display="none" transform="translate(12.5, 12.5)"><circle cx="8" cy="8" r="4" stroke="none" fill="red" fill-opacity="0.3"/></g></g></g></g><g id="_845068F8-9AC8-488F-B546-EC3E9A474706" bpmn2nodeid="_0B19A3DF-C02A-4D63-A63F-F8D824ADB50D"><g class="stencils" transform="translate(440, 180)"><g class="me"><g pointer-events="fill" oryx:minimumSize="50 40" id="_845068F8-9AC8-488F-B546-EC3E9A474706">   	<defs id="_845068F8-9AC8-488F-B546-EC3E9A474706__845068F8-9AC8-488F-B546-EC3E9A474706_17"> 		<radialGradient id="_845068F8-9AC8-488F-B546-EC3E9A474706background" cx="10%" cy="10%" r="100%" fx="10%" fy="10%"> 			<stop offset="0%" stop-color="#ffffff" stop-opacity="1" id="_845068F8-9AC8-488F-B546-EC3E9A474706__845068F8-9AC8-488F-B546-EC3E9A474706_18"/> 			<stop id="_845068F8-9AC8-488F-B546-EC3E9A474706fill_el" offset="100%" stop-color="#fafad2" stop-opacity="1"/> 		</radialGradient> 		<radialGradient id="_845068F8-9AC8-488F-B546-EC3E9A474706borderbackground" cx="10%" cy="10%" r="100%" fx="10%" fy="10%"> 			<stop offset="0%" stop-color="#ffffff" stop-opacity="1" id="_845068F8-9AC8-488F-B546-EC3E9A474706__845068F8-9AC8-488F-B546-EC3E9A474706_19"/> 			<stop id="_845068F8-9AC8-488F-B546-EC3E9A474706fill_border" offset="100%" stop-color="#000000" stop-opacity="1" stroke="#000000"/> 		</radialGradient> 	</defs> 	 	<rect id="_845068F8-9AC8-488F-B546-EC3E9A474706text_frame" oryx:anchors="bottom top right left" x="1" y="1" width="94" height="79" rx="10" ry="10" stroke="none" stroke-width="0" fill="none"/> 	<rect id="_845068F8-9AC8-488F-B546-EC3E9A474706bg_frame" oryx:resize="vertical horizontal" x="0" y="0" width="100" height="80" rx="10" ry="10" stroke="#000000" stroke-width="1" fill="url(#_845068F8-9AC8-488F-B546-EC3E9A474706background) #ffffcc"/> 		<text font-size="12" id="_845068F8-9AC8-488F-B546-EC3E9A474706text_name" x="50" y="40" oryx:align="middle center" oryx:fittoelem="text_frame" stroke="black" text-anchor="middle" stroke-width="0pt" letter-spacing="-0.01px" fill="#000000" transform="rotate(0 50 40)" visibility="inherit" oryx:fontSize="12"/>     <g id="_845068F8-9AC8-488F-B546-EC3E9A474706manualTask" transform="scale(0.7,0.7) translate(8,8)" display="none">     	<path oryx:anchors="top left" id="_845068F8-9AC8-488F-B546-EC3E9A474706frame" style="opacity:1;fill:none;fill-opacity:1;stroke-width:1" d="M0.5,3.751l4.083-3.25c0,0,11.166,0.083,12.083,0.083s-2.417,2.917-1.5,2.917     s11.667,0,12.584,0c1.166,1.708-0.168,3.167-0.834,3.667s0.875,1.917-1,4.417c-0.75,0.25,0.75,1.875-1.333,3.333     c-1.167,0.583,0.583,1.542-1.25,2.833c-1.167,0-20.833,0.083-20.833,0.083l-2-1.333V3.751z" stroke="#000000"/> 		<path id="_845068F8-9AC8-488F-B546-EC3E9A474706frame2" oryx:anchors="top left" style="opacity:1;fill:none;stroke-width:2" d="M 13.5 7 L 27 7" stroke="#000000"/> 		<path id="_845068F8-9AC8-488F-B546-EC3E9A474706frame3" oryx:anchors="top left" style="opacity:1;fill:none;stroke-width:2" d="M 13.5 11 L 26 11" stroke="#000000"/> 		<path id="_845068F8-9AC8-488F-B546-EC3E9A474706frame4" oryx:anchors="top left" style="opacity:1;fill:none;stroke-width:1.5" d="M 14 14.5 L 25 14.5" stroke="#000000"/> 		<path id="_845068F8-9AC8-488F-B546-EC3E9A474706frame5" oryx:anchors="top left" style="opacity:1;fill:none;stroke-width:1.5" d="M 8.2 3.1 L 15 3.1" stroke="#000000"/> 	</g> 	 	<g id="_845068F8-9AC8-488F-B546-EC3E9A474706businessRuleTask" transform="scale(0.7,0.7) translate(8,8)" display="none"> 		<rect id="_845068F8-9AC8-488F-B546-EC3E9A474706frame6" oryx:anchors="top left" x="0" y="0" width="22" height="4" style="opacity:1;fill:#B3B1B3;fill-opacity:1;" stroke="#000000"/> 		<rect id="_845068F8-9AC8-488F-B546-EC3E9A474706frame7" oryx:anchors="top left" x="0" y="4" style="opacity:1;fill:none;" width="22" height="12" stroke="#000000"/> 		<path id="_845068F8-9AC8-488F-B546-EC3E9A474706frame8" oryx:anchors="top left" style="opacity:1;fill:none;" d="M 0 10 L 22 10" stroke="#000000"/> 		<path id="_845068F8-9AC8-488F-B546-EC3E9A474706frame9" oryx:anchors="top left" style="opacity:1; fill:none;" d="M 7 4 L 7 16" stroke="#000000"/> 	</g> 	 	<g id="_845068F8-9AC8-488F-B546-EC3E9A474706scriptTask" transform="scale(0.7,0.7) translate(8,8)" display="none"> 		<path oryx:anchors="top left" id="_845068F8-9AC8-488F-B546-EC3E9A474706frame10" style="opacity:1;fill:none;" stroke="#000000" d="M6.402,0.5h14.5c0,0-5.833,2.833-5.833,5.583s4.417,6,4.417,9.167    s-4.167,5.083-4.167,5.083H0.235c0,0,5-2.667,5-5s-4.583-6.75-4.583-9.25S6.402,0.5,6.402,0.5z"/> 		<path oryx:anchors="top left" id="_845068F8-9AC8-488F-B546-EC3E9A474706frame11" style="opacity:1;fill:none;stroke-width:1.5" d="M 3.5 4.5 L 13.5 4.5" stroke="#000000"/> 		<path oryx:anchors="top left" id="_845068F8-9AC8-488F-B546-EC3E9A474706frame12" style="opacity:1;fill:none;stroke-width:1.5" d="M 3.8 8.5 L 13.8 8.5" stroke="#000000"/> 		<path oryx:anchors="top left" id="_845068F8-9AC8-488F-B546-EC3E9A474706frame13" style="opacity:1;fill:none;stroke-width:1.5" d="M 6.3 12.5 L 16.3 12.5" stroke="#000000"/> 		<path oryx:anchors="top left" id="_845068F8-9AC8-488F-B546-EC3E9A474706frame14" style="opacity:1;fill:none;stroke-width:1.5" d="M 6.5 16.5 L 16.5 16.5" stroke="#000000"/> 	</g> 	 	<g id="_845068F8-9AC8-488F-B546-EC3E9A474706userTask" transform="scale(0.7,0.7) translate(8,8)" display="none"> 		<path id="_845068F8-9AC8-488F-B546-EC3E9A474706frame15" oryx:anchors="top left" style="opacity:1;fill:#F4F6F7" stroke="#000000" d="M0.585,24.167h24.083v-7.833c0,0-2.333-3.917-7.083-5.167h-9.25    c-4.417,1.333-7.833,5.75-7.833,5.75L0.585,24.167z"/> 		<path id="_845068F8-9AC8-488F-B546-EC3E9A474706frame16" oryx:anchors="top left" style="opacity:1;fill:none" d="M 6 20 L 6 24" stroke="#000000"/> 		<path id="_845068F8-9AC8-488F-B546-EC3E9A474706frame17" oryx:anchors="top left" style="opacity:1;fill:none" d="M 20 20 L 20 24" stroke="#000000"/> 		<circle id="_845068F8-9AC8-488F-B546-EC3E9A474706frame18" oryx:anchors="top left" fill="black" cx="13.002" cy="5.916" r="5.417" stroke="#000000"/> 		<path id="_845068F8-9AC8-488F-B546-EC3E9A474706frame19" oryx:anchors="top left" style="opacity:1;fill:#F0EFF0;" stroke="#000000" d="M8.043,7.083c0,0,2.814-2.426,5.376-1.807s4.624-0.693,4.624-0.693    c0.25,1.688,0.042,3.75-1.458,5.584c0,0,1.083,0.75,1.083,1.5s0.125,1.875-1,3s-5.5,1.25-6.75,0S8.668,12.834,8.668,12    s0.583-1.25,1.25-1.917C8.835,9.5,7.419,7.708,8.043,7.083z"/> 	</g> 	 	<g id="_845068F8-9AC8-488F-B546-EC3E9A474706serviceTask" transform="scale(0.7,0.7) translate(8,8)" display="none"> 		<polygon oryx:anchors="top left" id="_845068F8-9AC8-488F-B546-EC3E9A474706frame20" style="opacity:1;fill:#ffffff" stroke="#000000" points="15.392,5.064 17.954,2.502 20.347,4.895 17.786,7.455     18.729,9.732 22.353,9.732 22.353,13.115 18.731,13.115 17.788,15.392 20.351,17.955 17.958,20.347 15.397,17.786 13.12,18.729     13.12,22.353 9.737,22.353 9.737,18.731 7.46,17.788 4.897,20.35 2.506,17.958 5.066,15.397 4.124,13.12 0.5,13.12 0.5,9.737     4.121,9.737 5.065,7.461 2.503,4.898 4.895,2.506 7.455,5.066 9.732,4.125 9.732,0.5 13.116,0.5 13.116,4.121 "/> 		<circle oryx:anchors="top left" id="_845068F8-9AC8-488F-B546-EC3E9A474706frame21" style="opacity:1;fill:none" stroke="#000000" cx="11.427" cy="11.426" r="3.714"/> 		<polygon oryx:anchors="top left" id="_845068F8-9AC8-488F-B546-EC3E9A474706frame22" style="opacity:1;fill:#ffffff" stroke="#000000" points="21.392,11.064 23.954,8.502 26.347,10.895 23.786,13.455     24.729,15.732 28.353,15.732 28.353,19.115 24.731,19.115 23.788,21.392 26.351,23.955 23.958,26.347 21.397,23.786 19.12,24.729     19.12,28.353 15.737,28.353 15.737,24.731 13.46,23.788 10.897,26.35 8.506,23.958 11.066,21.397 10.124,19.12 6.5,19.12     6.5,15.737 10.121,15.737 11.065,13.461 8.503,10.898 10.895,8.506 13.455,11.066 15.732,10.125 15.732,6.5 19.116,6.5     19.116,10.121 "/> 		<circle oryx:anchors="top left" id="_845068F8-9AC8-488F-B546-EC3E9A474706frame23" style="opacity:1;fill:none;" stroke="#000000" cx="17.427" cy="17.426" r="3.714"/> 	</g> 	 	<g id="_845068F8-9AC8-488F-B546-EC3E9A474706sendTask" display="none"> 		<path id="_845068F8-9AC8-488F-B546-EC3E9A474706stframe24" oryx:anchors="left top" stroke="#FFFFFF" fill="black" stroke-width="1" d="M8,11 L8,21 L24,21 L24,11 L16,17z"/> 		<path id="_845068F8-9AC8-488F-B546-EC3E9A474706stframe25" oryx:anchors="left top" stroke="#FFFFFF" fill="black" stroke-width="1" d="M7,10 L16,17 L25 10z"/> 	</g> 	 	<g id="_845068F8-9AC8-488F-B546-EC3E9A474706receiveTask" display="none"> 		<path id="_845068F8-9AC8-488F-B546-EC3E9A474706frame26" oryx:anchors="left top" stroke="#000000" fill="none" stroke-width="1" d="M8,11 L8,21 L24,21 L24,11z M8,11 L16,17 L24,11"/> 	</g> 	 	<g id="_845068F8-9AC8-488F-B546-EC3E9A474706none" display="inherit"/>  	<g id="_845068F8-9AC8-488F-B546-EC3E9A474706sequential" display="none">         <path oryx:anchors="bottom" fill="none" stroke="#000000" stroke-width="2" d="M46,76h10M46,72h10 M46,68h10" id="_845068F8-9AC8-488F-B546-EC3E9A474706__845068F8-9AC8-488F-B546-EC3E9A474706_20"/>     </g>   </g></g><g class="children" style="overflow:hidden"/><g class="edge"/></g><g class="controls"><g class="dockers"/><g class="magnets" transform="translate(440, 180)"><g pointer-events="all" display="none" transform="translate(-7, 12)"><circle cx="8" cy="8" r="4" stroke="none" fill="red" fill-opacity="0.3"/></g><g pointer-events="all" display="none" transform="translate(-7, 32)"><circle cx="8" cy="8" r="4" stroke="none" fill="red" fill-opacity="0.3"/></g><g pointer-events="all" display="none" transform="translate(-7, 52)"><circle cx="8" cy="8" r="4" stroke="none" fill="red" fill-opacity="0.3"/></g><g pointer-events="all" display="none" transform="translate(17, 71)"><circle cx="8" cy="8" r="4" stroke="none" fill="red" fill-opacity="0.3"/></g><g pointer-events="all" display="none" transform="translate(42, 71)"><circle cx="8" cy="8" r="4" stroke="none" fill="red" fill-opacity="0.3"/></g><g pointer-events="all" display="none" transform="translate(67, 71)"><circle cx="8" cy="8" r="4" stroke="none" fill="red" fill-opacity="0.3"/></g><g pointer-events="all" display="none" transform="translate(91, 12)"><circle cx="8" cy="8" r="4" stroke="none" fill="red" fill-opacity="0.3"/></g><g pointer-events="all" display="none" transform="translate(91, 32)"><circle cx="8" cy="8" r="4" stroke="none" fill="red" fill-opacity="0.3"/></g><g pointer-events="all" display="none" transform="translate(91, 52)"><circle cx="8" cy="8" r="4" stroke="none" fill="red" fill-opacity="0.3"/></g><g pointer-events="all" display="none" transform="translate(17, -7)"><circle cx="8" cy="8" r="4" stroke="none" fill="red" fill-opacity="0.3"/></g><g pointer-events="all" display="none" transform="translate(42, -7)"><circle cx="8" cy="8" r="4" stroke="none" fill="red" fill-opacity="0.3"/></g><g pointer-events="all" display="none" transform="translate(67, -7)"><circle cx="8" cy="8" r="4" stroke="none" fill="red" fill-opacity="0.3"/></g><g pointer-events="all" display="none" transform="translate(42, 32)"><circle cx="8" cy="8" r="4" stroke="none" fill="red" fill-opacity="0.3"/></g></g></g></g><g id="_10907672-AECA-4593-88CE-0623696A270F" bpmn2nodeid="_B3C5C400-BE21-4DAC-BAF2-C07CC1F406E6"><g class="stencils" transform="translate(585, 200)"><g class="me"><g id="_10907672-AECA-4593-88CE-0623696A270F">        <defs id="_10907672-AECA-4593-88CE-0623696A270F__10907672-AECA-4593-88CE-0623696A270F_4"> 		<radialGradient id="_10907672-AECA-4593-88CE-0623696A270Fbackground" cx="10%" cy="10%" r="100%" fx="10%" fy="10%"> 			<stop offset="0%" stop-color="#ffffff" stop-opacity="1" id="_10907672-AECA-4593-88CE-0623696A270F__10907672-AECA-4593-88CE-0623696A270F_5"/> 			<stop id="_10907672-AECA-4593-88CE-0623696A270Ffill_el" offset="100%" stop-color="#f0e68c" stop-opacity="1"/> 		</radialGradient> 		<radialGradient id="_10907672-AECA-4593-88CE-0623696A270Fborderbackground" cx="10%" cy="10%" r="100%" fx="10%" fy="10%"> 			<stop offset="0%" stop-color="#ffffff" stop-opacity="1" id="_10907672-AECA-4593-88CE-0623696A270F__10907672-AECA-4593-88CE-0623696A270F_6"/> 			<stop id="_10907672-AECA-4593-88CE-0623696A270Ffill_border" offset="100%" stop-color="#a67f00" stop-opacity="1" stroke="#a67f00"/> 		</radialGradient> 	</defs> 	     <path d=" M0 20.5  L20.5 0  L40 20.5  L20.5 40  z" id="_10907672-AECA-4593-88CE-0623696A270Fbg_frame" fill="url(#_10907672-AECA-4593-88CE-0623696A270Fbackground) white" style="stroke-width:1" stroke="#a67f00"/>     <g id="_10907672-AECA-4593-88CE-0623696A270Fframe" stroke="#a67f00">       <path id="_10907672-AECA-4593-88CE-0623696A270Fframe2" d=" M13.25 12.05  L17.25 12.05  L27.65 28.95  L23.75 28.95  z" style="stroke-width:1" stroke="#a67f00" fill="url(#_10907672-AECA-4593-88CE-0623696A270Fborderbackground)"/>       <path id="_10907672-AECA-4593-88CE-0623696A270Fframe3" d=" M13.25 28.95  L23.75 12.05  L27.65 12.05  L17.25 28.95  z" style="stroke-width:1" stroke="#a67f00" fill="url(#_10907672-AECA-4593-88CE-0623696A270Fborderbackground)"/>     </g> 	 	<text id="_10907672-AECA-4593-88CE-0623696A270Ftext_name" x="30.5" y="30.5" oryx:align="left top" stroke-width="0pt" letter-spacing="-0.01px" fill="#000000" text-anchor="start" transform="rotate(0 30.5 30.5)" visibility="inherit" oryx:fontSize="12"/> 	   </g></g><g class="children" style="overflow:hidden"/><g class="edge"/></g><g class="controls"><g class="dockers"/><g class="magnets" transform="translate(585, 200)"><g pointer-events="all" display="none" transform="translate(12.5, 12.5)"><circle cx="8" cy="8" r="4" stroke="none" fill="red" fill-opacity="0.3"/></g></g></g></g><g id="_C5349FAE-1167-4732-AB73-93EBF9AAB054" bpmn2nodeid="_72CBE8D6-A713-40E8-BC37-410B8957D7F1"><g class="stencils" transform="translate(670, 206)"><g class="me"><g pointer-events="fill" id="_C5349FAE-1167-4732-AB73-93EBF9AAB054">      <defs id="_C5349FAE-1167-4732-AB73-93EBF9AAB054__C5349FAE-1167-4732-AB73-93EBF9AAB054_5"> 		<radialGradient id="_C5349FAE-1167-4732-AB73-93EBF9AAB054background" cx="10%" cy="10%" r="100%" fx="10%" fy="10%"> 			<stop offset="0%" stop-color="#ffffff" stop-opacity="1" id="_C5349FAE-1167-4732-AB73-93EBF9AAB054__C5349FAE-1167-4732-AB73-93EBF9AAB054_6"/> 			<stop id="_C5349FAE-1167-4732-AB73-93EBF9AAB054fill_el" offset="100%" stop-color="#ff6347" stop-opacity="1"/> 		</radialGradient> 	</defs> 	     <circle id="_C5349FAE-1167-4732-AB73-93EBF9AAB054bg_frame" cx="14" cy="14" r="14" stroke="#000000" fill="url(#_C5349FAE-1167-4732-AB73-93EBF9AAB054background) white" stroke-width="3"/> 	<text font-size="11" id="_C5349FAE-1167-4732-AB73-93EBF9AAB054text_name" x="14" y="30" oryx:align="top center" stroke="black" stroke-width="0pt" letter-spacing="-0.01px" fill="#000000" text-anchor="middle" transform="rotate(0 14 30)" visibility="inherit" oryx:fontSize="11"/>   </g></g><g class="children" style="overflow:hidden"/><g class="edge"/></g><g class="controls"><g class="dockers"/><g class="magnets" transform="translate(670, 206)"><g pointer-events="all" display="none" transform="translate(6, 6)"><circle cx="8" cy="8" r="4" stroke="none" fill="red" fill-opacity="0.3"/></g></g></g></g></g><g class="edge"><g id="_876C6F02-5427-47A1-AB10-1023AAE839E2" bpmn2nodeid="_B2E60F79-C1FF-44D4-A206-5FBBB4753AF8"><g class="stencils"><g class="me"><g pointer-events="painted" bpmn2nodeid="_B2E60F79-C1FF-44D4-A206-5FBBB4753AF8"><path id="_876C6F02-5427-47A1-AB10-1023AAE839E2_1" d="M150.6484375 220L209.1953125 220 " stroke="#000000" fill="none" stroke-width="2" stroke-linecap="round" stroke-linejoin="round" marker-start="url(#_876C6F02-5427-47A1-AB10-1023AAE839E2start)" marker-end="url(#_876C6F02-5427-47A1-AB10-1023AAE839E2end)"/></g><text id="_876C6F02-5427-47A1-AB10-1023AAE839E2text_name" font-size="12" x="164.6484375" y="206" oryx:edgePosition="startTop" stroke-width="0pt" letter-spacing="-0.01px" fill="#000000" text-anchor="start" transform="rotate(360 150.6484375 220)" visibility="inherit" oryx:fontSize="12"/></g><g class="children" style="overflow:hidden"/><g class="edge"/></g><g class="controls"><g class="dockers"/><g class="magnets"/></g></g><g id="_0B4535C5-5EB6-4E4F-9EA3-CC671749E163" bpmn2nodeid="_F8D9F4F8-5F33-4CB5-8E48-6A623917B689"><g class="stencils"><g class="me"><g pointer-events="painted" bpmn2nodeid="_F8D9F4F8-5F33-4CB5-8E48-6A623917B689"><path id="_0B4535C5-5EB6-4E4F-9EA3-CC671749E163_1" d="M310.62889687999245 220.2191727137662L354.64844687000755 220.4097335362338 " stroke="#000000" fill="none" stroke-width="2" stroke-linecap="round" stroke-linejoin="round" marker-start="url(#_0B4535C5-5EB6-4E4F-9EA3-CC671749E163start)" marker-end="url(#_0B4535C5-5EB6-4E4F-9EA3-CC671749E163end)"/></g><text id="_0B4535C5-5EB6-4E4F-9EA3-CC671749E163text_name" font-size="12" x="324.62889687999245" y="206.2191727137662" oryx:edgePosition="startTop" stroke-width="0pt" letter-spacing="-0.01px" fill="#000000" text-anchor="start" transform="rotate(0.24803212815652387 310.62889687999245 220.2191727137662)" visibility="inherit" oryx:fontSize="12"/></g><g class="children" style="overflow:hidden"/><g class="edge"/></g><g class="controls"><g class="dockers"/><g class="magnets"/></g></g><g id="_75658976-EB99-490A-AB79-536CBCF6CA37" bpmn2nodeid="_A52EA515-0FD3-4B71-A82B-47D935918FBB"><g class="stencils"><g class="me"><g pointer-events="painted" bpmn2nodeid="_A52EA515-0FD3-4B71-A82B-47D935918FBB"><path id="_75658976-EB99-490A-AB79-536CBCF6CA37_1" d="M395.28514671561186 220.41360197940782L439.80079078438814 220.21921052059218 " stroke="#000000" fill="none" stroke-width="2" stroke-linecap="round" stroke-linejoin="round" marker-start="url(#_75658976-EB99-490A-AB79-536CBCF6CA37start)" marker-end="url(#_75658976-EB99-490A-AB79-536CBCF6CA37end)"/></g><text id="_75658976-EB99-490A-AB79-536CBCF6CA37text_name" font-size="12" x="409.28514671561186" y="206.41360197940782" oryx:edgePosition="startTop" stroke-width="0pt" letter-spacing="-0.01px" fill="#000000" text-anchor="start" transform="rotate(359.74980167980243 395.28514671561186 220.41360197940782)" visibility="inherit" oryx:fontSize="12"/></g><g class="children" style="overflow:hidden"/><g class="edge"/></g><g class="controls"><g class="dockers"/><g class="magnets"/></g></g><g id="_9CED2FBE-3AD2-4C17-ABF0-0A67C3F27C6A" bpmn2nodeid="_7B19B6B3-4112-4827-B02A-35DB972C9CDF"><g class="stencils"><g class="me"><g pointer-events="painted" bpmn2nodeid="_7B19B6B3-4112-4827-B02A-35DB972C9CDF"><path id="_9CED2FBE-3AD2-4C17-ABF0-0A67C3F27C6A_1" d="M540.6288968799925 220.2191727137662L584.6484468700075 220.4097335362338 " stroke="#000000" fill="none" stroke-width="2" stroke-linecap="round" stroke-linejoin="round" marker-start="url(#_9CED2FBE-3AD2-4C17-ABF0-0A67C3F27C6Astart)" marker-end="url(#_9CED2FBE-3AD2-4C17-ABF0-0A67C3F27C6Aend)"/></g><text id="_9CED2FBE-3AD2-4C17-ABF0-0A67C3F27C6Atext_name" font-size="12" x="554.6288968799925" y="206.2191727137662" oryx:edgePosition="startTop" stroke-width="0pt" letter-spacing="-0.01px" fill="#000000" text-anchor="start" transform="rotate(0.24803212815652387 540.6288968799925 220.2191727137662)" visibility="inherit" oryx:fontSize="12"/></g><g class="children" style="overflow:hidden"/><g class="edge"/></g><g class="controls"><g class="dockers"/><g class="magnets"/></g></g><g id="_ECC3BB64-E0CB-4276-B2AA-82FEF37DDCA2" bpmn2nodeid="_CC1645ED-59C6-4981-8B05-6E9B23D21237"><g class="stencils"><g class="me"><g pointer-events="painted" bpmn2nodeid="_CC1645ED-59C6-4981-8B05-6E9B23D21237"><path id="_ECC3BB64-E0CB-4276-B2AA-82FEF37DDCA2_1" d="M624.8984172158187 220.376443202447L669.5078327841813 220.092306797553 " stroke="#000000" fill="none" stroke-width="2" stroke-linecap="round" stroke-linejoin="round" marker-start="url(#_ECC3BB64-E0CB-4276-B2AA-82FEF37DDCA2start)" marker-end="url(#_ECC3BB64-E0CB-4276-B2AA-82FEF37DDCA2end)"/></g><text id="_ECC3BB64-E0CB-4276-B2AA-82FEF37DDCA2text_name" font-size="12" x="638.8984172158187" y="206.376443202447" oryx:edgePosition="startTop" stroke-width="0pt" letter-spacing="-0.01px" fill="#000000" text-anchor="start" transform="rotate(359.63506366426935 624.8984172158187 220.376443202447)" visibility="inherit" oryx:fontSize="12"/></g><g class="children" style="overflow:hidden"/><g class="edge"/></g><g class="controls"><g class="dockers"/><g class="magnets"/></g></g></g><text id="_EB78D600-CF6D-43B0-84B7-61183174F418" style="stroke-width:1;fill:rgb(177,194,214);font-family:arial;font-weight:bold" font-size="12" onclick="ORYX.Plugins.CanvasTitle.openTextualAnalysis()" onmouseover="ORYX.Plugins.CanvasTitle.addToolTip('_EB78D600-CF6D-43B0-84B7-61183174F418')" transform="translate(10, 20)">procurement v.1.0 (procurement.procurement)</text></g></g></svg>