<svg xmlns="http://www.w3.org/2000/svg" xmlns:oryx="http://oryx-editor.org" id="_46E20FB5-73DF-464A-AD88-3C1BDC3CC078" width="863" height="366" xmlns:xlink="http://www.w3.org/1999/xlink" xmlns:svg="http://www.w3.org/2000/svg"><defs><marker id="_11C332F2-2763-4E7E-B2A4-D2DFE57843D5start" refX="1" refY="5" markerUnits="userSpaceOnUse" markerWidth="17" markerHeight="11" orient="auto" fill="#000000" stroke="#000000"> 	  		<path id="_11C332F2-2763-4E7E-B2A4-D2DFE57843D5conditional" d="M 0 5 L 8 0 L 16 5 L 8 10 L 0 5" fill="white" stroke="#000000" stroke-width="1" display="none"/> 			<path id="_11C332F2-2763-4E7E-B2A4-D2DFE57843D5default" d="M 5 0 L 11 10" fill="white" stroke="#000000" stroke-width="1" display="none"/> 	  	</marker><marker id="_11C332F2-2763-4E7E-B2A4-D2DFE57843D5end" refX="15" refY="6" markerUnits="userSpaceOnUse" markerWidth="15" markerHeight="12" orient="auto" fill="#000000" stroke="#000000"> 	  		<path id="_11C332F2-2763-4E7E-B2A4-D2DFE57843D5frame2" d="M 0 1 L 15 6 L 0 11z" fill="#000000" stroke="#000000" stroke-linejoin="round" stroke-width="2"/> 	  	</marker><marker id="_648D3DDD-265C-441A-8B26-0B6CF4164C76start" refX="1" refY="5" markerUnits="userSpaceOnUse" markerWidth="17" markerHeight="11" orient="auto" fill="#000000" stroke="#000000"> 	  		<path id="_648D3DDD-265C-441A-8B26-0B6CF4164C76conditional" d="M 0 5 L 8 0 L 16 5 L 8 10 L 0 5" fill="white" stroke="#000000" stroke-width="1" display="none"/> 			<path id="_648D3DDD-265C-441A-8B26-0B6CF4164C76default" d="M 5 0 L 11 10" fill="white" stroke="#000000" stroke-width="1" display="none"/> 	  	</marker><marker id="_648D3DDD-265C-441A-8B26-0B6CF4164C76end" refX="15" refY="6" markerUnits="userSpaceOnUse" markerWidth="15" markerHeight="12" orient="auto" fill="#000000" stroke="#000000"> 	  		<path id="_648D3DDD-265C-441A-8B26-0B6CF4164C76frame2" d="M 0 1 L 15 6 L 0 11z" fill="#000000" stroke="#000000" stroke-linejoin="round" stroke-width="2"/> 	  	</marker><marker id="_04379BD7-19F1-485E-8CE3-2A017DB461D2start" refX="1" refY="5" markerUnits="userSpaceOnUse" markerWidth="17" markerHeight="11" orient="auto" fill="#000000" stroke="#000000"> 	  		<path id="_04379BD7-19F1-485E-8CE3-2A017DB461D2conditional" d="M 0 5 L 8 0 L 16 5 L 8 10 L 0 5" fill="white" stroke="#000000" stroke-width="1" display="none"/> 			<path id="_04379BD7-19F1-485E-8CE3-2A017DB461D2default" d="M 5 0 L 11 10" fill="white" stroke="#000000" stroke-width="1" display="none"/> 	  	</marker><marker id="_04379BD7-19F1-485E-8CE3-2A017DB461D2end" refX="15" refY="6" markerUnits="userSpaceOnUse" markerWidth="15" markerHeight="12" orient="auto" fill="#000000" stroke="#000000"> 	  		<path id="_04379BD7-19F1-485E-8CE3-2A017DB461D2frame2" d="M 0 1 L 15 6 L 0 11z" fill="#000000" stroke="#000000" stroke-linejoin="round" stroke-width="2"/> 	  	</marker><marker id="_1D312178-A03B-4941-9E37-AE04AB57377Bstart" refX="1" refY="5" markerUnits="userSpaceOnUse" markerWidth="17" markerHeight="11" orient="auto" fill="#000000" stroke="#000000"> 	  		<path id="_1D312178-A03B-4941-9E37-AE04AB57377Bconditional" d="M 0 5 L 8 0 L 16 5 L 8 10 L 0 5" fill="white" stroke="#000000" stroke-width="1" display="none"/> 			<path id="_1D312178-A03B-4941-9E37-AE04AB57377Bdefault" d="M 5 0 L 11 10" fill="white" stroke="#000000" stroke-width="1" display="none"/> 	  	</marker><marker id="_1D312178-A03B-4941-9E37-AE04AB57377Bend" refX="15" refY="6" markerUnits="userSpaceOnUse" markerWidth="15" markerHeight="12" orient="auto" fill="#000000" stroke="#000000"> 	  		<path id="_1D312178-A03B-4941-9E37-AE04AB57377Bframe2" d="M 0 1 L 15 6 L 0 11z" fill="#000000" stroke="#000000" stroke-linejoin="round" stroke-width="2"/> 	  	</marker><marker id="_A7F7C5FB-54AD-48BC-91EE-74E619777755start" refX="1" refY="5" markerUnits="userSpaceOnUse" markerWidth="17" markerHeight="11" orient="auto" fill="#000000" stroke="#000000"> 	  		<path id="_A7F7C5FB-54AD-48BC-91EE-74E619777755conditional" d="M 0 5 L 8 0 L 16 5 L 8 10 L 0 5" fill="white" stroke="#000000" stroke-width="1" display="none"/> 			<path id="_A7F7C5FB-54AD-48BC-91EE-74E619777755default" d="M 5 0 L 11 10" fill="white" stroke="#000000" stroke-width="1" display="none"/> 	  	</marker><marker id="_A7F7C5FB-54AD-48BC-91EE-74E619777755end" refX="15" refY="6" markerUnits="userSpaceOnUse" markerWidth="15" markerHeight="12" orient="auto" fill="#000000" stroke="#000000"> 	  		<path id="_A7F7C5FB-54AD-48BC-91EE-74E619777755frame2" d="M 0 1 L 15 6 L 0 11z" fill="#000000" stroke="#000000" stroke-linejoin="round" stroke-width="2"/> 	  	</marker><marker id="_03E78231-3E9A-44B7-9235-E1EBE9C68575start" refX="1" refY="5" markerUnits="userSpaceOnUse" markerWidth="17" markerHeight="11" orient="auto" fill="#000000" stroke="#000000"> 	  		<path id="_03E78231-3E9A-44B7-9235-E1EBE9C68575conditional" d="M 0 5 L 8 0 L 16 5 L 8 10 L 0 5" fill="white" stroke="#000000" stroke-width="1" display="none"/> 			<path id="_03E78231-3E9A-44B7-9235-E1EBE9C68575default" d="M 5 0 L 11 10" fill="white" stroke="#000000" stroke-width="1" display="none"/> 	  	</marker><marker id="_03E78231-3E9A-44B7-9235-E1EBE9C68575end" refX="15" refY="6" markerUnits="userSpaceOnUse" markerWidth="15" markerHeight="12" orient="auto" fill="#000000" stroke="#000000"> 	  		<path id="_03E78231-3E9A-44B7-9235-E1EBE9C68575frame2" d="M 0 1 L 15 6 L 0 11z" fill="#000000" stroke="#000000" stroke-linejoin="round" stroke-width="2"/> 	  	</marker></defs><g stroke="none" font-family="Verdana, sans-serif" font-size-adjust="none" font-style="normal" font-variant="normal" font-weight="normal" line-heigth="normal" font-size="12"><g class="stencils" transform="translate(15, 16)"><g class="me"/><g class="children"><g id="_D4AF382B-9878-4155-82EA-D0EFAC5A5A78" bpmn2nodeid="processStartEvent"><g class="stencils" transform="translate(120, 165)"><g class="me"><g pointer-events="fill" id="_D4AF382B-9878-4155-82EA-D0EFAC5A5A78">        <defs id="_D4AF382B-9878-4155-82EA-D0EFAC5A5A78__D4AF382B-9878-4155-82EA-D0EFAC5A5A78_5"> 		<radialGradient id="_D4AF382B-9878-4155-82EA-D0EFAC5A5A78background" cx="10%" cy="10%" r="100%" fx="10%" fy="10%"> 			<stop offset="0%" stop-color="#ffffff" stop-opacity="1" id="_D4AF382B-9878-4155-82EA-D0EFAC5A5A78__D4AF382B-9878-4155-82EA-D0EFAC5A5A78_6"/> 			<stop id="_D4AF382B-9878-4155-82EA-D0EFAC5A5A78fill_el" offset="100%" stop-color="#9acd32" stop-opacity="1"/> 		</radialGradient> 	</defs> 	     <circle id="_D4AF382B-9878-4155-82EA-D0EFAC5A5A78bg_frame" cx="15" cy="15" r="15" stroke="#000000" fill="url(#_D4AF382B-9878-4155-82EA-D0EFAC5A5A78background) white" stroke-width="1" style="stroke-dasharray: 5.5, 3"/>      <circle id="_D4AF382B-9878-4155-82EA-D0EFAC5A5A78frame" cx="15" cy="15" r="15" stroke="#000000" fill="none" stroke-width="1" display="inherit"/>  	<text font-size="11" id="_D4AF382B-9878-4155-82EA-D0EFAC5A5A78text_name" x="15" y="32" oryx:align="top center" stroke="black" stroke-width="0pt" letter-spacing="-0.01px" fill="#000000" text-anchor="middle" transform="rotate(0 15 32)" visibility="inherit" oryx:fontSize="11"/>   </g></g><g class="children" style="overflow:hidden"/><g class="edge"/></g><g class="controls"><g class="dockers"/><g class="magnets" transform="translate(120, 165)"><g pointer-events="all" display="none" transform="translate(7, 7)"><circle cx="8" cy="8" r="4" stroke="none" fill="red" fill-opacity="0.3"/></g></g></g></g><g id="_5A1BBA56-C546-440A-9818-32520010221E" bpmn2nodeid="_2DF7FDA4-BCCB-4BF8-85E5-2724DFD0EC76"><g class="stencils" transform="translate(255, 140)"><g class="me"><g pointer-events="fill" oryx:minimumSize="50 40" id="_5A1BBA56-C546-440A-9818-32520010221E">   	<defs id="_5A1BBA56-C546-440A-9818-32520010221E__5A1BBA56-C546-440A-9818-32520010221E_17"> 		<radialGradient id="_5A1BBA56-C546-440A-9818-32520010221Ebackground" cx="10%" cy="10%" r="100%" fx="10%" fy="10%"> 			<stop offset="0%" stop-color="#ffffff" stop-opacity="1" id="_5A1BBA56-C546-440A-9818-32520010221E__5A1BBA56-C546-440A-9818-32520010221E_18"/> 			<stop id="_5A1BBA56-C546-440A-9818-32520010221Efill_el" offset="100%" stop-color="#fafad2" stop-opacity="1"/> 		</radialGradient> 		<radialGradient id="_5A1BBA56-C546-440A-9818-32520010221Eborderbackground" cx="10%" cy="10%" r="100%" fx="10%" fy="10%"> 			<stop offset="0%" stop-color="#ffffff" stop-opacity="1" id="_5A1BBA56-C546-440A-9818-32520010221E__5A1BBA56-C546-440A-9818-32520010221E_19"/> 			<stop id="_5A1BBA56-C546-440A-9818-32520010221Efill_border" offset="100%" stop-color="#000000" stop-opacity="1" stroke="#000000"/> 		</radialGradient> 	</defs> 	 	<rect id="_5A1BBA56-C546-440A-9818-32520010221Etext_frame" oryx:anchors="bottom top right left" x="1" y="1" width="94" height="79" rx="10" ry="10" stroke="none" stroke-width="0" fill="none"/> 	<rect id="_5A1BBA56-C546-440A-9818-32520010221Ebg_frame" oryx:resize="vertical horizontal" x="0" y="0" width="100" height="80" rx="10" ry="10" stroke="#000000" stroke-width="1" fill="url(#_5A1BBA56-C546-440A-9818-32520010221Ebackground) #ffffcc"/> 		<text font-size="12" id="_5A1BBA56-C546-440A-9818-32520010221Etext_name" x="50" y="40" oryx:align="middle center" oryx:fittoelem="text_frame" stroke="black" text-anchor="middle" stroke-width="0pt" letter-spacing="-0.01px" fill="#000000" transform="rotate(0 50 40)" visibility="inherit" oryx:fontSize="12"><tspan x="50" y="40" dy="-13">Asset </tspan><tspan x="50" y="40" dy="-1" id="ext-gen852">Service/Repair </tspan><tspan x="50" y="40" dy="11" id="ext-gen851">Outward </tspan><tspan x="50" y="40" dy="23" id="ext-gen850">Approval</tspan></text>     <g id="_5A1BBA56-C546-440A-9818-32520010221EmanualTask" transform="scale(0.7,0.7) translate(8,8)" display="none">     	<path oryx:anchors="top left" id="_5A1BBA56-C546-440A-9818-32520010221Eframe" style="opacity:1;fill:none;fill-opacity:1;stroke-width:1" d="M0.5,3.751l4.083-3.25c0,0,11.166,0.083,12.083,0.083s-2.417,2.917-1.5,2.917     s11.667,0,12.584,0c1.166,1.708-0.168,3.167-0.834,3.667s0.875,1.917-1,4.417c-0.75,0.25,0.75,1.875-1.333,3.333     c-1.167,0.583,0.583,1.542-1.25,2.833c-1.167,0-20.833,0.083-20.833,0.083l-2-1.333V3.751z" stroke="#000000"/> 		<path id="_5A1BBA56-C546-440A-9818-32520010221Eframe2" oryx:anchors="top left" style="opacity:1;fill:none;stroke-width:2" d="M 13.5 7 L 27 7" stroke="#000000"/> 		<path id="_5A1BBA56-C546-440A-9818-32520010221Eframe3" oryx:anchors="top left" style="opacity:1;fill:none;stroke-width:2" d="M 13.5 11 L 26 11" stroke="#000000"/> 		<path id="_5A1BBA56-C546-440A-9818-32520010221Eframe4" oryx:anchors="top left" style="opacity:1;fill:none;stroke-width:1.5" d="M 14 14.5 L 25 14.5" stroke="#000000"/> 		<path id="_5A1BBA56-C546-440A-9818-32520010221Eframe5" oryx:anchors="top left" style="opacity:1;fill:none;stroke-width:1.5" d="M 8.2 3.1 L 15 3.1" stroke="#000000"/> 	</g> 	 	<g id="_5A1BBA56-C546-440A-9818-32520010221EbusinessRuleTask" transform="scale(0.7,0.7) translate(8,8)" display="none"> 		<rect id="_5A1BBA56-C546-440A-9818-32520010221Eframe6" oryx:anchors="top left" x="0" y="0" width="22" height="4" style="opacity:1;fill:#B3B1B3;fill-opacity:1;" stroke="#000000"/> 		<rect id="_5A1BBA56-C546-440A-9818-32520010221Eframe7" oryx:anchors="top left" x="0" y="4" style="opacity:1;fill:none;" width="22" height="12" stroke="#000000"/> 		<path id="_5A1BBA56-C546-440A-9818-32520010221Eframe8" oryx:anchors="top left" style="opacity:1;fill:none;" d="M 0 10 L 22 10" stroke="#000000"/> 		<path id="_5A1BBA56-C546-440A-9818-32520010221Eframe9" oryx:anchors="top left" style="opacity:1; fill:none;" d="M 7 4 L 7 16" stroke="#000000"/> 	</g> 	 	<g id="_5A1BBA56-C546-440A-9818-32520010221EscriptTask" transform="scale(0.7,0.7) translate(8,8)" display="none"> 		<path oryx:anchors="top left" id="_5A1BBA56-C546-440A-9818-32520010221Eframe10" style="opacity:1;fill:none;" stroke="#000000" d="M6.402,0.5h14.5c0,0-5.833,2.833-5.833,5.583s4.417,6,4.417,9.167    s-4.167,5.083-4.167,5.083H0.235c0,0,5-2.667,5-5s-4.583-6.75-4.583-9.25S6.402,0.5,6.402,0.5z"/> 		<path oryx:anchors="top left" id="_5A1BBA56-C546-440A-9818-32520010221Eframe11" style="opacity:1;fill:none;stroke-width:1.5" d="M 3.5 4.5 L 13.5 4.5" stroke="#000000"/> 		<path oryx:anchors="top left" id="_5A1BBA56-C546-440A-9818-32520010221Eframe12" style="opacity:1;fill:none;stroke-width:1.5" d="M 3.8 8.5 L 13.8 8.5" stroke="#000000"/> 		<path oryx:anchors="top left" id="_5A1BBA56-C546-440A-9818-32520010221Eframe13" style="opacity:1;fill:none;stroke-width:1.5" d="M 6.3 12.5 L 16.3 12.5" stroke="#000000"/> 		<path oryx:anchors="top left" id="_5A1BBA56-C546-440A-9818-32520010221Eframe14" style="opacity:1;fill:none;stroke-width:1.5" d="M 6.5 16.5 L 16.5 16.5" stroke="#000000"/> 	</g> 	 	<g id="_5A1BBA56-C546-440A-9818-32520010221EuserTask" transform="scale(0.7,0.7) translate(8,8)" display="inherit"> 		<path id="_5A1BBA56-C546-440A-9818-32520010221Eframe15" oryx:anchors="top left" style="opacity:1;fill:#F4F6F7" stroke="#000000" d="M0.585,24.167h24.083v-7.833c0,0-2.333-3.917-7.083-5.167h-9.25    c-4.417,1.333-7.833,5.75-7.833,5.75L0.585,24.167z"/> 		<path id="_5A1BBA56-C546-440A-9818-32520010221Eframe16" oryx:anchors="top left" style="opacity:1;fill:none" d="M 6 20 L 6 24" stroke="#000000"/> 		<path id="_5A1BBA56-C546-440A-9818-32520010221Eframe17" oryx:anchors="top left" style="opacity:1;fill:none" d="M 20 20 L 20 24" stroke="#000000"/> 		<circle id="_5A1BBA56-C546-440A-9818-32520010221Eframe18" oryx:anchors="top left" fill="black" cx="13.002" cy="5.916" r="5.417" stroke="#000000"/> 		<path id="_5A1BBA56-C546-440A-9818-32520010221Eframe19" oryx:anchors="top left" style="opacity:1;fill:#F0EFF0;" stroke="#000000" d="M8.043,7.083c0,0,2.814-2.426,5.376-1.807s4.624-0.693,4.624-0.693    c0.25,1.688,0.042,3.75-1.458,5.584c0,0,1.083,0.75,1.083,1.5s0.125,1.875-1,3s-5.5,1.25-6.75,0S8.668,12.834,8.668,12    s0.583-1.25,1.25-1.917C8.835,9.5,7.419,7.708,8.043,7.083z"/> 	</g> 	 	<g id="_5A1BBA56-C546-440A-9818-32520010221EserviceTask" transform="scale(0.7,0.7) translate(8,8)" display="none"> 		<polygon oryx:anchors="top left" id="_5A1BBA56-C546-440A-9818-32520010221Eframe20" style="opacity:1;fill:#ffffff" stroke="#000000" points="15.392,5.064 17.954,2.502 20.347,4.895 17.786,7.455     18.729,9.732 22.353,9.732 22.353,13.115 18.731,13.115 17.788,15.392 20.351,17.955 17.958,20.347 15.397,17.786 13.12,18.729     13.12,22.353 9.737,22.353 9.737,18.731 7.46,17.788 4.897,20.35 2.506,17.958 5.066,15.397 4.124,13.12 0.5,13.12 0.5,9.737     4.121,9.737 5.065,7.461 2.503,4.898 4.895,2.506 7.455,5.066 9.732,4.125 9.732,0.5 13.116,0.5 13.116,4.121 "/> 		<circle oryx:anchors="top left" id="_5A1BBA56-C546-440A-9818-32520010221Eframe21" style="opacity:1;fill:none" stroke="#000000" cx="11.427" cy="11.426" r="3.714"/> 		<polygon oryx:anchors="top left" id="_5A1BBA56-C546-440A-9818-32520010221Eframe22" style="opacity:1;fill:#ffffff" stroke="#000000" points="21.392,11.064 23.954,8.502 26.347,10.895 23.786,13.455     24.729,15.732 28.353,15.732 28.353,19.115 24.731,19.115 23.788,21.392 26.351,23.955 23.958,26.347 21.397,23.786 19.12,24.729     19.12,28.353 15.737,28.353 15.737,24.731 13.46,23.788 10.897,26.35 8.506,23.958 11.066,21.397 10.124,19.12 6.5,19.12     6.5,15.737 10.121,15.737 11.065,13.461 8.503,10.898 10.895,8.506 13.455,11.066 15.732,10.125 15.732,6.5 19.116,6.5     19.116,10.121 "/> 		<circle oryx:anchors="top left" id="_5A1BBA56-C546-440A-9818-32520010221Eframe23" style="opacity:1;fill:none;" stroke="#000000" cx="17.427" cy="17.426" r="3.714"/> 	</g> 	 	<g id="_5A1BBA56-C546-440A-9818-32520010221EsendTask" display="none"> 		<path id="_5A1BBA56-C546-440A-9818-32520010221Estframe24" oryx:anchors="left top" stroke="#FFFFFF" fill="black" stroke-width="1" d="M8,11 L8,21 L24,21 L24,11 L16,17z"/> 		<path id="_5A1BBA56-C546-440A-9818-32520010221Estframe25" oryx:anchors="left top" stroke="#FFFFFF" fill="black" stroke-width="1" d="M7,10 L16,17 L25 10z"/> 	</g> 	 	<g id="_5A1BBA56-C546-440A-9818-32520010221EreceiveTask" display="none"> 		<path id="_5A1BBA56-C546-440A-9818-32520010221Eframe26" oryx:anchors="left top" stroke="#000000" fill="none" stroke-width="1" d="M8,11 L8,21 L24,21 L24,11z M8,11 L16,17 L24,11"/> 	</g> 	 	<g id="_5A1BBA56-C546-440A-9818-32520010221Enone" display="inherit"/>  	<g id="_5A1BBA56-C546-440A-9818-32520010221Esequential" display="none">         <path oryx:anchors="bottom" fill="none" stroke="#000000" stroke-width="2" d="M46,76h10M46,72h10 M46,68h10" id="_5A1BBA56-C546-440A-9818-32520010221E__5A1BBA56-C546-440A-9818-32520010221E_20"/>     </g>   </g></g><g class="children" style="overflow:hidden"/><g class="edge"/></g><g class="controls"><g class="dockers"/><g class="magnets" transform="translate(255, 140)"><g pointer-events="all" display="none" transform="translate(-7, 12)"><circle cx="8" cy="8" r="4" stroke="none" fill="red" fill-opacity="0.3"/></g><g pointer-events="all" display="none" transform="translate(-7, 32)"><circle cx="8" cy="8" r="4" stroke="none" fill="red" fill-opacity="0.3"/></g><g pointer-events="all" display="none" transform="translate(-7, 52)"><circle cx="8" cy="8" r="4" stroke="none" fill="red" fill-opacity="0.3"/></g><g pointer-events="all" display="none" transform="translate(17, 71)"><circle cx="8" cy="8" r="4" stroke="none" fill="red" fill-opacity="0.3"/></g><g pointer-events="all" display="none" transform="translate(42, 71)"><circle cx="8" cy="8" r="4" stroke="none" fill="red" fill-opacity="0.3"/></g><g pointer-events="all" display="none" transform="translate(67, 71)"><circle cx="8" cy="8" r="4" stroke="none" fill="red" fill-opacity="0.3"/></g><g pointer-events="all" display="none" transform="translate(91, 12)"><circle cx="8" cy="8" r="4" stroke="none" fill="red" fill-opacity="0.3"/></g><g pointer-events="all" display="none" transform="translate(91, 32)"><circle cx="8" cy="8" r="4" stroke="none" fill="red" fill-opacity="0.3"/></g><g pointer-events="all" display="none" transform="translate(91, 52)"><circle cx="8" cy="8" r="4" stroke="none" fill="red" fill-opacity="0.3"/></g><g pointer-events="all" display="none" transform="translate(17, -7)"><circle cx="8" cy="8" r="4" stroke="none" fill="red" fill-opacity="0.3"/></g><g pointer-events="all" display="none" transform="translate(42, -7)"><circle cx="8" cy="8" r="4" stroke="none" fill="red" fill-opacity="0.3"/></g><g pointer-events="all" display="none" transform="translate(67, -7)"><circle cx="8" cy="8" r="4" stroke="none" fill="red" fill-opacity="0.3"/></g><g pointer-events="all" display="none" transform="translate(42, 32)"><circle cx="8" cy="8" r="4" stroke="none" fill="red" fill-opacity="0.3"/></g></g></g></g><g id="_31BC4C0E-AEE5-45F1-9557-AEBFCFDF4B8A" bpmn2nodeid="_4572FDCB-24B7-436D-A70A-507BEEBA852E"><g class="stencils" transform="translate(450, 160)"><g class="me"><g id="_31BC4C0E-AEE5-45F1-9557-AEBFCFDF4B8A">        <defs id="_31BC4C0E-AEE5-45F1-9557-AEBFCFDF4B8A__31BC4C0E-AEE5-45F1-9557-AEBFCFDF4B8A_4"> 		<radialGradient id="_31BC4C0E-AEE5-45F1-9557-AEBFCFDF4B8Abackground" cx="10%" cy="10%" r="100%" fx="10%" fy="10%"> 			<stop offset="0%" stop-color="#ffffff" stop-opacity="1" id="_31BC4C0E-AEE5-45F1-9557-AEBFCFDF4B8A__31BC4C0E-AEE5-45F1-9557-AEBFCFDF4B8A_5"/> 			<stop id="_31BC4C0E-AEE5-45F1-9557-AEBFCFDF4B8Afill_el" offset="100%" stop-color="#f0e68c" stop-opacity="1"/> 		</radialGradient> 		<radialGradient id="_31BC4C0E-AEE5-45F1-9557-AEBFCFDF4B8Aborderbackground" cx="10%" cy="10%" r="100%" fx="10%" fy="10%"> 			<stop offset="0%" stop-color="#ffffff" stop-opacity="1" id="_31BC4C0E-AEE5-45F1-9557-AEBFCFDF4B8A__31BC4C0E-AEE5-45F1-9557-AEBFCFDF4B8A_6"/> 			<stop id="_31BC4C0E-AEE5-45F1-9557-AEBFCFDF4B8Afill_border" offset="100%" stop-color="#a67f00" stop-opacity="1" stroke="#a67f00"/> 		</radialGradient> 	</defs> 	     <path d=" M0 20.5  L20.5 0  L40 20.5  L20.5 40  z" id="_31BC4C0E-AEE5-45F1-9557-AEBFCFDF4B8Abg_frame" fill="url(#_31BC4C0E-AEE5-45F1-9557-AEBFCFDF4B8Abackground) white" style="stroke-width:1" stroke="#a67f00"/>     <g id="_31BC4C0E-AEE5-45F1-9557-AEBFCFDF4B8Aframe" stroke="#a67f00">       <path id="_31BC4C0E-AEE5-45F1-9557-AEBFCFDF4B8Aframe2" d=" M13.25 12.05  L17.25 12.05  L27.65 28.95  L23.75 28.95  z" style="stroke-width:1" stroke="#a67f00" fill="url(#_31BC4C0E-AEE5-45F1-9557-AEBFCFDF4B8Aborderbackground)"/>       <path id="_31BC4C0E-AEE5-45F1-9557-AEBFCFDF4B8Aframe3" d=" M13.25 28.95  L23.75 12.05  L27.65 12.05  L17.25 28.95  z" style="stroke-width:1" stroke="#a67f00" fill="url(#_31BC4C0E-AEE5-45F1-9557-AEBFCFDF4B8Aborderbackground)"/>     </g> 	 	<text id="_31BC4C0E-AEE5-45F1-9557-AEBFCFDF4B8Atext_name" x="30.5" y="30.5" oryx:align="left top" stroke-width="0pt" letter-spacing="-0.01px" fill="#000000" text-anchor="start" transform="rotate(0 30.5 30.5)" visibility="inherit" oryx:fontSize="12"/> 	   </g></g><g class="children" style="overflow:hidden"/><g class="edge"/></g><g class="controls"><g class="dockers"/><g class="magnets" transform="translate(450, 160)"><g pointer-events="all" display="none" transform="translate(12.5, 12.5)"><circle cx="8" cy="8" r="4" stroke="none" fill="red" fill-opacity="0.3"/></g></g></g></g><g id="_FBC8AB5A-FB99-40DA-8861-B38165B36A7A" bpmn2nodeid="_CFB99525-4258-4246-B862-9651086D994B"><g class="stencils" transform="translate(645, 140)"><g class="me"><g pointer-events="fill" oryx:minimumSize="50 40" id="_FBC8AB5A-FB99-40DA-8861-B38165B36A7A">   	<defs id="_FBC8AB5A-FB99-40DA-8861-B38165B36A7A__FBC8AB5A-FB99-40DA-8861-B38165B36A7A_17"> 		<radialGradient id="_FBC8AB5A-FB99-40DA-8861-B38165B36A7Abackground" cx="10%" cy="10%" r="100%" fx="10%" fy="10%"> 			<stop offset="0%" stop-color="#ffffff" stop-opacity="1" id="_FBC8AB5A-FB99-40DA-8861-B38165B36A7A__FBC8AB5A-FB99-40DA-8861-B38165B36A7A_18"/> 			<stop id="_FBC8AB5A-FB99-40DA-8861-B38165B36A7Afill_el" offset="100%" stop-color="#fafad2" stop-opacity="1"/> 		</radialGradient> 		<radialGradient id="_FBC8AB5A-FB99-40DA-8861-B38165B36A7Aborderbackground" cx="10%" cy="10%" r="100%" fx="10%" fy="10%"> 			<stop offset="0%" stop-color="#ffffff" stop-opacity="1" id="_FBC8AB5A-FB99-40DA-8861-B38165B36A7A__FBC8AB5A-FB99-40DA-8861-B38165B36A7A_19"/> 			<stop id="_FBC8AB5A-FB99-40DA-8861-B38165B36A7Afill_border" offset="100%" stop-color="#000000" stop-opacity="1" stroke="#000000"/> 		</radialGradient> 	</defs> 	 	<rect id="_FBC8AB5A-FB99-40DA-8861-B38165B36A7Atext_frame" oryx:anchors="bottom top right left" x="1" y="1" width="94" height="79" rx="10" ry="10" stroke="none" stroke-width="0" fill="none"/> 	<rect id="_FBC8AB5A-FB99-40DA-8861-B38165B36A7Abg_frame" oryx:resize="vertical horizontal" x="0" y="0" width="100" height="80" rx="10" ry="10" stroke="#000000" stroke-width="1" fill="url(#_FBC8AB5A-FB99-40DA-8861-B38165B36A7Abackground) #ffffcc"/> 		<text font-size="12" id="_FBC8AB5A-FB99-40DA-8861-B38165B36A7Atext_name" x="50" y="40" oryx:align="middle center" oryx:fittoelem="text_frame" stroke="black" text-anchor="middle" stroke-width="0pt" letter-spacing="-0.01px" fill="#000000" transform="rotate(0 50 40)" visibility="inherit" oryx:fontSize="12"><tspan x="50" y="40" dy="-1" id="ext-gen869">Asset Service </tspan><tspan x="50" y="40" dy="11" id="ext-gen868">Inward</tspan></text>     <g id="_FBC8AB5A-FB99-40DA-8861-B38165B36A7AmanualTask" transform="scale(0.7,0.7) translate(8,8)" display="none">     	<path oryx:anchors="top left" id="_FBC8AB5A-FB99-40DA-8861-B38165B36A7Aframe" style="opacity:1;fill:none;fill-opacity:1;stroke-width:1" d="M0.5,3.751l4.083-3.25c0,0,11.166,0.083,12.083,0.083s-2.417,2.917-1.5,2.917     s11.667,0,12.584,0c1.166,1.708-0.168,3.167-0.834,3.667s0.875,1.917-1,4.417c-0.75,0.25,0.75,1.875-1.333,3.333     c-1.167,0.583,0.583,1.542-1.25,2.833c-1.167,0-20.833,0.083-20.833,0.083l-2-1.333V3.751z" stroke="#000000"/> 		<path id="_FBC8AB5A-FB99-40DA-8861-B38165B36A7Aframe2" oryx:anchors="top left" style="opacity:1;fill:none;stroke-width:2" d="M 13.5 7 L 27 7" stroke="#000000"/> 		<path id="_FBC8AB5A-FB99-40DA-8861-B38165B36A7Aframe3" oryx:anchors="top left" style="opacity:1;fill:none;stroke-width:2" d="M 13.5 11 L 26 11" stroke="#000000"/> 		<path id="_FBC8AB5A-FB99-40DA-8861-B38165B36A7Aframe4" oryx:anchors="top left" style="opacity:1;fill:none;stroke-width:1.5" d="M 14 14.5 L 25 14.5" stroke="#000000"/> 		<path id="_FBC8AB5A-FB99-40DA-8861-B38165B36A7Aframe5" oryx:anchors="top left" style="opacity:1;fill:none;stroke-width:1.5" d="M 8.2 3.1 L 15 3.1" stroke="#000000"/> 	</g> 	 	<g id="_FBC8AB5A-FB99-40DA-8861-B38165B36A7AbusinessRuleTask" transform="scale(0.7,0.7) translate(8,8)" display="none"> 		<rect id="_FBC8AB5A-FB99-40DA-8861-B38165B36A7Aframe6" oryx:anchors="top left" x="0" y="0" width="22" height="4" style="opacity:1;fill:#B3B1B3;fill-opacity:1;" stroke="#000000"/> 		<rect id="_FBC8AB5A-FB99-40DA-8861-B38165B36A7Aframe7" oryx:anchors="top left" x="0" y="4" style="opacity:1;fill:none;" width="22" height="12" stroke="#000000"/> 		<path id="_FBC8AB5A-FB99-40DA-8861-B38165B36A7Aframe8" oryx:anchors="top left" style="opacity:1;fill:none;" d="M 0 10 L 22 10" stroke="#000000"/> 		<path id="_FBC8AB5A-FB99-40DA-8861-B38165B36A7Aframe9" oryx:anchors="top left" style="opacity:1; fill:none;" d="M 7 4 L 7 16" stroke="#000000"/> 	</g> 	 	<g id="_FBC8AB5A-FB99-40DA-8861-B38165B36A7AscriptTask" transform="scale(0.7,0.7) translate(8,8)" display="none"> 		<path oryx:anchors="top left" id="_FBC8AB5A-FB99-40DA-8861-B38165B36A7Aframe10" style="opacity:1;fill:none;" stroke="#000000" d="M6.402,0.5h14.5c0,0-5.833,2.833-5.833,5.583s4.417,6,4.417,9.167    s-4.167,5.083-4.167,5.083H0.235c0,0,5-2.667,5-5s-4.583-6.75-4.583-9.25S6.402,0.5,6.402,0.5z"/> 		<path oryx:anchors="top left" id="_FBC8AB5A-FB99-40DA-8861-B38165B36A7Aframe11" style="opacity:1;fill:none;stroke-width:1.5" d="M 3.5 4.5 L 13.5 4.5" stroke="#000000"/> 		<path oryx:anchors="top left" id="_FBC8AB5A-FB99-40DA-8861-B38165B36A7Aframe12" style="opacity:1;fill:none;stroke-width:1.5" d="M 3.8 8.5 L 13.8 8.5" stroke="#000000"/> 		<path oryx:anchors="top left" id="_FBC8AB5A-FB99-40DA-8861-B38165B36A7Aframe13" style="opacity:1;fill:none;stroke-width:1.5" d="M 6.3 12.5 L 16.3 12.5" stroke="#000000"/> 		<path oryx:anchors="top left" id="_FBC8AB5A-FB99-40DA-8861-B38165B36A7Aframe14" style="opacity:1;fill:none;stroke-width:1.5" d="M 6.5 16.5 L 16.5 16.5" stroke="#000000"/> 	</g> 	 	<g id="_FBC8AB5A-FB99-40DA-8861-B38165B36A7AuserTask" transform="scale(0.7,0.7) translate(8,8)" display="inherit"> 		<path id="_FBC8AB5A-FB99-40DA-8861-B38165B36A7Aframe15" oryx:anchors="top left" style="opacity:1;fill:#F4F6F7" stroke="#000000" d="M0.585,24.167h24.083v-7.833c0,0-2.333-3.917-7.083-5.167h-9.25    c-4.417,1.333-7.833,5.75-7.833,5.75L0.585,24.167z"/> 		<path id="_FBC8AB5A-FB99-40DA-8861-B38165B36A7Aframe16" oryx:anchors="top left" style="opacity:1;fill:none" d="M 6 20 L 6 24" stroke="#000000"/> 		<path id="_FBC8AB5A-FB99-40DA-8861-B38165B36A7Aframe17" oryx:anchors="top left" style="opacity:1;fill:none" d="M 20 20 L 20 24" stroke="#000000"/> 		<circle id="_FBC8AB5A-FB99-40DA-8861-B38165B36A7Aframe18" oryx:anchors="top left" fill="black" cx="13.002" cy="5.916" r="5.417" stroke="#000000"/> 		<path id="_FBC8AB5A-FB99-40DA-8861-B38165B36A7Aframe19" oryx:anchors="top left" style="opacity:1;fill:#F0EFF0;" stroke="#000000" d="M8.043,7.083c0,0,2.814-2.426,5.376-1.807s4.624-0.693,4.624-0.693    c0.25,1.688,0.042,3.75-1.458,5.584c0,0,1.083,0.75,1.083,1.5s0.125,1.875-1,3s-5.5,1.25-6.75,0S8.668,12.834,8.668,12    s0.583-1.25,1.25-1.917C8.835,9.5,7.419,7.708,8.043,7.083z"/> 	</g> 	 	<g id="_FBC8AB5A-FB99-40DA-8861-B38165B36A7AserviceTask" transform="scale(0.7,0.7) translate(8,8)" display="none"> 		<polygon oryx:anchors="top left" id="_FBC8AB5A-FB99-40DA-8861-B38165B36A7Aframe20" style="opacity:1;fill:#ffffff" stroke="#000000" points="15.392,5.064 17.954,2.502 20.347,4.895 17.786,7.455     18.729,9.732 22.353,9.732 22.353,13.115 18.731,13.115 17.788,15.392 20.351,17.955 17.958,20.347 15.397,17.786 13.12,18.729     13.12,22.353 9.737,22.353 9.737,18.731 7.46,17.788 4.897,20.35 2.506,17.958 5.066,15.397 4.124,13.12 0.5,13.12 0.5,9.737     4.121,9.737 5.065,7.461 2.503,4.898 4.895,2.506 7.455,5.066 9.732,4.125 9.732,0.5 13.116,0.5 13.116,4.121 "/> 		<circle oryx:anchors="top left" id="_FBC8AB5A-FB99-40DA-8861-B38165B36A7Aframe21" style="opacity:1;fill:none" stroke="#000000" cx="11.427" cy="11.426" r="3.714"/> 		<polygon oryx:anchors="top left" id="_FBC8AB5A-FB99-40DA-8861-B38165B36A7Aframe22" style="opacity:1;fill:#ffffff" stroke="#000000" points="21.392,11.064 23.954,8.502 26.347,10.895 23.786,13.455     24.729,15.732 28.353,15.732 28.353,19.115 24.731,19.115 23.788,21.392 26.351,23.955 23.958,26.347 21.397,23.786 19.12,24.729     19.12,28.353 15.737,28.353 15.737,24.731 13.46,23.788 10.897,26.35 8.506,23.958 11.066,21.397 10.124,19.12 6.5,19.12     6.5,15.737 10.121,15.737 11.065,13.461 8.503,10.898 10.895,8.506 13.455,11.066 15.732,10.125 15.732,6.5 19.116,6.5     19.116,10.121 "/> 		<circle oryx:anchors="top left" id="_FBC8AB5A-FB99-40DA-8861-B38165B36A7Aframe23" style="opacity:1;fill:none;" stroke="#000000" cx="17.427" cy="17.426" r="3.714"/> 	</g> 	 	<g id="_FBC8AB5A-FB99-40DA-8861-B38165B36A7AsendTask" display="none"> 		<path id="_FBC8AB5A-FB99-40DA-8861-B38165B36A7Astframe24" oryx:anchors="left top" stroke="#FFFFFF" fill="black" stroke-width="1" d="M8,11 L8,21 L24,21 L24,11 L16,17z"/> 		<path id="_FBC8AB5A-FB99-40DA-8861-B38165B36A7Astframe25" oryx:anchors="left top" stroke="#FFFFFF" fill="black" stroke-width="1" d="M7,10 L16,17 L25 10z"/> 	</g> 	 	<g id="_FBC8AB5A-FB99-40DA-8861-B38165B36A7AreceiveTask" display="none"> 		<path id="_FBC8AB5A-FB99-40DA-8861-B38165B36A7Aframe26" oryx:anchors="left top" stroke="#000000" fill="none" stroke-width="1" d="M8,11 L8,21 L24,21 L24,11z M8,11 L16,17 L24,11"/> 	</g> 	 	<g id="_FBC8AB5A-FB99-40DA-8861-B38165B36A7Anone" display="inherit"/>  	<g id="_FBC8AB5A-FB99-40DA-8861-B38165B36A7Asequential" display="none">         <path oryx:anchors="bottom" fill="none" stroke="#000000" stroke-width="2" d="M46,76h10M46,72h10 M46,68h10" id="_FBC8AB5A-FB99-40DA-8861-B38165B36A7A__FBC8AB5A-FB99-40DA-8861-B38165B36A7A_20"/>     </g>   </g></g><g class="children" style="overflow:hidden"/><g class="edge"/></g><g class="controls"><g class="dockers"/><g class="magnets" transform="translate(645, 140)"><g pointer-events="all" display="none" transform="translate(-7, 12)"><circle cx="8" cy="8" r="4" stroke="none" fill="red" fill-opacity="0.3"/></g><g pointer-events="all" display="none" transform="translate(-7, 32)"><circle cx="8" cy="8" r="4" stroke="none" fill="red" fill-opacity="0.3"/></g><g pointer-events="all" display="none" transform="translate(-7, 52)"><circle cx="8" cy="8" r="4" stroke="none" fill="red" fill-opacity="0.3"/></g><g pointer-events="all" display="none" transform="translate(17, 71)"><circle cx="8" cy="8" r="4" stroke="none" fill="red" fill-opacity="0.3"/></g><g pointer-events="all" display="none" transform="translate(42, 71)"><circle cx="8" cy="8" r="4" stroke="none" fill="red" fill-opacity="0.3"/></g><g pointer-events="all" display="none" transform="translate(67, 71)"><circle cx="8" cy="8" r="4" stroke="none" fill="red" fill-opacity="0.3"/></g><g pointer-events="all" display="none" transform="translate(91, 12)"><circle cx="8" cy="8" r="4" stroke="none" fill="red" fill-opacity="0.3"/></g><g pointer-events="all" display="none" transform="translate(91, 32)"><circle cx="8" cy="8" r="4" stroke="none" fill="red" fill-opacity="0.3"/></g><g pointer-events="all" display="none" transform="translate(91, 52)"><circle cx="8" cy="8" r="4" stroke="none" fill="red" fill-opacity="0.3"/></g><g pointer-events="all" display="none" transform="translate(17, -7)"><circle cx="8" cy="8" r="4" stroke="none" fill="red" fill-opacity="0.3"/></g><g pointer-events="all" display="none" transform="translate(42, -7)"><circle cx="8" cy="8" r="4" stroke="none" fill="red" fill-opacity="0.3"/></g><g pointer-events="all" display="none" transform="translate(67, -7)"><circle cx="8" cy="8" r="4" stroke="none" fill="red" fill-opacity="0.3"/></g><g pointer-events="all" display="none" transform="translate(42, 32)"><circle cx="8" cy="8" r="4" stroke="none" fill="red" fill-opacity="0.3"/></g></g></g></g><g id="_0DEA037D-5E9E-4F58-B7F4-FF722EA95585" bpmn2nodeid="_CBFC161B-320F-482F-B6F5-AE005116DC36"><g class="stencils" transform="translate(795, 291)"><g class="me"><g pointer-events="fill" id="_0DEA037D-5E9E-4F58-B7F4-FF722EA95585">      <defs id="_0DEA037D-5E9E-4F58-B7F4-FF722EA95585__0DEA037D-5E9E-4F58-B7F4-FF722EA95585_5"> 		<radialGradient id="_0DEA037D-5E9E-4F58-B7F4-FF722EA95585background" cx="10%" cy="10%" r="100%" fx="10%" fy="10%"> 			<stop offset="0%" stop-color="#ffffff" stop-opacity="1" id="_0DEA037D-5E9E-4F58-B7F4-FF722EA95585__0DEA037D-5E9E-4F58-B7F4-FF722EA95585_6"/> 			<stop id="_0DEA037D-5E9E-4F58-B7F4-FF722EA95585fill_el" offset="100%" stop-color="#ff6347" stop-opacity="1"/> 		</radialGradient> 	</defs> 	     <circle id="_0DEA037D-5E9E-4F58-B7F4-FF722EA95585bg_frame" cx="14" cy="14" r="14" stroke="#000000" fill="url(#_0DEA037D-5E9E-4F58-B7F4-FF722EA95585background) white" stroke-width="3"/> 	<text font-size="11" id="_0DEA037D-5E9E-4F58-B7F4-FF722EA95585text_name" x="14" y="30" oryx:align="top center" stroke="black" stroke-width="0pt" letter-spacing="-0.01px" fill="#000000" text-anchor="middle" transform="rotate(0 14 30)" visibility="inherit" oryx:fontSize="11"/>   </g></g><g class="children" style="overflow:hidden"/><g class="edge"/></g><g class="controls"><g class="dockers"/><g class="magnets" transform="translate(795, 291)"><g pointer-events="all" display="none" transform="translate(6, 6)"><circle cx="8" cy="8" r="4" stroke="none" fill="red" fill-opacity="0.3"/></g></g></g></g><g id="_7751411F-E041-4685-A935-471B74787614" bpmn2nodeid="_BBD2A2C3-A38C-4514-B0C2-500153F452AC"><g class="stencils" transform="translate(675, 285)"><g class="me"><g id="_7751411F-E041-4685-A935-471B74787614">        <defs id="_7751411F-E041-4685-A935-471B74787614__7751411F-E041-4685-A935-471B74787614_4"> 		<radialGradient id="_7751411F-E041-4685-A935-471B74787614background" cx="10%" cy="10%" r="100%" fx="10%" fy="10%"> 			<stop offset="0%" stop-color="#ffffff" stop-opacity="1" id="_7751411F-E041-4685-A935-471B74787614__7751411F-E041-4685-A935-471B74787614_5"/> 			<stop id="_7751411F-E041-4685-A935-471B74787614fill_el" offset="100%" stop-color="#f0e68c" stop-opacity="1"/> 		</radialGradient> 		<radialGradient id="_7751411F-E041-4685-A935-471B74787614borderbackground" cx="10%" cy="10%" r="100%" fx="10%" fy="10%"> 			<stop offset="0%" stop-color="#ffffff" stop-opacity="1" id="_7751411F-E041-4685-A935-471B74787614__7751411F-E041-4685-A935-471B74787614_6"/> 			<stop id="_7751411F-E041-4685-A935-471B74787614fill_border" offset="100%" stop-color="#a67f00" stop-opacity="1" stroke="#a67f00"/> 		</radialGradient> 	</defs> 	     <path d=" M0 20.5  L20.5 0  L40 20.5  L20.5 40  z" id="_7751411F-E041-4685-A935-471B74787614bg_frame" fill="url(#_7751411F-E041-4685-A935-471B74787614background) white" style="stroke-width:1" stroke="#a67f00"/>     <g id="_7751411F-E041-4685-A935-471B74787614frame" stroke="#a67f00">       <path id="_7751411F-E041-4685-A935-471B74787614frame2" d=" M13.25 12.05  L17.25 12.05  L27.65 28.95  L23.75 28.95  z" style="stroke-width:1" stroke="#a67f00" fill="url(#_7751411F-E041-4685-A935-471B74787614borderbackground)"/>       <path id="_7751411F-E041-4685-A935-471B74787614frame3" d=" M13.25 28.95  L23.75 12.05  L27.65 12.05  L17.25 28.95  z" style="stroke-width:1" stroke="#a67f00" fill="url(#_7751411F-E041-4685-A935-471B74787614borderbackground)"/>     </g> 	 	<text id="_7751411F-E041-4685-A935-471B74787614text_name" x="30.5" y="30.5" oryx:align="left top" stroke-width="0pt" letter-spacing="-0.01px" fill="#000000" text-anchor="start" transform="rotate(0 30.5 30.5)" visibility="inherit" oryx:fontSize="12"/> 	   </g></g><g class="children" style="overflow:hidden"/><g class="edge"/></g><g class="controls"><g class="dockers"/><g class="magnets" transform="translate(675, 285)"><g pointer-events="all" display="none" transform="translate(12.5, 12.5)"><circle cx="8" cy="8" r="4" stroke="none" fill="red" fill-opacity="0.3"/></g></g></g></g></g><g class="edge"><g id="_11C332F2-2763-4E7E-B2A4-D2DFE57843D5" bpmn2nodeid="_47E0CD74-EA15-4F67-A1C8-EC151953F4FC"><g class="stencils"><g class="me"><g pointer-events="painted" bpmn2nodeid="_DEC2FD94-5830-466A-8303-16BAA0AB68E0"><path id="_11C332F2-2763-4E7E-B2A4-D2DFE57843D5_1" d="M150.609375 180L254.859375 180 " stroke="#000000" fill="none" stroke-width="2" stroke-linecap="round" stroke-linejoin="round" marker-start="url(#_11C332F2-2763-4E7E-B2A4-D2DFE57843D5start)" marker-end="url(#_11C332F2-2763-4E7E-B2A4-D2DFE57843D5end)"/></g><text id="_11C332F2-2763-4E7E-B2A4-D2DFE57843D5text_name" font-size="12" x="164.609375" y="166" oryx:edgePosition="startTop" stroke-width="0pt" letter-spacing="-0.01px" fill="#000000" text-anchor="start" transform="rotate(360 150.609375 180)" visibility="inherit" oryx:fontSize="12"/></g><g class="children" style="overflow:hidden"/><g class="edge"/></g><g class="controls"><g class="dockers"/><g class="magnets"/></g></g><g id="_648D3DDD-265C-441A-8B26-0B6CF4164C76" bpmn2nodeid="_56478F1A-7511-4159-8766-3D3AC5BC7D02"><g class="stencils"><g class="me"><g pointer-events="painted" bpmn2nodeid="_521B123E-D1FF-4700-AB68-C12649CD012A"><path id="_648D3DDD-265C-441A-8B26-0B6CF4164C76_1" d="M355.62890625 180L449.6640625 180 " stroke="#000000" fill="none" stroke-width="2" stroke-linecap="round" stroke-linejoin="round" marker-start="url(#_648D3DDD-265C-441A-8B26-0B6CF4164C76start)" marker-end="url(#_648D3DDD-265C-441A-8B26-0B6CF4164C76end)"/></g><text id="_648D3DDD-265C-441A-8B26-0B6CF4164C76text_name" font-size="12" x="369.62890625" y="166" oryx:edgePosition="startTop" stroke-width="0pt" letter-spacing="-0.01px" fill="#000000" text-anchor="start" transform="rotate(360 355.62890625 180)" visibility="inherit" oryx:fontSize="12"/></g><g class="children" style="overflow:hidden"/><g class="edge"/></g><g class="controls"><g class="dockers"/><g class="magnets"/></g></g><g id="_04379BD7-19F1-485E-8CE3-2A017DB461D2" bpmn2nodeid="_309FFC99-3DFA-4B43-839A-D393262D45CF"><g class="stencils"><g class="me"><g pointer-events="painted" bpmn2nodeid="_C3B43206-D8E9-4FE9-8A3A-B35641C9E223"><path id="_04379BD7-19F1-485E-8CE3-2A017DB461D2_1" d="M490.3359375 180L644.78125 180 " stroke="#000000" fill="none" stroke-width="2" stroke-linecap="round" stroke-linejoin="round" marker-start="url(#_04379BD7-19F1-485E-8CE3-2A017DB461D2start)" marker-end="url(#_04379BD7-19F1-485E-8CE3-2A017DB461D2end)"/></g><text id="_04379BD7-19F1-485E-8CE3-2A017DB461D2text_name" font-size="12" x="504.3359375" y="166" oryx:edgePosition="startTop" stroke-width="0pt" letter-spacing="-0.01px" fill="#000000" text-anchor="start" transform="rotate(360 490.3359375 180)" visibility="inherit" oryx:fontSize="12"><tspan x="504.3359375" y="166" dy="0" id="ext-gen867">Outward Approved</tspan></text></g><g class="children" style="overflow:hidden"/><g class="edge"/></g><g class="controls"><g class="dockers"/><g class="magnets"/></g></g><g id="_1D312178-A03B-4941-9E37-AE04AB57377B" bpmn2nodeid="_8907285B-91AE-4941-88F6-5AA5827B032D"><g class="stencils"><g class="me"><g pointer-events="painted" bpmn2nodeid="_9E14126C-AD46-4E5D-BBD3-4EE07A5DA5CD"><path id="_1D312178-A03B-4941-9E37-AE04AB57377B_1" d="M714.703125 305L794.640625 305 " stroke="#000000" fill="none" stroke-width="2" stroke-linecap="round" stroke-linejoin="round" marker-start="url(#_1D312178-A03B-4941-9E37-AE04AB57377Bstart)" marker-end="url(#_1D312178-A03B-4941-9E37-AE04AB57377Bend)"/></g><text id="_1D312178-A03B-4941-9E37-AE04AB57377Btext_name" font-size="12" x="728.703125" y="291" oryx:edgePosition="startTop" stroke-width="0pt" letter-spacing="-0.01px" fill="#000000" text-anchor="start" transform="rotate(360 714.703125 305)" visibility="inherit" oryx:fontSize="12"/></g><g class="children" style="overflow:hidden"/><g class="edge"/></g><g class="controls"><g class="dockers"/><g class="magnets"/></g></g><g id="_A7F7C5FB-54AD-48BC-91EE-74E619777755" bpmn2nodeid="_8D2E7FB3-395A-4360-BB01-932B7319C59B"><g class="stencils"><g class="me"><g pointer-events="painted" bpmn2nodeid="_18E159D5-CFA7-4E20-A612-ADA49101CBCE"><path id="_A7F7C5FB-54AD-48BC-91EE-74E619777755_1" d="M695 220.0625L695 285.4453125 " stroke="#000000" fill="none" stroke-width="2" stroke-linecap="round" stroke-linejoin="round" marker-start="url(#_A7F7C5FB-54AD-48BC-91EE-74E619777755start)" marker-end="url(#_A7F7C5FB-54AD-48BC-91EE-74E619777755end)"/></g><text id="_A7F7C5FB-54AD-48BC-91EE-74E619777755text_name" font-size="12" x="681" y="206.0625" oryx:edgePosition="startTop" stroke-width="0pt" letter-spacing="-0.01px" fill="#000000" text-anchor="end" transform="rotate(-90 695 220.0625)" visibility="inherit" oryx:fontSize="12"/></g><g class="children" style="overflow:hidden"/><g class="edge"/></g><g class="controls"><g class="dockers"/><g class="magnets"/></g></g><g id="_03E78231-3E9A-44B7-9235-E1EBE9C68575" bpmn2nodeid="_B37EEC13-1034-4029-A2BB-A7420999EE1C"><g class="stencils"><g class="me"><g pointer-events="painted" bpmn2nodeid="_02109CA7-DF05-4AD3-9B1A-2B888C2FE9EC"><path id="_03E78231-3E9A-44B7-9235-E1EBE9C68575_1" d="M470 199.5546875L470 305 L674.6640625 305 " stroke="#000000" fill="none" stroke-width="2" stroke-linecap="round" stroke-linejoin="round" marker-start="url(#_03E78231-3E9A-44B7-9235-E1EBE9C68575start)" marker-end="url(#_03E78231-3E9A-44B7-9235-E1EBE9C68575end)"/></g><text id="_03E78231-3E9A-44B7-9235-E1EBE9C68575text_name" font-size="12" x="456" y="185.5546875" oryx:edgePosition="startTop" stroke-width="0pt" letter-spacing="-0.01px" fill="#000000" text-anchor="end" transform="rotate(-90 470 199.5546875)" visibility="inherit" oryx:fontSize="12"><tspan x="456" y="185.5546875" dy="0" id="ext-gen849">Outward Rejected</tspan></text></g><g class="children" style="overflow:hidden"/><g class="edge"/></g><g class="controls"><g class="dockers"/><g class="magnets"/></g></g></g><text id="_7E88211A-CA35-4888-A7FB-B70F88D506E4" style="stroke-width:1;fill:rgb(177,194,214);font-family:arial;font-weight:bold" font-size="12" onclick="ORYX.Plugins.CanvasTitle.openTextualAnalysis()" onmouseover="ORYX.Plugins.CanvasTitle.addToolTip('_7E88211A-CA35-4888-A7FB-B70F88D506E4')" transform="translate(10, 20)">asset-service-process v.1.0 (procurement.asset-service-process)</text></g></g></svg>