<svg xmlns="http://www.w3.org/2000/svg" xmlns:oryx="http://oryx-editor.org" id="_797D0B19-A8E3-4C89-BE60-9CBFF9BA1387" width="863" height="366" xmlns:xlink="http://www.w3.org/1999/xlink" xmlns:svg="http://www.w3.org/2000/svg"><defs><marker id="_02C24879-36B3-4FC5-B94E-EC639A435D39start" refX="1" refY="5" markerUnits="userSpaceOnUse" markerWidth="17" markerHeight="11" orient="auto" fill="#000000" stroke="#000000"> 	  		<path id="_02C24879-36B3-4FC5-B94E-EC639A435D39conditional" d="M 0 5 L 8 0 L 16 5 L 8 10 L 0 5" fill="white" stroke="#000000" stroke-width="1" display="none"/> 			<path id="_02C24879-36B3-4FC5-B94E-EC639A435D39default" d="M 5 0 L 11 10" fill="white" stroke="#000000" stroke-width="1" display="none"/> 	  	</marker><marker id="_02C24879-36B3-4FC5-B94E-EC639A435D39end" refX="15" refY="6" markerUnits="userSpaceOnUse" markerWidth="15" markerHeight="12" orient="auto" fill="#000000" stroke="#000000"> 	  		<path id="_02C24879-36B3-4FC5-B94E-EC639A435D39frame2" d="M 0 1 L 15 6 L 0 11z" fill="#000000" stroke="#000000" stroke-linejoin="round" stroke-width="2"/> 	  	</marker><marker id="_5BF69306-1800-4FB6-B601-EC3410627100start" refX="1" refY="5" markerUnits="userSpaceOnUse" markerWidth="17" markerHeight="11" orient="auto" fill="#000000" stroke="#000000"> 	  		<path id="_5BF69306-1800-4FB6-B601-EC3410627100conditional" d="M 0 5 L 8 0 L 16 5 L 8 10 L 0 5" fill="white" stroke="#000000" stroke-width="1" display="none"/> 			<path id="_5BF69306-1800-4FB6-B601-EC3410627100default" d="M 5 0 L 11 10" fill="white" stroke="#000000" stroke-width="1" display="none"/> 	  	</marker><marker id="_5BF69306-1800-4FB6-B601-EC3410627100end" refX="15" refY="6" markerUnits="userSpaceOnUse" markerWidth="15" markerHeight="12" orient="auto" fill="#000000" stroke="#000000"> 	  		<path id="_5BF69306-1800-4FB6-B601-EC3410627100frame2" d="M 0 1 L 15 6 L 0 11z" fill="#000000" stroke="#000000" stroke-linejoin="round" stroke-width="2"/> 	  	</marker><marker id="_488E0F43-056C-4BC4-9754-D964A1CEBB97start" refX="1" refY="5" markerUnits="userSpaceOnUse" markerWidth="17" markerHeight="11" orient="auto" fill="#000000" stroke="#000000"> 	  		<path id="_488E0F43-056C-4BC4-9754-D964A1CEBB97conditional" d="M 0 5 L 8 0 L 16 5 L 8 10 L 0 5" fill="white" stroke="#000000" stroke-width="1" display="none"/> 			<path id="_488E0F43-056C-4BC4-9754-D964A1CEBB97default" d="M 5 0 L 11 10" fill="white" stroke="#000000" stroke-width="1" display="none"/> 	  	</marker><marker id="_488E0F43-056C-4BC4-9754-D964A1CEBB97end" refX="15" refY="6" markerUnits="userSpaceOnUse" markerWidth="15" markerHeight="12" orient="auto" fill="#000000" stroke="#000000"> 	  		<path id="_488E0F43-056C-4BC4-9754-D964A1CEBB97frame2" d="M 0 1 L 15 6 L 0 11z" fill="#000000" stroke="#000000" stroke-linejoin="round" stroke-width="2"/> 	  	</marker><marker id="_24DC8D79-B8BB-4E3D-8C47-29D5210E1311start" refX="1" refY="5" markerUnits="userSpaceOnUse" markerWidth="17" markerHeight="11" orient="auto" fill="#000000" stroke="#000000"> 	  		<path id="_24DC8D79-B8BB-4E3D-8C47-29D5210E1311conditional" d="M 0 5 L 8 0 L 16 5 L 8 10 L 0 5" fill="white" stroke="#000000" stroke-width="1" display="none"/> 			<path id="_24DC8D79-B8BB-4E3D-8C47-29D5210E1311default" d="M 5 0 L 11 10" fill="white" stroke="#000000" stroke-width="1" display="none"/> 	  	</marker><marker id="_24DC8D79-B8BB-4E3D-8C47-29D5210E1311end" refX="15" refY="6" markerUnits="userSpaceOnUse" markerWidth="15" markerHeight="12" orient="auto" fill="#000000" stroke="#000000"> 	  		<path id="_24DC8D79-B8BB-4E3D-8C47-29D5210E1311frame2" d="M 0 1 L 15 6 L 0 11z" fill="#000000" stroke="#000000" stroke-linejoin="round" stroke-width="2"/> 	  	</marker><marker id="_C47EBEF0-B052-4A5F-8BDB-39D742125AC0start" refX="1" refY="5" markerUnits="userSpaceOnUse" markerWidth="17" markerHeight="11" orient="auto" fill="#000000" stroke="#000000"> 	  		<path id="_C47EBEF0-B052-4A5F-8BDB-39D742125AC0conditional" d="M 0 5 L 8 0 L 16 5 L 8 10 L 0 5" fill="white" stroke="#000000" stroke-width="1" display="none"/> 			<path id="_C47EBEF0-B052-4A5F-8BDB-39D742125AC0default" d="M 5 0 L 11 10" fill="white" stroke="#000000" stroke-width="1" display="none"/> 	  	</marker><marker id="_C47EBEF0-B052-4A5F-8BDB-39D742125AC0end" refX="15" refY="6" markerUnits="userSpaceOnUse" markerWidth="15" markerHeight="12" orient="auto" fill="#000000" stroke="#000000"> 	  		<path id="_C47EBEF0-B052-4A5F-8BDB-39D742125AC0frame2" d="M 0 1 L 15 6 L 0 11z" fill="#000000" stroke="#000000" stroke-linejoin="round" stroke-width="2"/> 	  	</marker><marker id="_C2A057F6-0A28-442D-96EA-769C7BD4BD1Cstart" refX="1" refY="5" markerUnits="userSpaceOnUse" markerWidth="17" markerHeight="11" orient="auto" fill="#000000" stroke="#000000"> 	  		<path id="_C2A057F6-0A28-442D-96EA-769C7BD4BD1Cconditional" d="M 0 5 L 8 0 L 16 5 L 8 10 L 0 5" fill="white" stroke="#000000" stroke-width="1" display="none"/> 			<path id="_C2A057F6-0A28-442D-96EA-769C7BD4BD1Cdefault" d="M 5 0 L 11 10" fill="white" stroke="#000000" stroke-width="1" display="none"/> 	  	</marker><marker id="_C2A057F6-0A28-442D-96EA-769C7BD4BD1Cend" refX="15" refY="6" markerUnits="userSpaceOnUse" markerWidth="15" markerHeight="12" orient="auto" fill="#000000" stroke="#000000"> 	  		<path id="_C2A057F6-0A28-442D-96EA-769C7BD4BD1Cframe2" d="M 0 1 L 15 6 L 0 11z" fill="#000000" stroke="#000000" stroke-linejoin="round" stroke-width="2"/> 	  	</marker></defs><g stroke="none" font-family="Verdana, sans-serif" font-size-adjust="none" font-style="normal" font-variant="normal" font-weight="normal" line-heigth="normal" font-size="12"><g class="stencils" transform="translate(15, 16)"><g class="me"/><g class="children"><g id="_F6D9D305-4CC0-42ED-ACA8-2FA1BABE2317" bpmn2nodeid="processStartEvent"><g class="stencils" transform="translate(120, 165)"><g class="me"><g pointer-events="fill" id="_F6D9D305-4CC0-42ED-ACA8-2FA1BABE2317">        <defs id="_F6D9D305-4CC0-42ED-ACA8-2FA1BABE2317__F6D9D305-4CC0-42ED-ACA8-2FA1BABE2317_5"> 		<radialGradient id="_F6D9D305-4CC0-42ED-ACA8-2FA1BABE2317background" cx="10%" cy="10%" r="100%" fx="10%" fy="10%"> 			<stop offset="0%" stop-color="#ffffff" stop-opacity="1" id="_F6D9D305-4CC0-42ED-ACA8-2FA1BABE2317__F6D9D305-4CC0-42ED-ACA8-2FA1BABE2317_6"/> 			<stop id="_F6D9D305-4CC0-42ED-ACA8-2FA1BABE2317fill_el" offset="100%" stop-color="#9acd32" stop-opacity="1"/> 		</radialGradient> 	</defs> 	     <circle id="_F6D9D305-4CC0-42ED-ACA8-2FA1BABE2317bg_frame" cx="15" cy="15" r="15" stroke="#000000" fill="url(#_F6D9D305-4CC0-42ED-ACA8-2FA1BABE2317background) white" stroke-width="1" style="stroke-dasharray: 5.5, 3"/>      <circle id="_F6D9D305-4CC0-42ED-ACA8-2FA1BABE2317frame" cx="15" cy="15" r="15" stroke="#000000" fill="none" stroke-width="1" display="inherit"/>  	<text font-size="11" id="_F6D9D305-4CC0-42ED-ACA8-2FA1BABE2317text_name" x="15" y="32" oryx:align="top center" stroke="black" stroke-width="0pt" letter-spacing="-0.01px" fill="#000000" text-anchor="middle" transform="rotate(0 15 32)" visibility="inherit" oryx:fontSize="11"/>   </g></g><g class="children" style="overflow:hidden"/><g class="edge"/></g><g class="controls"><g class="dockers"/><g class="magnets" transform="translate(120, 165)"><g pointer-events="all" display="none" transform="translate(7, 7)"><circle cx="8" cy="8" r="4" stroke="none" fill="red" fill-opacity="0.3"/></g></g></g></g><g id="_FBCD7D46-1DDE-4F31-B3E1-6886A0487382" bpmn2nodeid="_2DF7FDA4-BCCB-4BF8-85E5-2724DFD0EC76"><g class="stencils" transform="translate(255, 140)"><g class="me"><g pointer-events="fill" oryx:minimumSize="50 40" id="_FBCD7D46-1DDE-4F31-B3E1-6886A0487382">   	<defs id="_FBCD7D46-1DDE-4F31-B3E1-6886A0487382__FBCD7D46-1DDE-4F31-B3E1-6886A0487382_17"> 		<radialGradient id="_FBCD7D46-1DDE-4F31-B3E1-6886A0487382background" cx="10%" cy="10%" r="100%" fx="10%" fy="10%"> 			<stop offset="0%" stop-color="#ffffff" stop-opacity="1" id="_FBCD7D46-1DDE-4F31-B3E1-6886A0487382__FBCD7D46-1DDE-4F31-B3E1-6886A0487382_18"/> 			<stop id="_FBCD7D46-1DDE-4F31-B3E1-6886A0487382fill_el" offset="100%" stop-color="#fafad2" stop-opacity="1"/> 		</radialGradient> 		<radialGradient id="_FBCD7D46-1DDE-4F31-B3E1-6886A0487382borderbackground" cx="10%" cy="10%" r="100%" fx="10%" fy="10%"> 			<stop offset="0%" stop-color="#ffffff" stop-opacity="1" id="_FBCD7D46-1DDE-4F31-B3E1-6886A0487382__FBCD7D46-1DDE-4F31-B3E1-6886A0487382_19"/> 			<stop id="_FBCD7D46-1DDE-4F31-B3E1-6886A0487382fill_border" offset="100%" stop-color="#000000" stop-opacity="1" stroke="#000000"/> 		</radialGradient> 	</defs> 	 	<rect id="_FBCD7D46-1DDE-4F31-B3E1-6886A0487382text_frame" oryx:anchors="bottom top right left" x="1" y="1" width="94" height="79" rx="10" ry="10" stroke="none" stroke-width="0" fill="none"/> 	<rect id="_FBCD7D46-1DDE-4F31-B3E1-6886A0487382bg_frame" oryx:resize="vertical horizontal" x="0" y="0" width="100" height="80" rx="10" ry="10" stroke="#000000" stroke-width="1" fill="url(#_FBCD7D46-1DDE-4F31-B3E1-6886A0487382background) #ffffcc"/> 		<text font-size="12" id="_FBCD7D46-1DDE-4F31-B3E1-6886A0487382text_name" x="50" y="40" oryx:align="middle center" oryx:fittoelem="text_frame" stroke="black" text-anchor="middle" stroke-width="0pt" letter-spacing="-0.01px" fill="#000000" transform="rotate(0 50 40)" visibility="inherit" oryx:fontSize="12"><tspan x="50" y="40" dy="-13" id="ext-gen2540">Asset </tspan><tspan x="50" y="40" dy="-1" id="ext-gen2516">Service/Repair </tspan><tspan x="50" y="40" dy="11" id="ext-gen2515">Outward </tspan><tspan x="50" y="40" dy="23" id="ext-gen2564">Approval</tspan></text>     <g id="_FBCD7D46-1DDE-4F31-B3E1-6886A0487382manualTask" transform="scale(0.7,0.7) translate(8,8)" display="none">     	<path oryx:anchors="top left" id="_FBCD7D46-1DDE-4F31-B3E1-6886A0487382frame" style="opacity:1;fill:none;fill-opacity:1;stroke-width:1" d="M0.5,3.751l4.083-3.25c0,0,11.166,0.083,12.083,0.083s-2.417,2.917-1.5,2.917     s11.667,0,12.584,0c1.166,1.708-0.168,3.167-0.834,3.667s0.875,1.917-1,4.417c-0.75,0.25,0.75,1.875-1.333,3.333     c-1.167,0.583,0.583,1.542-1.25,2.833c-1.167,0-20.833,0.083-20.833,0.083l-2-1.333V3.751z" stroke="#000000"/> 		<path id="_FBCD7D46-1DDE-4F31-B3E1-6886A0487382frame2" oryx:anchors="top left" style="opacity:1;fill:none;stroke-width:2" d="M 13.5 7 L 27 7" stroke="#000000"/> 		<path id="_FBCD7D46-1DDE-4F31-B3E1-6886A0487382frame3" oryx:anchors="top left" style="opacity:1;fill:none;stroke-width:2" d="M 13.5 11 L 26 11" stroke="#000000"/> 		<path id="_FBCD7D46-1DDE-4F31-B3E1-6886A0487382frame4" oryx:anchors="top left" style="opacity:1;fill:none;stroke-width:1.5" d="M 14 14.5 L 25 14.5" stroke="#000000"/> 		<path id="_FBCD7D46-1DDE-4F31-B3E1-6886A0487382frame5" oryx:anchors="top left" style="opacity:1;fill:none;stroke-width:1.5" d="M 8.2 3.1 L 15 3.1" stroke="#000000"/> 	</g> 	 	<g id="_FBCD7D46-1DDE-4F31-B3E1-6886A0487382businessRuleTask" transform="scale(0.7,0.7) translate(8,8)" display="none"> 		<rect id="_FBCD7D46-1DDE-4F31-B3E1-6886A0487382frame6" oryx:anchors="top left" x="0" y="0" width="22" height="4" style="opacity:1;fill:#B3B1B3;fill-opacity:1;" stroke="#000000"/> 		<rect id="_FBCD7D46-1DDE-4F31-B3E1-6886A0487382frame7" oryx:anchors="top left" x="0" y="4" style="opacity:1;fill:none;" width="22" height="12" stroke="#000000"/> 		<path id="_FBCD7D46-1DDE-4F31-B3E1-6886A0487382frame8" oryx:anchors="top left" style="opacity:1;fill:none;" d="M 0 10 L 22 10" stroke="#000000"/> 		<path id="_FBCD7D46-1DDE-4F31-B3E1-6886A0487382frame9" oryx:anchors="top left" style="opacity:1; fill:none;" d="M 7 4 L 7 16" stroke="#000000"/> 	</g> 	 	<g id="_FBCD7D46-1DDE-4F31-B3E1-6886A0487382scriptTask" transform="scale(0.7,0.7) translate(8,8)" display="none"> 		<path oryx:anchors="top left" id="_FBCD7D46-1DDE-4F31-B3E1-6886A0487382frame10" style="opacity:1;fill:none;" stroke="#000000" d="M6.402,0.5h14.5c0,0-5.833,2.833-5.833,5.583s4.417,6,4.417,9.167    s-4.167,5.083-4.167,5.083H0.235c0,0,5-2.667,5-5s-4.583-6.75-4.583-9.25S6.402,0.5,6.402,0.5z"/> 		<path oryx:anchors="top left" id="_FBCD7D46-1DDE-4F31-B3E1-6886A0487382frame11" style="opacity:1;fill:none;stroke-width:1.5" d="M 3.5 4.5 L 13.5 4.5" stroke="#000000"/> 		<path oryx:anchors="top left" id="_FBCD7D46-1DDE-4F31-B3E1-6886A0487382frame12" style="opacity:1;fill:none;stroke-width:1.5" d="M 3.8 8.5 L 13.8 8.5" stroke="#000000"/> 		<path oryx:anchors="top left" id="_FBCD7D46-1DDE-4F31-B3E1-6886A0487382frame13" style="opacity:1;fill:none;stroke-width:1.5" d="M 6.3 12.5 L 16.3 12.5" stroke="#000000"/> 		<path oryx:anchors="top left" id="_FBCD7D46-1DDE-4F31-B3E1-6886A0487382frame14" style="opacity:1;fill:none;stroke-width:1.5" d="M 6.5 16.5 L 16.5 16.5" stroke="#000000"/> 	</g> 	 	<g id="_FBCD7D46-1DDE-4F31-B3E1-6886A0487382userTask" transform="scale(0.7,0.7) translate(8,8)" display="inherit"> 		<path id="_FBCD7D46-1DDE-4F31-B3E1-6886A0487382frame15" oryx:anchors="top left" style="opacity:1;fill:#F4F6F7" stroke="#000000" d="M0.585,24.167h24.083v-7.833c0,0-2.333-3.917-7.083-5.167h-9.25    c-4.417,1.333-7.833,5.75-7.833,5.75L0.585,24.167z"/> 		<path id="_FBCD7D46-1DDE-4F31-B3E1-6886A0487382frame16" oryx:anchors="top left" style="opacity:1;fill:none" d="M 6 20 L 6 24" stroke="#000000"/> 		<path id="_FBCD7D46-1DDE-4F31-B3E1-6886A0487382frame17" oryx:anchors="top left" style="opacity:1;fill:none" d="M 20 20 L 20 24" stroke="#000000"/> 		<circle id="_FBCD7D46-1DDE-4F31-B3E1-6886A0487382frame18" oryx:anchors="top left" fill="black" cx="13.002" cy="5.916" r="5.417" stroke="#000000"/> 		<path id="_FBCD7D46-1DDE-4F31-B3E1-6886A0487382frame19" oryx:anchors="top left" style="opacity:1;fill:#F0EFF0;" stroke="#000000" d="M8.043,7.083c0,0,2.814-2.426,5.376-1.807s4.624-0.693,4.624-0.693    c0.25,1.688,0.042,3.75-1.458,5.584c0,0,1.083,0.75,1.083,1.5s0.125,1.875-1,3s-5.5,1.25-6.75,0S8.668,12.834,8.668,12    s0.583-1.25,1.25-1.917C8.835,9.5,7.419,7.708,8.043,7.083z"/> 	</g> 	 	<g id="_FBCD7D46-1DDE-4F31-B3E1-6886A0487382serviceTask" transform="scale(0.7,0.7) translate(8,8)" display="none"> 		<polygon oryx:anchors="top left" id="_FBCD7D46-1DDE-4F31-B3E1-6886A0487382frame20" style="opacity:1;fill:#ffffff" stroke="#000000" points="15.392,5.064 17.954,2.502 20.347,4.895 17.786,7.455     18.729,9.732 22.353,9.732 22.353,13.115 18.731,13.115 17.788,15.392 20.351,17.955 17.958,20.347 15.397,17.786 13.12,18.729     13.12,22.353 9.737,22.353 9.737,18.731 7.46,17.788 4.897,20.35 2.506,17.958 5.066,15.397 4.124,13.12 0.5,13.12 0.5,9.737     4.121,9.737 5.065,7.461 2.503,4.898 4.895,2.506 7.455,5.066 9.732,4.125 9.732,0.5 13.116,0.5 13.116,4.121 "/> 		<circle oryx:anchors="top left" id="_FBCD7D46-1DDE-4F31-B3E1-6886A0487382frame21" style="opacity:1;fill:none" stroke="#000000" cx="11.427" cy="11.426" r="3.714"/> 		<polygon oryx:anchors="top left" id="_FBCD7D46-1DDE-4F31-B3E1-6886A0487382frame22" style="opacity:1;fill:#ffffff" stroke="#000000" points="21.392,11.064 23.954,8.502 26.347,10.895 23.786,13.455     24.729,15.732 28.353,15.732 28.353,19.115 24.731,19.115 23.788,21.392 26.351,23.955 23.958,26.347 21.397,23.786 19.12,24.729     19.12,28.353 15.737,28.353 15.737,24.731 13.46,23.788 10.897,26.35 8.506,23.958 11.066,21.397 10.124,19.12 6.5,19.12     6.5,15.737 10.121,15.737 11.065,13.461 8.503,10.898 10.895,8.506 13.455,11.066 15.732,10.125 15.732,6.5 19.116,6.5     19.116,10.121 "/> 		<circle oryx:anchors="top left" id="_FBCD7D46-1DDE-4F31-B3E1-6886A0487382frame23" style="opacity:1;fill:none;" stroke="#000000" cx="17.427" cy="17.426" r="3.714"/> 	</g> 	 	<g id="_FBCD7D46-1DDE-4F31-B3E1-6886A0487382sendTask" display="none"> 		<path id="_FBCD7D46-1DDE-4F31-B3E1-6886A0487382stframe24" oryx:anchors="left top" stroke="#FFFFFF" fill="black" stroke-width="1" d="M8,11 L8,21 L24,21 L24,11 L16,17z"/> 		<path id="_FBCD7D46-1DDE-4F31-B3E1-6886A0487382stframe25" oryx:anchors="left top" stroke="#FFFFFF" fill="black" stroke-width="1" d="M7,10 L16,17 L25 10z"/> 	</g> 	 	<g id="_FBCD7D46-1DDE-4F31-B3E1-6886A0487382receiveTask" display="none"> 		<path id="_FBCD7D46-1DDE-4F31-B3E1-6886A0487382frame26" oryx:anchors="left top" stroke="#000000" fill="none" stroke-width="1" d="M8,11 L8,21 L24,21 L24,11z M8,11 L16,17 L24,11"/> 	</g> 	 	<g id="_FBCD7D46-1DDE-4F31-B3E1-6886A0487382none" display="none"/>  	<g id="_FBCD7D46-1DDE-4F31-B3E1-6886A0487382sequential" display="none">         <path oryx:anchors="bottom" fill="none" stroke="#000000" stroke-width="2" d="M46,76h10M46,72h10 M46,68h10" id="_FBCD7D46-1DDE-4F31-B3E1-6886A0487382__FBCD7D46-1DDE-4F31-B3E1-6886A0487382_20"/>     </g>   </g></g><g class="children" style="overflow:hidden"/><g class="edge"/></g><g class="controls"><g class="dockers"/><g class="magnets" transform="translate(255, 140)"><g pointer-events="all" display="none" transform="translate(-7, 12)"><circle cx="8" cy="8" r="4" stroke="none" fill="red" fill-opacity="0.3"/></g><g pointer-events="all" display="none" transform="translate(-7, 32)"><circle cx="8" cy="8" r="4" stroke="none" fill="red" fill-opacity="0.3"/></g><g pointer-events="all" display="none" transform="translate(-7, 52)"><circle cx="8" cy="8" r="4" stroke="none" fill="red" fill-opacity="0.3"/></g><g pointer-events="all" display="none" transform="translate(17, 71)"><circle cx="8" cy="8" r="4" stroke="none" fill="red" fill-opacity="0.3"/></g><g pointer-events="all" display="none" transform="translate(42, 71)"><circle cx="8" cy="8" r="4" stroke="none" fill="red" fill-opacity="0.3"/></g><g pointer-events="all" display="none" transform="translate(67, 71)"><circle cx="8" cy="8" r="4" stroke="none" fill="red" fill-opacity="0.3"/></g><g pointer-events="all" display="none" transform="translate(91, 12)"><circle cx="8" cy="8" r="4" stroke="none" fill="red" fill-opacity="0.3"/></g><g pointer-events="all" display="none" transform="translate(91, 32)"><circle cx="8" cy="8" r="4" stroke="none" fill="red" fill-opacity="0.3"/></g><g pointer-events="all" display="none" transform="translate(91, 52)"><circle cx="8" cy="8" r="4" stroke="none" fill="red" fill-opacity="0.3"/></g><g pointer-events="all" display="none" transform="translate(17, -7)"><circle cx="8" cy="8" r="4" stroke="none" fill="red" fill-opacity="0.3"/></g><g pointer-events="all" display="none" transform="translate(42, -7)"><circle cx="8" cy="8" r="4" stroke="none" fill="red" fill-opacity="0.3"/></g><g pointer-events="all" display="none" transform="translate(67, -7)"><circle cx="8" cy="8" r="4" stroke="none" fill="red" fill-opacity="0.3"/></g><g pointer-events="all" display="none" transform="translate(42, 32)"><circle cx="8" cy="8" r="4" stroke="none" fill="red" fill-opacity="0.3"/></g></g></g></g><g id="_176E84E5-3FA6-42D6-8CEC-1B8C3F32FEEB" bpmn2nodeid="_4572FDCB-24B7-436D-A70A-507BEEBA852E"><g class="stencils" transform="translate(450, 160)"><g class="me"><g id="_176E84E5-3FA6-42D6-8CEC-1B8C3F32FEEB">        <defs id="_176E84E5-3FA6-42D6-8CEC-1B8C3F32FEEB__176E84E5-3FA6-42D6-8CEC-1B8C3F32FEEB_4"> 		<radialGradient id="_176E84E5-3FA6-42D6-8CEC-1B8C3F32FEEBbackground" cx="10%" cy="10%" r="100%" fx="10%" fy="10%"> 			<stop offset="0%" stop-color="#ffffff" stop-opacity="1" id="_176E84E5-3FA6-42D6-8CEC-1B8C3F32FEEB__176E84E5-3FA6-42D6-8CEC-1B8C3F32FEEB_5"/> 			<stop id="_176E84E5-3FA6-42D6-8CEC-1B8C3F32FEEBfill_el" offset="100%" stop-color="#f0e68c" stop-opacity="1"/> 		</radialGradient> 		<radialGradient id="_176E84E5-3FA6-42D6-8CEC-1B8C3F32FEEBborderbackground" cx="10%" cy="10%" r="100%" fx="10%" fy="10%"> 			<stop offset="0%" stop-color="#ffffff" stop-opacity="1" id="_176E84E5-3FA6-42D6-8CEC-1B8C3F32FEEB__176E84E5-3FA6-42D6-8CEC-1B8C3F32FEEB_6"/> 			<stop id="_176E84E5-3FA6-42D6-8CEC-1B8C3F32FEEBfill_border" offset="100%" stop-color="#a67f00" stop-opacity="1" stroke="#a67f00"/> 		</radialGradient> 	</defs> 	     <path d=" M0 20.5  L20.5 0  L40 20.5  L20.5 40  z" id="_176E84E5-3FA6-42D6-8CEC-1B8C3F32FEEBbg_frame" fill="url(#_176E84E5-3FA6-42D6-8CEC-1B8C3F32FEEBbackground) white" style="stroke-width:1" stroke="#a67f00"/>     <g id="_176E84E5-3FA6-42D6-8CEC-1B8C3F32FEEBframe" stroke="#a67f00">       <path id="_176E84E5-3FA6-42D6-8CEC-1B8C3F32FEEBframe2" d=" M13.25 12.05  L17.25 12.05  L27.65 28.95  L23.75 28.95  z" style="stroke-width:1" stroke="#a67f00" fill="url(#_176E84E5-3FA6-42D6-8CEC-1B8C3F32FEEBborderbackground)"/>       <path id="_176E84E5-3FA6-42D6-8CEC-1B8C3F32FEEBframe3" d=" M13.25 28.95  L23.75 12.05  L27.65 12.05  L17.25 28.95  z" style="stroke-width:1" stroke="#a67f00" fill="url(#_176E84E5-3FA6-42D6-8CEC-1B8C3F32FEEBborderbackground)"/>     </g> 	 	<text id="_176E84E5-3FA6-42D6-8CEC-1B8C3F32FEEBtext_name" x="30.5" y="30.5" oryx:align="left top" stroke-width="0pt" letter-spacing="-0.01px" fill="#000000" text-anchor="start" transform="rotate(0 30.5 30.5)" visibility="inherit" oryx:fontSize="12"/> 	   </g></g><g class="children" style="overflow:hidden"/><g class="edge"/></g><g class="controls"><g class="dockers"/><g class="magnets" transform="translate(450, 160)"><g pointer-events="all" display="none" transform="translate(12.5, 12.5)"><circle cx="8" cy="8" r="4" stroke="none" fill="red" fill-opacity="0.3"/></g></g></g></g><g id="_85773DA2-0649-4008-965D-080E16DCEFC3" bpmn2nodeid="_CFB99525-4258-4246-B862-9651086D994B"><g class="stencils" transform="translate(645, 140)"><g class="me"><g pointer-events="fill" oryx:minimumSize="50 40" id="_85773DA2-0649-4008-965D-080E16DCEFC3">   	<defs id="_85773DA2-0649-4008-965D-080E16DCEFC3__85773DA2-0649-4008-965D-080E16DCEFC3_17"> 		<radialGradient id="_85773DA2-0649-4008-965D-080E16DCEFC3background" cx="10%" cy="10%" r="100%" fx="10%" fy="10%"> 			<stop offset="0%" stop-color="#ffffff" stop-opacity="1" id="_85773DA2-0649-4008-965D-080E16DCEFC3__85773DA2-0649-4008-965D-080E16DCEFC3_18"/> 			<stop id="_85773DA2-0649-4008-965D-080E16DCEFC3fill_el" offset="100%" stop-color="#fafad2" stop-opacity="1"/> 		</radialGradient> 		<radialGradient id="_85773DA2-0649-4008-965D-080E16DCEFC3borderbackground" cx="10%" cy="10%" r="100%" fx="10%" fy="10%"> 			<stop offset="0%" stop-color="#ffffff" stop-opacity="1" id="_85773DA2-0649-4008-965D-080E16DCEFC3__85773DA2-0649-4008-965D-080E16DCEFC3_19"/> 			<stop id="_85773DA2-0649-4008-965D-080E16DCEFC3fill_border" offset="100%" stop-color="#000000" stop-opacity="1" stroke="#000000"/> 		</radialGradient> 	</defs> 	 	<rect id="_85773DA2-0649-4008-965D-080E16DCEFC3text_frame" oryx:anchors="bottom top right left" x="1" y="1" width="94" height="79" rx="10" ry="10" stroke="none" stroke-width="0" fill="none"/> 	<rect id="_85773DA2-0649-4008-965D-080E16DCEFC3bg_frame" oryx:resize="vertical horizontal" x="0" y="0" width="100" height="80" rx="10" ry="10" stroke="#000000" stroke-width="1" fill="url(#_85773DA2-0649-4008-965D-080E16DCEFC3background) #ffffcc"/> 		<text font-size="12" id="_85773DA2-0649-4008-965D-080E16DCEFC3text_name" x="50" y="40" oryx:align="middle center" oryx:fittoelem="text_frame" stroke="black" text-anchor="middle" stroke-width="0pt" letter-spacing="-0.01px" fill="#000000" transform="rotate(0 50 40)" visibility="inherit" oryx:fontSize="12"><tspan x="50" y="40" dy="-1" id="ext-gen2565">Asset Service </tspan><tspan x="50" y="40" dy="11" id="ext-gen2571">Inward</tspan></text>     <g id="_85773DA2-0649-4008-965D-080E16DCEFC3manualTask" transform="scale(0.7,0.7) translate(8,8)" display="none">     	<path oryx:anchors="top left" id="_85773DA2-0649-4008-965D-080E16DCEFC3frame" style="opacity:1;fill:none;fill-opacity:1;stroke-width:1" d="M0.5,3.751l4.083-3.25c0,0,11.166,0.083,12.083,0.083s-2.417,2.917-1.5,2.917     s11.667,0,12.584,0c1.166,1.708-0.168,3.167-0.834,3.667s0.875,1.917-1,4.417c-0.75,0.25,0.75,1.875-1.333,3.333     c-1.167,0.583,0.583,1.542-1.25,2.833c-1.167,0-20.833,0.083-20.833,0.083l-2-1.333V3.751z" stroke="#000000"/> 		<path id="_85773DA2-0649-4008-965D-080E16DCEFC3frame2" oryx:anchors="top left" style="opacity:1;fill:none;stroke-width:2" d="M 13.5 7 L 27 7" stroke="#000000"/> 		<path id="_85773DA2-0649-4008-965D-080E16DCEFC3frame3" oryx:anchors="top left" style="opacity:1;fill:none;stroke-width:2" d="M 13.5 11 L 26 11" stroke="#000000"/> 		<path id="_85773DA2-0649-4008-965D-080E16DCEFC3frame4" oryx:anchors="top left" style="opacity:1;fill:none;stroke-width:1.5" d="M 14 14.5 L 25 14.5" stroke="#000000"/> 		<path id="_85773DA2-0649-4008-965D-080E16DCEFC3frame5" oryx:anchors="top left" style="opacity:1;fill:none;stroke-width:1.5" d="M 8.2 3.1 L 15 3.1" stroke="#000000"/> 	</g> 	 	<g id="_85773DA2-0649-4008-965D-080E16DCEFC3businessRuleTask" transform="scale(0.7,0.7) translate(8,8)" display="none"> 		<rect id="_85773DA2-0649-4008-965D-080E16DCEFC3frame6" oryx:anchors="top left" x="0" y="0" width="22" height="4" style="opacity:1;fill:#B3B1B3;fill-opacity:1;" stroke="#000000"/> 		<rect id="_85773DA2-0649-4008-965D-080E16DCEFC3frame7" oryx:anchors="top left" x="0" y="4" style="opacity:1;fill:none;" width="22" height="12" stroke="#000000"/> 		<path id="_85773DA2-0649-4008-965D-080E16DCEFC3frame8" oryx:anchors="top left" style="opacity:1;fill:none;" d="M 0 10 L 22 10" stroke="#000000"/> 		<path id="_85773DA2-0649-4008-965D-080E16DCEFC3frame9" oryx:anchors="top left" style="opacity:1; fill:none;" d="M 7 4 L 7 16" stroke="#000000"/> 	</g> 	 	<g id="_85773DA2-0649-4008-965D-080E16DCEFC3scriptTask" transform="scale(0.7,0.7) translate(8,8)" display="none"> 		<path oryx:anchors="top left" id="_85773DA2-0649-4008-965D-080E16DCEFC3frame10" style="opacity:1;fill:none;" stroke="#000000" d="M6.402,0.5h14.5c0,0-5.833,2.833-5.833,5.583s4.417,6,4.417,9.167    s-4.167,5.083-4.167,5.083H0.235c0,0,5-2.667,5-5s-4.583-6.75-4.583-9.25S6.402,0.5,6.402,0.5z"/> 		<path oryx:anchors="top left" id="_85773DA2-0649-4008-965D-080E16DCEFC3frame11" style="opacity:1;fill:none;stroke-width:1.5" d="M 3.5 4.5 L 13.5 4.5" stroke="#000000"/> 		<path oryx:anchors="top left" id="_85773DA2-0649-4008-965D-080E16DCEFC3frame12" style="opacity:1;fill:none;stroke-width:1.5" d="M 3.8 8.5 L 13.8 8.5" stroke="#000000"/> 		<path oryx:anchors="top left" id="_85773DA2-0649-4008-965D-080E16DCEFC3frame13" style="opacity:1;fill:none;stroke-width:1.5" d="M 6.3 12.5 L 16.3 12.5" stroke="#000000"/> 		<path oryx:anchors="top left" id="_85773DA2-0649-4008-965D-080E16DCEFC3frame14" style="opacity:1;fill:none;stroke-width:1.5" d="M 6.5 16.5 L 16.5 16.5" stroke="#000000"/> 	</g> 	 	<g id="_85773DA2-0649-4008-965D-080E16DCEFC3userTask" transform="scale(0.7,0.7) translate(8,8)" display="inherit"> 		<path id="_85773DA2-0649-4008-965D-080E16DCEFC3frame15" oryx:anchors="top left" style="opacity:1;fill:#F4F6F7" stroke="#000000" d="M0.585,24.167h24.083v-7.833c0,0-2.333-3.917-7.083-5.167h-9.25    c-4.417,1.333-7.833,5.75-7.833,5.75L0.585,24.167z"/> 		<path id="_85773DA2-0649-4008-965D-080E16DCEFC3frame16" oryx:anchors="top left" style="opacity:1;fill:none" d="M 6 20 L 6 24" stroke="#000000"/> 		<path id="_85773DA2-0649-4008-965D-080E16DCEFC3frame17" oryx:anchors="top left" style="opacity:1;fill:none" d="M 20 20 L 20 24" stroke="#000000"/> 		<circle id="_85773DA2-0649-4008-965D-080E16DCEFC3frame18" oryx:anchors="top left" fill="black" cx="13.002" cy="5.916" r="5.417" stroke="#000000"/> 		<path id="_85773DA2-0649-4008-965D-080E16DCEFC3frame19" oryx:anchors="top left" style="opacity:1;fill:#F0EFF0;" stroke="#000000" d="M8.043,7.083c0,0,2.814-2.426,5.376-1.807s4.624-0.693,4.624-0.693    c0.25,1.688,0.042,3.75-1.458,5.584c0,0,1.083,0.75,1.083,1.5s0.125,1.875-1,3s-5.5,1.25-6.75,0S8.668,12.834,8.668,12    s0.583-1.25,1.25-1.917C8.835,9.5,7.419,7.708,8.043,7.083z"/> 	</g> 	 	<g id="_85773DA2-0649-4008-965D-080E16DCEFC3serviceTask" transform="scale(0.7,0.7) translate(8,8)" display="none"> 		<polygon oryx:anchors="top left" id="_85773DA2-0649-4008-965D-080E16DCEFC3frame20" style="opacity:1;fill:#ffffff" stroke="#000000" points="15.392,5.064 17.954,2.502 20.347,4.895 17.786,7.455     18.729,9.732 22.353,9.732 22.353,13.115 18.731,13.115 17.788,15.392 20.351,17.955 17.958,20.347 15.397,17.786 13.12,18.729     13.12,22.353 9.737,22.353 9.737,18.731 7.46,17.788 4.897,20.35 2.506,17.958 5.066,15.397 4.124,13.12 0.5,13.12 0.5,9.737     4.121,9.737 5.065,7.461 2.503,4.898 4.895,2.506 7.455,5.066 9.732,4.125 9.732,0.5 13.116,0.5 13.116,4.121 "/> 		<circle oryx:anchors="top left" id="_85773DA2-0649-4008-965D-080E16DCEFC3frame21" style="opacity:1;fill:none" stroke="#000000" cx="11.427" cy="11.426" r="3.714"/> 		<polygon oryx:anchors="top left" id="_85773DA2-0649-4008-965D-080E16DCEFC3frame22" style="opacity:1;fill:#ffffff" stroke="#000000" points="21.392,11.064 23.954,8.502 26.347,10.895 23.786,13.455     24.729,15.732 28.353,15.732 28.353,19.115 24.731,19.115 23.788,21.392 26.351,23.955 23.958,26.347 21.397,23.786 19.12,24.729     19.12,28.353 15.737,28.353 15.737,24.731 13.46,23.788 10.897,26.35 8.506,23.958 11.066,21.397 10.124,19.12 6.5,19.12     6.5,15.737 10.121,15.737 11.065,13.461 8.503,10.898 10.895,8.506 13.455,11.066 15.732,10.125 15.732,6.5 19.116,6.5     19.116,10.121 "/> 		<circle oryx:anchors="top left" id="_85773DA2-0649-4008-965D-080E16DCEFC3frame23" style="opacity:1;fill:none;" stroke="#000000" cx="17.427" cy="17.426" r="3.714"/> 	</g> 	 	<g id="_85773DA2-0649-4008-965D-080E16DCEFC3sendTask" display="none"> 		<path id="_85773DA2-0649-4008-965D-080E16DCEFC3stframe24" oryx:anchors="left top" stroke="#FFFFFF" fill="black" stroke-width="1" d="M8,11 L8,21 L24,21 L24,11 L16,17z"/> 		<path id="_85773DA2-0649-4008-965D-080E16DCEFC3stframe25" oryx:anchors="left top" stroke="#FFFFFF" fill="black" stroke-width="1" d="M7,10 L16,17 L25 10z"/> 	</g> 	 	<g id="_85773DA2-0649-4008-965D-080E16DCEFC3receiveTask" display="none"> 		<path id="_85773DA2-0649-4008-965D-080E16DCEFC3frame26" oryx:anchors="left top" stroke="#000000" fill="none" stroke-width="1" d="M8,11 L8,21 L24,21 L24,11z M8,11 L16,17 L24,11"/> 	</g> 	 	<g id="_85773DA2-0649-4008-965D-080E16DCEFC3none" display="none"/>  	<g id="_85773DA2-0649-4008-965D-080E16DCEFC3sequential" display="none">         <path oryx:anchors="bottom" fill="none" stroke="#000000" stroke-width="2" d="M46,76h10M46,72h10 M46,68h10" id="_85773DA2-0649-4008-965D-080E16DCEFC3__85773DA2-0649-4008-965D-080E16DCEFC3_20"/>     </g>   </g></g><g class="children" style="overflow:hidden"/><g class="edge"/></g><g class="controls"><g class="dockers"/><g class="magnets" transform="translate(645, 140)"><g pointer-events="all" display="none" transform="translate(-7, 12)"><circle cx="8" cy="8" r="4" stroke="none" fill="red" fill-opacity="0.3"/></g><g pointer-events="all" display="none" transform="translate(-7, 32)"><circle cx="8" cy="8" r="4" stroke="none" fill="red" fill-opacity="0.3"/></g><g pointer-events="all" display="none" transform="translate(-7, 52)"><circle cx="8" cy="8" r="4" stroke="none" fill="red" fill-opacity="0.3"/></g><g pointer-events="all" display="none" transform="translate(17, 71)"><circle cx="8" cy="8" r="4" stroke="none" fill="red" fill-opacity="0.3"/></g><g pointer-events="all" display="none" transform="translate(42, 71)"><circle cx="8" cy="8" r="4" stroke="none" fill="red" fill-opacity="0.3"/></g><g pointer-events="all" display="none" transform="translate(67, 71)"><circle cx="8" cy="8" r="4" stroke="none" fill="red" fill-opacity="0.3"/></g><g pointer-events="all" display="none" transform="translate(91, 12)"><circle cx="8" cy="8" r="4" stroke="none" fill="red" fill-opacity="0.3"/></g><g pointer-events="all" display="none" transform="translate(91, 32)"><circle cx="8" cy="8" r="4" stroke="none" fill="red" fill-opacity="0.3"/></g><g pointer-events="all" display="none" transform="translate(91, 52)"><circle cx="8" cy="8" r="4" stroke="none" fill="red" fill-opacity="0.3"/></g><g pointer-events="all" display="none" transform="translate(17, -7)"><circle cx="8" cy="8" r="4" stroke="none" fill="red" fill-opacity="0.3"/></g><g pointer-events="all" display="none" transform="translate(42, -7)"><circle cx="8" cy="8" r="4" stroke="none" fill="red" fill-opacity="0.3"/></g><g pointer-events="all" display="none" transform="translate(67, -7)"><circle cx="8" cy="8" r="4" stroke="none" fill="red" fill-opacity="0.3"/></g><g pointer-events="all" display="none" transform="translate(42, 32)"><circle cx="8" cy="8" r="4" stroke="none" fill="red" fill-opacity="0.3"/></g></g></g></g><g id="_5992B569-AE69-49D0-9363-B5014EC9084B" bpmn2nodeid="_CBFC161B-320F-482F-B6F5-AE005116DC36"><g class="stencils" transform="translate(795, 291)"><g class="me"><g pointer-events="fill" id="_5992B569-AE69-49D0-9363-B5014EC9084B">      <defs id="_5992B569-AE69-49D0-9363-B5014EC9084B__5992B569-AE69-49D0-9363-B5014EC9084B_5"> 		<radialGradient id="_5992B569-AE69-49D0-9363-B5014EC9084Bbackground" cx="10%" cy="10%" r="100%" fx="10%" fy="10%"> 			<stop offset="0%" stop-color="#ffffff" stop-opacity="1" id="_5992B569-AE69-49D0-9363-B5014EC9084B__5992B569-AE69-49D0-9363-B5014EC9084B_6"/> 			<stop id="_5992B569-AE69-49D0-9363-B5014EC9084Bfill_el" offset="100%" stop-color="#ff6347" stop-opacity="1"/> 		</radialGradient> 	</defs> 	     <circle id="_5992B569-AE69-49D0-9363-B5014EC9084Bbg_frame" cx="14" cy="14" r="14" stroke="#000000" fill="url(#_5992B569-AE69-49D0-9363-B5014EC9084Bbackground) white" stroke-width="3"/> 	<text font-size="11" id="_5992B569-AE69-49D0-9363-B5014EC9084Btext_name" x="14" y="30" oryx:align="top center" stroke="black" stroke-width="0pt" letter-spacing="-0.01px" fill="#000000" text-anchor="middle" transform="rotate(0 14 30)" visibility="inherit" oryx:fontSize="11"/>   </g></g><g class="children" style="overflow:hidden"/><g class="edge"/></g><g class="controls"><g class="dockers"/><g class="magnets" transform="translate(795, 291)"><g pointer-events="all" display="none" transform="translate(6, 6)"><circle cx="8" cy="8" r="4" stroke="none" fill="red" fill-opacity="0.3"/></g></g></g></g><g id="_52DD0146-B5EC-418C-8937-B0CB8843EBF6" bpmn2nodeid="_BBD2A2C3-A38C-4514-B0C2-500153F452AC"><g class="stencils" transform="translate(675, 285)"><g class="me"><g id="_52DD0146-B5EC-418C-8937-B0CB8843EBF6">        <defs id="_52DD0146-B5EC-418C-8937-B0CB8843EBF6__52DD0146-B5EC-418C-8937-B0CB8843EBF6_4"> 		<radialGradient id="_52DD0146-B5EC-418C-8937-B0CB8843EBF6background" cx="10%" cy="10%" r="100%" fx="10%" fy="10%"> 			<stop offset="0%" stop-color="#ffffff" stop-opacity="1" id="_52DD0146-B5EC-418C-8937-B0CB8843EBF6__52DD0146-B5EC-418C-8937-B0CB8843EBF6_5"/> 			<stop id="_52DD0146-B5EC-418C-8937-B0CB8843EBF6fill_el" offset="100%" stop-color="#f0e68c" stop-opacity="1"/> 		</radialGradient> 		<radialGradient id="_52DD0146-B5EC-418C-8937-B0CB8843EBF6borderbackground" cx="10%" cy="10%" r="100%" fx="10%" fy="10%"> 			<stop offset="0%" stop-color="#ffffff" stop-opacity="1" id="_52DD0146-B5EC-418C-8937-B0CB8843EBF6__52DD0146-B5EC-418C-8937-B0CB8843EBF6_6"/> 			<stop id="_52DD0146-B5EC-418C-8937-B0CB8843EBF6fill_border" offset="100%" stop-color="#a67f00" stop-opacity="1" stroke="#a67f00"/> 		</radialGradient> 	</defs> 	     <path d=" M0 20.5  L20.5 0  L40 20.5  L20.5 40  z" id="_52DD0146-B5EC-418C-8937-B0CB8843EBF6bg_frame" fill="url(#_52DD0146-B5EC-418C-8937-B0CB8843EBF6background) white" style="stroke-width:1" stroke="#a67f00"/>     <g id="_52DD0146-B5EC-418C-8937-B0CB8843EBF6frame" stroke="#a67f00">       <path id="_52DD0146-B5EC-418C-8937-B0CB8843EBF6frame2" d=" M13.25 12.05  L17.25 12.05  L27.65 28.95  L23.75 28.95  z" style="stroke-width:1" stroke="#a67f00" fill="url(#_52DD0146-B5EC-418C-8937-B0CB8843EBF6borderbackground)"/>       <path id="_52DD0146-B5EC-418C-8937-B0CB8843EBF6frame3" d=" M13.25 28.95  L23.75 12.05  L27.65 12.05  L17.25 28.95  z" style="stroke-width:1" stroke="#a67f00" fill="url(#_52DD0146-B5EC-418C-8937-B0CB8843EBF6borderbackground)"/>     </g> 	 	<text id="_52DD0146-B5EC-418C-8937-B0CB8843EBF6text_name" x="30.5" y="30.5" oryx:align="left top" stroke-width="0pt" letter-spacing="-0.01px" fill="#000000" text-anchor="start" transform="rotate(0 30.5 30.5)" visibility="inherit" oryx:fontSize="12"/> 	   </g></g><g class="children" style="overflow:hidden"/><g class="edge"/></g><g class="controls"><g class="dockers"/><g class="magnets" transform="translate(675, 285)"><g pointer-events="all" display="none" transform="translate(12.5, 12.5)"><circle cx="8" cy="8" r="4" stroke="none" fill="red" fill-opacity="0.3"/></g></g></g></g></g><g class="edge"><g id="_02C24879-36B3-4FC5-B94E-EC639A435D39" bpmn2nodeid="_47E0CD74-EA15-4F67-A1C8-EC151953F4FC"><g class="stencils"><g class="me"><g pointer-events="painted" bpmn2nodeid="_47E0CD74-EA15-4F67-A1C8-EC151953F4FC"><path id="_02C24879-36B3-4FC5-B94E-EC639A435D39_1" d="M150.609375 180L254.859375 180 " stroke="#000000" fill="none" stroke-width="2" stroke-linecap="round" stroke-linejoin="round" marker-start="url(#_02C24879-36B3-4FC5-B94E-EC639A435D39start)" marker-end="url(#_02C24879-36B3-4FC5-B94E-EC639A435D39end)"/></g><text id="_02C24879-36B3-4FC5-B94E-EC639A435D39text_name" font-size="12" x="164.609375" y="166" oryx:edgePosition="startTop" stroke-width="0pt" letter-spacing="-0.01px" fill="#000000" text-anchor="start" transform="rotate(360 150.609375 180)" visibility="inherit" oryx:fontSize="12"/></g><g class="children" style="overflow:hidden"/><g class="edge"/></g><g class="controls"><g class="dockers"/><g class="magnets"/></g></g><g id="_5BF69306-1800-4FB6-B601-EC3410627100" bpmn2nodeid="_56478F1A-7511-4159-8766-3D3AC5BC7D02"><g class="stencils"><g class="me"><g pointer-events="painted" bpmn2nodeid="_56478F1A-7511-4159-8766-3D3AC5BC7D02"><path id="_5BF69306-1800-4FB6-B601-EC3410627100_1" d="M355.1328079363635 180.15145863424883L449.4589889386365 180.43643199075117 " stroke="#000000" fill="none" stroke-width="2" stroke-linecap="round" stroke-linejoin="round" marker-start="url(#_5BF69306-1800-4FB6-B601-EC3410627100start)" marker-end="url(#_5BF69306-1800-4FB6-B601-EC3410627100end)"/></g><text id="_5BF69306-1800-4FB6-B601-EC3410627100text_name" font-size="12" x="369.1328079363635" y="166.15145863424883" oryx:edgePosition="startTop" stroke-width="0pt" letter-spacing="-0.01px" fill="#000000" text-anchor="start" transform="rotate(0.17309850512015146 355.1328079363635 180.15145863424883)" visibility="inherit" oryx:fontSize="12"/></g><g class="children" style="overflow:hidden"/><g class="edge"/></g><g class="controls"><g class="dockers"/><g class="magnets"/></g></g><g id="_488E0F43-056C-4BC4-9754-D964A1CEBB97" bpmn2nodeid="_309FFC99-3DFA-4B43-839A-D393262D45CF"><g class="stencils"><g class="me"><g pointer-events="painted" bpmn2nodeid="_309FFC99-3DFA-4B43-839A-D393262D45CF"><path id="_488E0F43-056C-4BC4-9754-D964A1CEBB97_1" d="M490.7929662698628 180.45480408403148L644.8906274801373 180.11160216596852 " stroke="#000000" fill="none" stroke-width="2" stroke-linecap="round" stroke-linejoin="round" marker-start="url(#_488E0F43-056C-4BC4-9754-D964A1CEBB97start)" marker-end="url(#_488E0F43-056C-4BC4-9754-D964A1CEBB97end)"/></g><text id="_488E0F43-056C-4BC4-9754-D964A1CEBB97text_name" font-size="12" x="504.7929662698628" y="166.45480408403148" oryx:edgePosition="startTop" stroke-width="0pt" letter-spacing="-0.01px" fill="#000000" text-anchor="start" transform="rotate(359.8723926842344 490.7929662698628 180.45480408403148)" visibility="inherit" oryx:fontSize="12"><tspan x="504.7929662698628" y="166.45480408403148" dy="0">Outward Approved</tspan></text></g><g class="children" style="overflow:hidden"/><g class="edge"/></g><g class="controls"><g class="dockers"/><g class="magnets"/></g></g><g id="_24DC8D79-B8BB-4E3D-8C47-29D5210E1311" bpmn2nodeid="_8907285B-91AE-4941-88F6-5AA5827B032D"><g class="stencils"><g class="me"><g pointer-events="painted" bpmn2nodeid="_8907285B-91AE-4941-88F6-5AA5827B032D"><path id="_24DC8D79-B8BB-4E3D-8C47-29D5210E1311_1" d="M715.1210840468674 305.4135635064015L794.6992284531326 305.0629989935985 " stroke="#000000" fill="none" stroke-width="2" stroke-linecap="round" stroke-linejoin="round" marker-start="url(#_24DC8D79-B8BB-4E3D-8C47-29D5210E1311start)" marker-end="url(#_24DC8D79-B8BB-4E3D-8C47-29D5210E1311end)"/></g><text id="_24DC8D79-B8BB-4E3D-8C47-29D5210E1311text_name" font-size="12" x="729.1210840468674" y="291.4135635064015" oryx:edgePosition="startTop" stroke-width="0pt" letter-spacing="-0.01px" fill="#000000" text-anchor="start" transform="rotate(359.7475973177108 715.1210840468674 305.4135635064015)" visibility="inherit" oryx:fontSize="12"/></g><g class="children" style="overflow:hidden"/><g class="edge"/></g><g class="controls"><g class="dockers"/><g class="magnets"/></g></g><g id="_C47EBEF0-B052-4A5F-8BDB-39D742125AC0" bpmn2nodeid="_8D2E7FB3-395A-4360-BB01-932B7319C59B"><g class="stencils"><g class="me"><g pointer-events="painted" bpmn2nodeid="_8D2E7FB3-395A-4360-BB01-932B7319C59B"><path id="_C47EBEF0-B052-4A5F-8BDB-39D742125AC0_1" d="M695.1602340321264 220.2187420637125L695.4178909678736 284.8906329362875 " stroke="#000000" fill="none" stroke-width="2" stroke-linecap="round" stroke-linejoin="round" marker-start="url(#_C47EBEF0-B052-4A5F-8BDB-39D742125AC0start)" marker-end="url(#_C47EBEF0-B052-4A5F-8BDB-39D742125AC0end)"/></g><text id="_C47EBEF0-B052-4A5F-8BDB-39D742125AC0text_name" font-size="12" x="709.1602340321264" y="206.2187420637125" oryx:edgePosition="startTop" stroke-width="0pt" letter-spacing="-0.01px" fill="#000000" text-anchor="start" transform="rotate(89.77173116984517 695.1602340321264 220.2187420637125)" visibility="inherit" oryx:fontSize="12"/></g><g class="children" style="overflow:hidden"/><g class="edge"/></g><g class="controls"><g class="dockers"/><g class="magnets"/></g></g><g id="_C2A057F6-0A28-442D-96EA-769C7BD4BD1C" bpmn2nodeid="_B37EEC13-1034-4029-A2BB-A7420999EE1C"><g class="stencils"><g class="me"><g pointer-events="painted" bpmn2nodeid="_B37EEC13-1034-4029-A2BB-A7420999EE1C"><path id="_C2A057F6-0A28-442D-96EA-769C7BD4BD1C_1" d="M470.5 200.953125L470.5 305 L674.70703125 305 " stroke="#000000" fill="none" stroke-width="2" stroke-linecap="round" stroke-linejoin="round" marker-start="url(#_C2A057F6-0A28-442D-96EA-769C7BD4BD1Cstart)" marker-end="url(#_C2A057F6-0A28-442D-96EA-769C7BD4BD1Cend)"/></g><text id="_C2A057F6-0A28-442D-96EA-769C7BD4BD1Ctext_name" font-size="12" x="456.5" y="186.953125" oryx:edgePosition="startTop" stroke-width="0pt" letter-spacing="-0.01px" fill="#000000" text-anchor="end" transform="rotate(-90 470.5 200.953125)" visibility="inherit" oryx:fontSize="12"><tspan x="456.5" y="186.953125" dy="0" id="ext-gen3676">Outward Rejected</tspan></text></g><g class="children" style="overflow:hidden"/><g class="edge"/></g><g class="controls"><g class="dockers"/><g class="magnets"/></g></g></g><text id="_D26C3328-23EF-481D-B22A-FA3C552F7627" style="stroke-width:1;fill:rgb(177,194,214);font-family:arial;font-weight:bold" font-size="12" onclick="ORYX.Plugins.CanvasTitle.openTextualAnalysis()" onmouseover="ORYX.Plugins.CanvasTitle.addToolTip('_D26C3328-23EF-481D-B22A-FA3C552F7627')" transform="translate(10, 20)">asset-service-process v.1.0 (procurement.asset-service-process)</text></g></g></svg>