<svg xmlns="http://www.w3.org/2000/svg" xmlns:oryx="http://oryx-editor.org" id="_36191483-B2BD-409F-9FD3-9AFBE0E4A906" width="863" height="366" xmlns:xlink="http://www.w3.org/1999/xlink" xmlns:svg="http://www.w3.org/2000/svg"><defs><marker id="_9CCD9A8C-563E-4377-83CC-C5C23E9849A9start" refX="1" refY="5" markerUnits="userSpaceOnUse" markerWidth="17" markerHeight="11" orient="auto" fill="#000000" stroke="#000000"> 	  		<path id="_9CCD9A8C-563E-4377-83CC-C5C23E9849A9conditional" d="M 0 5 L 8 0 L 16 5 L 8 10 L 0 5" fill="white" stroke="#000000" stroke-width="1" display="none"/> 			<path id="_9CCD9A8C-563E-4377-83CC-C5C23E9849A9default" d="M 5 0 L 11 10" fill="white" stroke="#000000" stroke-width="1" display="none"/> 	  	</marker><marker id="_9CCD9A8C-563E-4377-83CC-C5C23E9849A9end" refX="15" refY="6" markerUnits="userSpaceOnUse" markerWidth="15" markerHeight="12" orient="auto" fill="#000000" stroke="#000000"> 	  		<path id="_9CCD9A8C-563E-4377-83CC-C5C23E9849A9frame2" d="M 0 1 L 15 6 L 0 11z" fill="#000000" stroke="#000000" stroke-linejoin="round" stroke-width="2"/> 	  	</marker><marker id="_E34914D1-15B5-452F-AA8B-B8A8D605DF5Fstart" refX="1" refY="5" markerUnits="userSpaceOnUse" markerWidth="17" markerHeight="11" orient="auto" fill="#000000" stroke="#000000"> 	  		<path id="_E34914D1-15B5-452F-AA8B-B8A8D605DF5Fconditional" d="M 0 5 L 8 0 L 16 5 L 8 10 L 0 5" fill="white" stroke="#000000" stroke-width="1" display="none"/> 			<path id="_E34914D1-15B5-452F-AA8B-B8A8D605DF5Fdefault" d="M 5 0 L 11 10" fill="white" stroke="#000000" stroke-width="1" display="none"/> 	  	</marker><marker id="_E34914D1-15B5-452F-AA8B-B8A8D605DF5Fend" refX="15" refY="6" markerUnits="userSpaceOnUse" markerWidth="15" markerHeight="12" orient="auto" fill="#000000" stroke="#000000"> 	  		<path id="_E34914D1-15B5-452F-AA8B-B8A8D605DF5Fframe2" d="M 0 1 L 15 6 L 0 11z" fill="#000000" stroke="#000000" stroke-linejoin="round" stroke-width="2"/> 	  	</marker><marker id="_CCD9E9BA-8797-4B3B-AC35-1C79B5CB3DA1start" refX="1" refY="5" markerUnits="userSpaceOnUse" markerWidth="17" markerHeight="11" orient="auto" fill="#000000" stroke="#000000"> 	  		<path id="_CCD9E9BA-8797-4B3B-AC35-1C79B5CB3DA1conditional" d="M 0 5 L 8 0 L 16 5 L 8 10 L 0 5" fill="white" stroke="#000000" stroke-width="1" display="none"/> 			<path id="_CCD9E9BA-8797-4B3B-AC35-1C79B5CB3DA1default" d="M 5 0 L 11 10" fill="white" stroke="#000000" stroke-width="1" display="none"/> 	  	</marker><marker id="_CCD9E9BA-8797-4B3B-AC35-1C79B5CB3DA1end" refX="15" refY="6" markerUnits="userSpaceOnUse" markerWidth="15" markerHeight="12" orient="auto" fill="#000000" stroke="#000000"> 	  		<path id="_CCD9E9BA-8797-4B3B-AC35-1C79B5CB3DA1frame2" d="M 0 1 L 15 6 L 0 11z" fill="#000000" stroke="#000000" stroke-linejoin="round" stroke-width="2"/> 	  	</marker><marker id="_212D9734-C37A-4E2F-885A-21F6C36CFE22start" refX="1" refY="5" markerUnits="userSpaceOnUse" markerWidth="17" markerHeight="11" orient="auto" fill="#000000" stroke="#000000"> 	  		<path id="_212D9734-C37A-4E2F-885A-21F6C36CFE22conditional" d="M 0 5 L 8 0 L 16 5 L 8 10 L 0 5" fill="white" stroke="#000000" stroke-width="1" display="none"/> 			<path id="_212D9734-C37A-4E2F-885A-21F6C36CFE22default" d="M 5 0 L 11 10" fill="white" stroke="#000000" stroke-width="1" display="none"/> 	  	</marker><marker id="_212D9734-C37A-4E2F-885A-21F6C36CFE22end" refX="15" refY="6" markerUnits="userSpaceOnUse" markerWidth="15" markerHeight="12" orient="auto" fill="#000000" stroke="#000000"> 	  		<path id="_212D9734-C37A-4E2F-885A-21F6C36CFE22frame2" d="M 0 1 L 15 6 L 0 11z" fill="#000000" stroke="#000000" stroke-linejoin="round" stroke-width="2"/> 	  	</marker><marker id="_8C0DAC72-A7B4-4571-AB8E-095B448608ECstart" refX="1" refY="5" markerUnits="userSpaceOnUse" markerWidth="17" markerHeight="11" orient="auto" fill="#000000" stroke="#000000"> 	  		<path id="_8C0DAC72-A7B4-4571-AB8E-095B448608ECconditional" d="M 0 5 L 8 0 L 16 5 L 8 10 L 0 5" fill="white" stroke="#000000" stroke-width="1" display="none"/> 			<path id="_8C0DAC72-A7B4-4571-AB8E-095B448608ECdefault" d="M 5 0 L 11 10" fill="white" stroke="#000000" stroke-width="1" display="none"/> 	  	</marker><marker id="_8C0DAC72-A7B4-4571-AB8E-095B448608ECend" refX="15" refY="6" markerUnits="userSpaceOnUse" markerWidth="15" markerHeight="12" orient="auto" fill="#000000" stroke="#000000"> 	  		<path id="_8C0DAC72-A7B4-4571-AB8E-095B448608ECframe2" d="M 0 1 L 15 6 L 0 11z" fill="#000000" stroke="#000000" stroke-linejoin="round" stroke-width="2"/> 	  	</marker><marker id="_F2C689B0-368F-42C5-AFE5-6BFC84E8A7EFstart" refX="1" refY="5" markerUnits="userSpaceOnUse" markerWidth="17" markerHeight="11" orient="auto" fill="#000000" stroke="#000000"> 	  		<path id="_F2C689B0-368F-42C5-AFE5-6BFC84E8A7EFconditional" d="M 0 5 L 8 0 L 16 5 L 8 10 L 0 5" fill="white" stroke="#000000" stroke-width="1" display="none"/> 			<path id="_F2C689B0-368F-42C5-AFE5-6BFC84E8A7EFdefault" d="M 5 0 L 11 10" fill="white" stroke="#000000" stroke-width="1" display="none"/> 	  	</marker><marker id="_F2C689B0-368F-42C5-AFE5-6BFC84E8A7EFend" refX="15" refY="6" markerUnits="userSpaceOnUse" markerWidth="15" markerHeight="12" orient="auto" fill="#000000" stroke="#000000"> 	  		<path id="_F2C689B0-368F-42C5-AFE5-6BFC84E8A7EFframe2" d="M 0 1 L 15 6 L 0 11z" fill="#000000" stroke="#000000" stroke-linejoin="round" stroke-width="2"/> 	  	</marker></defs><g stroke="none" font-family="Verdana, sans-serif" font-size-adjust="none" font-style="normal" font-variant="normal" font-weight="normal" line-heigth="normal" font-size="12"><g class="stencils" transform="translate(15, 16)"><g class="me"/><g class="children"><g id="_384AC56B-7D06-48E6-B679-529450B34DA1" bpmn2nodeid="processStartEvent"><g class="stencils" transform="translate(120, 165)"><g class="me"><g pointer-events="fill" id="_384AC56B-7D06-48E6-B679-529450B34DA1">        <defs id="_384AC56B-7D06-48E6-B679-529450B34DA1__384AC56B-7D06-48E6-B679-529450B34DA1_5"> 		<radialGradient id="_384AC56B-7D06-48E6-B679-529450B34DA1background" cx="10%" cy="10%" r="100%" fx="10%" fy="10%"> 			<stop offset="0%" stop-color="#ffffff" stop-opacity="1" id="_384AC56B-7D06-48E6-B679-529450B34DA1__384AC56B-7D06-48E6-B679-529450B34DA1_6"/> 			<stop id="_384AC56B-7D06-48E6-B679-529450B34DA1fill_el" offset="100%" stop-color="#9acd32" stop-opacity="1"/> 		</radialGradient> 	</defs> 	     <circle id="_384AC56B-7D06-48E6-B679-529450B34DA1bg_frame" cx="15" cy="15" r="15" stroke="#000000" fill="url(#_384AC56B-7D06-48E6-B679-529450B34DA1background) white" stroke-width="1" style="stroke-dasharray: 5.5, 3"/>      <circle id="_384AC56B-7D06-48E6-B679-529450B34DA1frame" cx="15" cy="15" r="15" stroke="#000000" fill="none" stroke-width="1" display="inherit"/>  	<text font-size="11" id="_384AC56B-7D06-48E6-B679-529450B34DA1text_name" x="15" y="32" oryx:align="top center" stroke="black" stroke-width="0pt" letter-spacing="-0.01px" fill="#000000" text-anchor="middle" transform="rotate(0 15 32)" visibility="inherit" oryx:fontSize="11"/>   </g></g><g class="children" style="overflow:hidden"/><g class="edge"/></g><g class="controls"><g class="dockers"/><g class="magnets" transform="translate(120, 165)"><g pointer-events="all" display="none" transform="translate(7, 7)"><circle cx="8" cy="8" r="4" stroke="none" fill="red" fill-opacity="0.3"/></g></g></g></g><g id="_BA5B4C65-169F-4E10-B059-89E68D42460E" bpmn2nodeid="_2DF7FDA4-BCCB-4BF8-85E5-2724DFD0EC76"><g class="stencils" transform="translate(255, 140)"><g class="me"><g pointer-events="fill" oryx:minimumSize="50 40" id="_BA5B4C65-169F-4E10-B059-89E68D42460E">   	<defs id="_BA5B4C65-169F-4E10-B059-89E68D42460E__BA5B4C65-169F-4E10-B059-89E68D42460E_17"> 		<radialGradient id="_BA5B4C65-169F-4E10-B059-89E68D42460Ebackground" cx="10%" cy="10%" r="100%" fx="10%" fy="10%"> 			<stop offset="0%" stop-color="#ffffff" stop-opacity="1" id="_BA5B4C65-169F-4E10-B059-89E68D42460E__BA5B4C65-169F-4E10-B059-89E68D42460E_18"/> 			<stop id="_BA5B4C65-169F-4E10-B059-89E68D42460Efill_el" offset="100%" stop-color="#fafad2" stop-opacity="1"/> 		</radialGradient> 		<radialGradient id="_BA5B4C65-169F-4E10-B059-89E68D42460Eborderbackground" cx="10%" cy="10%" r="100%" fx="10%" fy="10%"> 			<stop offset="0%" stop-color="#ffffff" stop-opacity="1" id="_BA5B4C65-169F-4E10-B059-89E68D42460E__BA5B4C65-169F-4E10-B059-89E68D42460E_19"/> 			<stop id="_BA5B4C65-169F-4E10-B059-89E68D42460Efill_border" offset="100%" stop-color="#000000" stop-opacity="1" stroke="#000000"/> 		</radialGradient> 	</defs> 	 	<rect id="_BA5B4C65-169F-4E10-B059-89E68D42460Etext_frame" oryx:anchors="bottom top right left" x="1" y="1" width="94" height="79" rx="10" ry="10" stroke="none" stroke-width="0" fill="none"/> 	<rect id="_BA5B4C65-169F-4E10-B059-89E68D42460Ebg_frame" oryx:resize="vertical horizontal" x="0" y="0" width="100" height="80" rx="10" ry="10" stroke="#000000" stroke-width="1" fill="url(#_BA5B4C65-169F-4E10-B059-89E68D42460Ebackground) #ffffcc"/> 		<text font-size="12" id="_BA5B4C65-169F-4E10-B059-89E68D42460Etext_name" x="50" y="40" oryx:align="middle center" oryx:fittoelem="text_frame" stroke="black" text-anchor="middle" stroke-width="0pt" letter-spacing="-0.01px" fill="#000000" transform="rotate(0 50 40)" visibility="inherit" oryx:fontSize="12"><tspan x="50" y="40" dy="-13" id="ext-gen804">Asset </tspan><tspan x="50" y="40" dy="-1" id="ext-gen629">Service/Repair </tspan><tspan x="50" y="40" dy="11" id="ext-gen628">Outward </tspan><tspan x="50" y="40" dy="23" id="ext-gen627">Approval</tspan></text>     <g id="_BA5B4C65-169F-4E10-B059-89E68D42460EmanualTask" transform="scale(0.7,0.7) translate(8,8)" display="none">     	<path oryx:anchors="top left" id="_BA5B4C65-169F-4E10-B059-89E68D42460Eframe" style="opacity:1;fill:none;fill-opacity:1;stroke-width:1" d="M0.5,3.751l4.083-3.25c0,0,11.166,0.083,12.083,0.083s-2.417,2.917-1.5,2.917     s11.667,0,12.584,0c1.166,1.708-0.168,3.167-0.834,3.667s0.875,1.917-1,4.417c-0.75,0.25,0.75,1.875-1.333,3.333     c-1.167,0.583,0.583,1.542-1.25,2.833c-1.167,0-20.833,0.083-20.833,0.083l-2-1.333V3.751z" stroke="#000000"/> 		<path id="_BA5B4C65-169F-4E10-B059-89E68D42460Eframe2" oryx:anchors="top left" style="opacity:1;fill:none;stroke-width:2" d="M 13.5 7 L 27 7" stroke="#000000"/> 		<path id="_BA5B4C65-169F-4E10-B059-89E68D42460Eframe3" oryx:anchors="top left" style="opacity:1;fill:none;stroke-width:2" d="M 13.5 11 L 26 11" stroke="#000000"/> 		<path id="_BA5B4C65-169F-4E10-B059-89E68D42460Eframe4" oryx:anchors="top left" style="opacity:1;fill:none;stroke-width:1.5" d="M 14 14.5 L 25 14.5" stroke="#000000"/> 		<path id="_BA5B4C65-169F-4E10-B059-89E68D42460Eframe5" oryx:anchors="top left" style="opacity:1;fill:none;stroke-width:1.5" d="M 8.2 3.1 L 15 3.1" stroke="#000000"/> 	</g> 	 	<g id="_BA5B4C65-169F-4E10-B059-89E68D42460EbusinessRuleTask" transform="scale(0.7,0.7) translate(8,8)" display="none"> 		<rect id="_BA5B4C65-169F-4E10-B059-89E68D42460Eframe6" oryx:anchors="top left" x="0" y="0" width="22" height="4" style="opacity:1;fill:#B3B1B3;fill-opacity:1;" stroke="#000000"/> 		<rect id="_BA5B4C65-169F-4E10-B059-89E68D42460Eframe7" oryx:anchors="top left" x="0" y="4" style="opacity:1;fill:none;" width="22" height="12" stroke="#000000"/> 		<path id="_BA5B4C65-169F-4E10-B059-89E68D42460Eframe8" oryx:anchors="top left" style="opacity:1;fill:none;" d="M 0 10 L 22 10" stroke="#000000"/> 		<path id="_BA5B4C65-169F-4E10-B059-89E68D42460Eframe9" oryx:anchors="top left" style="opacity:1; fill:none;" d="M 7 4 L 7 16" stroke="#000000"/> 	</g> 	 	<g id="_BA5B4C65-169F-4E10-B059-89E68D42460EscriptTask" transform="scale(0.7,0.7) translate(8,8)" display="none"> 		<path oryx:anchors="top left" id="_BA5B4C65-169F-4E10-B059-89E68D42460Eframe10" style="opacity:1;fill:none;" stroke="#000000" d="M6.402,0.5h14.5c0,0-5.833,2.833-5.833,5.583s4.417,6,4.417,9.167    s-4.167,5.083-4.167,5.083H0.235c0,0,5-2.667,5-5s-4.583-6.75-4.583-9.25S6.402,0.5,6.402,0.5z"/> 		<path oryx:anchors="top left" id="_BA5B4C65-169F-4E10-B059-89E68D42460Eframe11" style="opacity:1;fill:none;stroke-width:1.5" d="M 3.5 4.5 L 13.5 4.5" stroke="#000000"/> 		<path oryx:anchors="top left" id="_BA5B4C65-169F-4E10-B059-89E68D42460Eframe12" style="opacity:1;fill:none;stroke-width:1.5" d="M 3.8 8.5 L 13.8 8.5" stroke="#000000"/> 		<path oryx:anchors="top left" id="_BA5B4C65-169F-4E10-B059-89E68D42460Eframe13" style="opacity:1;fill:none;stroke-width:1.5" d="M 6.3 12.5 L 16.3 12.5" stroke="#000000"/> 		<path oryx:anchors="top left" id="_BA5B4C65-169F-4E10-B059-89E68D42460Eframe14" style="opacity:1;fill:none;stroke-width:1.5" d="M 6.5 16.5 L 16.5 16.5" stroke="#000000"/> 	</g> 	 	<g id="_BA5B4C65-169F-4E10-B059-89E68D42460EuserTask" transform="scale(0.7,0.7) translate(8,8)" display="inherit"> 		<path id="_BA5B4C65-169F-4E10-B059-89E68D42460Eframe15" oryx:anchors="top left" style="opacity:1;fill:#F4F6F7" stroke="#000000" d="M0.585,24.167h24.083v-7.833c0,0-2.333-3.917-7.083-5.167h-9.25    c-4.417,1.333-7.833,5.75-7.833,5.75L0.585,24.167z"/> 		<path id="_BA5B4C65-169F-4E10-B059-89E68D42460Eframe16" oryx:anchors="top left" style="opacity:1;fill:none" d="M 6 20 L 6 24" stroke="#000000"/> 		<path id="_BA5B4C65-169F-4E10-B059-89E68D42460Eframe17" oryx:anchors="top left" style="opacity:1;fill:none" d="M 20 20 L 20 24" stroke="#000000"/> 		<circle id="_BA5B4C65-169F-4E10-B059-89E68D42460Eframe18" oryx:anchors="top left" fill="black" cx="13.002" cy="5.916" r="5.417" stroke="#000000"/> 		<path id="_BA5B4C65-169F-4E10-B059-89E68D42460Eframe19" oryx:anchors="top left" style="opacity:1;fill:#F0EFF0;" stroke="#000000" d="M8.043,7.083c0,0,2.814-2.426,5.376-1.807s4.624-0.693,4.624-0.693    c0.25,1.688,0.042,3.75-1.458,5.584c0,0,1.083,0.75,1.083,1.5s0.125,1.875-1,3s-5.5,1.25-6.75,0S8.668,12.834,8.668,12    s0.583-1.25,1.25-1.917C8.835,9.5,7.419,7.708,8.043,7.083z"/> 	</g> 	 	<g id="_BA5B4C65-169F-4E10-B059-89E68D42460EserviceTask" transform="scale(0.7,0.7) translate(8,8)" display="none"> 		<polygon oryx:anchors="top left" id="_BA5B4C65-169F-4E10-B059-89E68D42460Eframe20" style="opacity:1;fill:#ffffff" stroke="#000000" points="15.392,5.064 17.954,2.502 20.347,4.895 17.786,7.455     18.729,9.732 22.353,9.732 22.353,13.115 18.731,13.115 17.788,15.392 20.351,17.955 17.958,20.347 15.397,17.786 13.12,18.729     13.12,22.353 9.737,22.353 9.737,18.731 7.46,17.788 4.897,20.35 2.506,17.958 5.066,15.397 4.124,13.12 0.5,13.12 0.5,9.737     4.121,9.737 5.065,7.461 2.503,4.898 4.895,2.506 7.455,5.066 9.732,4.125 9.732,0.5 13.116,0.5 13.116,4.121 "/> 		<circle oryx:anchors="top left" id="_BA5B4C65-169F-4E10-B059-89E68D42460Eframe21" style="opacity:1;fill:none" stroke="#000000" cx="11.427" cy="11.426" r="3.714"/> 		<polygon oryx:anchors="top left" id="_BA5B4C65-169F-4E10-B059-89E68D42460Eframe22" style="opacity:1;fill:#ffffff" stroke="#000000" points="21.392,11.064 23.954,8.502 26.347,10.895 23.786,13.455     24.729,15.732 28.353,15.732 28.353,19.115 24.731,19.115 23.788,21.392 26.351,23.955 23.958,26.347 21.397,23.786 19.12,24.729     19.12,28.353 15.737,28.353 15.737,24.731 13.46,23.788 10.897,26.35 8.506,23.958 11.066,21.397 10.124,19.12 6.5,19.12     6.5,15.737 10.121,15.737 11.065,13.461 8.503,10.898 10.895,8.506 13.455,11.066 15.732,10.125 15.732,6.5 19.116,6.5     19.116,10.121 "/> 		<circle oryx:anchors="top left" id="_BA5B4C65-169F-4E10-B059-89E68D42460Eframe23" style="opacity:1;fill:none;" stroke="#000000" cx="17.427" cy="17.426" r="3.714"/> 	</g> 	 	<g id="_BA5B4C65-169F-4E10-B059-89E68D42460EsendTask" display="none"> 		<path id="_BA5B4C65-169F-4E10-B059-89E68D42460Estframe24" oryx:anchors="left top" stroke="#FFFFFF" fill="black" stroke-width="1" d="M8,11 L8,21 L24,21 L24,11 L16,17z"/> 		<path id="_BA5B4C65-169F-4E10-B059-89E68D42460Estframe25" oryx:anchors="left top" stroke="#FFFFFF" fill="black" stroke-width="1" d="M7,10 L16,17 L25 10z"/> 	</g> 	 	<g id="_BA5B4C65-169F-4E10-B059-89E68D42460EreceiveTask" display="none"> 		<path id="_BA5B4C65-169F-4E10-B059-89E68D42460Eframe26" oryx:anchors="left top" stroke="#000000" fill="none" stroke-width="1" d="M8,11 L8,21 L24,21 L24,11z M8,11 L16,17 L24,11"/> 	</g> 	 	<g id="_BA5B4C65-169F-4E10-B059-89E68D42460Enone" display="inherit"/>  	<g id="_BA5B4C65-169F-4E10-B059-89E68D42460Esequential" display="none">         <path oryx:anchors="bottom" fill="none" stroke="#000000" stroke-width="2" d="M46,76h10M46,72h10 M46,68h10" id="_BA5B4C65-169F-4E10-B059-89E68D42460E__BA5B4C65-169F-4E10-B059-89E68D42460E_20"/>     </g>   </g></g><g class="children" style="overflow:hidden"/><g class="edge"/></g><g class="controls"><g class="dockers"/><g class="magnets" transform="translate(255, 140)"><g pointer-events="all" display="none" transform="translate(-7, 12)"><circle cx="8" cy="8" r="4" stroke="none" fill="red" fill-opacity="0.3"/></g><g pointer-events="all" display="none" transform="translate(-7, 32)"><circle cx="8" cy="8" r="4" stroke="none" fill="red" fill-opacity="0.3"/></g><g pointer-events="all" display="none" transform="translate(-7, 52)"><circle cx="8" cy="8" r="4" stroke="none" fill="red" fill-opacity="0.3"/></g><g pointer-events="all" display="none" transform="translate(17, 71)"><circle cx="8" cy="8" r="4" stroke="none" fill="red" fill-opacity="0.3"/></g><g pointer-events="all" display="none" transform="translate(42, 71)"><circle cx="8" cy="8" r="4" stroke="none" fill="red" fill-opacity="0.3"/></g><g pointer-events="all" display="none" transform="translate(67, 71)"><circle cx="8" cy="8" r="4" stroke="none" fill="red" fill-opacity="0.3"/></g><g pointer-events="all" display="none" transform="translate(91, 12)"><circle cx="8" cy="8" r="4" stroke="none" fill="red" fill-opacity="0.3"/></g><g pointer-events="all" display="none" transform="translate(91, 32)"><circle cx="8" cy="8" r="4" stroke="none" fill="red" fill-opacity="0.3"/></g><g pointer-events="all" display="none" transform="translate(91, 52)"><circle cx="8" cy="8" r="4" stroke="none" fill="red" fill-opacity="0.3"/></g><g pointer-events="all" display="none" transform="translate(17, -7)"><circle cx="8" cy="8" r="4" stroke="none" fill="red" fill-opacity="0.3"/></g><g pointer-events="all" display="none" transform="translate(42, -7)"><circle cx="8" cy="8" r="4" stroke="none" fill="red" fill-opacity="0.3"/></g><g pointer-events="all" display="none" transform="translate(67, -7)"><circle cx="8" cy="8" r="4" stroke="none" fill="red" fill-opacity="0.3"/></g><g pointer-events="all" display="none" transform="translate(42, 32)"><circle cx="8" cy="8" r="4" stroke="none" fill="red" fill-opacity="0.3"/></g></g></g></g><g id="_83037A25-F549-42C8-B7CE-18C3B31FE8CC" bpmn2nodeid="_4572FDCB-24B7-436D-A70A-507BEEBA852E"><g class="stencils" transform="translate(450, 160)"><g class="me"><g id="_83037A25-F549-42C8-B7CE-18C3B31FE8CC">        <defs id="_83037A25-F549-42C8-B7CE-18C3B31FE8CC__83037A25-F549-42C8-B7CE-18C3B31FE8CC_4"> 		<radialGradient id="_83037A25-F549-42C8-B7CE-18C3B31FE8CCbackground" cx="10%" cy="10%" r="100%" fx="10%" fy="10%"> 			<stop offset="0%" stop-color="#ffffff" stop-opacity="1" id="_83037A25-F549-42C8-B7CE-18C3B31FE8CC__83037A25-F549-42C8-B7CE-18C3B31FE8CC_5"/> 			<stop id="_83037A25-F549-42C8-B7CE-18C3B31FE8CCfill_el" offset="100%" stop-color="#f0e68c" stop-opacity="1"/> 		</radialGradient> 		<radialGradient id="_83037A25-F549-42C8-B7CE-18C3B31FE8CCborderbackground" cx="10%" cy="10%" r="100%" fx="10%" fy="10%"> 			<stop offset="0%" stop-color="#ffffff" stop-opacity="1" id="_83037A25-F549-42C8-B7CE-18C3B31FE8CC__83037A25-F549-42C8-B7CE-18C3B31FE8CC_6"/> 			<stop id="_83037A25-F549-42C8-B7CE-18C3B31FE8CCfill_border" offset="100%" stop-color="#a67f00" stop-opacity="1" stroke="#a67f00"/> 		</radialGradient> 	</defs> 	     <path d=" M0 20.5  L20.5 0  L40 20.5  L20.5 40  z" id="_83037A25-F549-42C8-B7CE-18C3B31FE8CCbg_frame" fill="url(#_83037A25-F549-42C8-B7CE-18C3B31FE8CCbackground) white" style="stroke-width:1" stroke="#a67f00"/>     <g id="_83037A25-F549-42C8-B7CE-18C3B31FE8CCframe" stroke="#a67f00">       <path id="_83037A25-F549-42C8-B7CE-18C3B31FE8CCframe2" d=" M13.25 12.05  L17.25 12.05  L27.65 28.95  L23.75 28.95  z" style="stroke-width:1" stroke="#a67f00" fill="url(#_83037A25-F549-42C8-B7CE-18C3B31FE8CCborderbackground)"/>       <path id="_83037A25-F549-42C8-B7CE-18C3B31FE8CCframe3" d=" M13.25 28.95  L23.75 12.05  L27.65 12.05  L17.25 28.95  z" style="stroke-width:1" stroke="#a67f00" fill="url(#_83037A25-F549-42C8-B7CE-18C3B31FE8CCborderbackground)"/>     </g> 	 	<text id="_83037A25-F549-42C8-B7CE-18C3B31FE8CCtext_name" x="30.5" y="30.5" oryx:align="left top" stroke-width="0pt" letter-spacing="-0.01px" fill="#000000" text-anchor="start" transform="rotate(0 30.5 30.5)" visibility="inherit" oryx:fontSize="12"/> 	   </g></g><g class="children" style="overflow:hidden"/><g class="edge"/></g><g class="controls"><g class="dockers"/><g class="magnets" transform="translate(450, 160)"><g pointer-events="all" display="none" transform="translate(12.5, 12.5)"><circle cx="8" cy="8" r="4" stroke="none" fill="red" fill-opacity="0.3"/></g></g></g></g><g id="_00345433-C740-4CCF-A822-B11888B35DBC" bpmn2nodeid="_CFB99525-4258-4246-B862-9651086D994B"><g class="stencils" transform="translate(645, 140)"><g class="me"><g pointer-events="fill" oryx:minimumSize="50 40" id="_00345433-C740-4CCF-A822-B11888B35DBC">   	<defs id="_00345433-C740-4CCF-A822-B11888B35DBC__00345433-C740-4CCF-A822-B11888B35DBC_17"> 		<radialGradient id="_00345433-C740-4CCF-A822-B11888B35DBCbackground" cx="10%" cy="10%" r="100%" fx="10%" fy="10%"> 			<stop offset="0%" stop-color="#ffffff" stop-opacity="1" id="_00345433-C740-4CCF-A822-B11888B35DBC__00345433-C740-4CCF-A822-B11888B35DBC_18"/> 			<stop id="_00345433-C740-4CCF-A822-B11888B35DBCfill_el" offset="100%" stop-color="#fafad2" stop-opacity="1"/> 		</radialGradient> 		<radialGradient id="_00345433-C740-4CCF-A822-B11888B35DBCborderbackground" cx="10%" cy="10%" r="100%" fx="10%" fy="10%"> 			<stop offset="0%" stop-color="#ffffff" stop-opacity="1" id="_00345433-C740-4CCF-A822-B11888B35DBC__00345433-C740-4CCF-A822-B11888B35DBC_19"/> 			<stop id="_00345433-C740-4CCF-A822-B11888B35DBCfill_border" offset="100%" stop-color="#000000" stop-opacity="1" stroke="#000000"/> 		</radialGradient> 	</defs> 	 	<rect id="_00345433-C740-4CCF-A822-B11888B35DBCtext_frame" oryx:anchors="bottom top right left" x="1" y="1" width="94" height="79" rx="10" ry="10" stroke="none" stroke-width="0" fill="none"/> 	<rect id="_00345433-C740-4CCF-A822-B11888B35DBCbg_frame" oryx:resize="vertical horizontal" x="0" y="0" width="100" height="80" rx="10" ry="10" stroke="#000000" stroke-width="1" fill="url(#_00345433-C740-4CCF-A822-B11888B35DBCbackground) #ffffcc"/> 		<text font-size="12" id="_00345433-C740-4CCF-A822-B11888B35DBCtext_name" x="50" y="40" oryx:align="middle center" oryx:fittoelem="text_frame" stroke="black" text-anchor="middle" stroke-width="0pt" letter-spacing="-0.01px" fill="#000000" transform="rotate(0 50 40)" visibility="inherit" oryx:fontSize="12"><tspan x="50" y="40" dy="-1" id="ext-gen1128">Asset Service </tspan><tspan x="50" y="40" dy="11" id="ext-gen1127">Inward</tspan></text>     <g id="_00345433-C740-4CCF-A822-B11888B35DBCmanualTask" transform="scale(0.7,0.7) translate(8,8)" display="none">     	<path oryx:anchors="top left" id="_00345433-C740-4CCF-A822-B11888B35DBCframe" style="opacity:1;fill:none;fill-opacity:1;stroke-width:1" d="M0.5,3.751l4.083-3.25c0,0,11.166,0.083,12.083,0.083s-2.417,2.917-1.5,2.917     s11.667,0,12.584,0c1.166,1.708-0.168,3.167-0.834,3.667s0.875,1.917-1,4.417c-0.75,0.25,0.75,1.875-1.333,3.333     c-1.167,0.583,0.583,1.542-1.25,2.833c-1.167,0-20.833,0.083-20.833,0.083l-2-1.333V3.751z" stroke="#000000"/> 		<path id="_00345433-C740-4CCF-A822-B11888B35DBCframe2" oryx:anchors="top left" style="opacity:1;fill:none;stroke-width:2" d="M 13.5 7 L 27 7" stroke="#000000"/> 		<path id="_00345433-C740-4CCF-A822-B11888B35DBCframe3" oryx:anchors="top left" style="opacity:1;fill:none;stroke-width:2" d="M 13.5 11 L 26 11" stroke="#000000"/> 		<path id="_00345433-C740-4CCF-A822-B11888B35DBCframe4" oryx:anchors="top left" style="opacity:1;fill:none;stroke-width:1.5" d="M 14 14.5 L 25 14.5" stroke="#000000"/> 		<path id="_00345433-C740-4CCF-A822-B11888B35DBCframe5" oryx:anchors="top left" style="opacity:1;fill:none;stroke-width:1.5" d="M 8.2 3.1 L 15 3.1" stroke="#000000"/> 	</g> 	 	<g id="_00345433-C740-4CCF-A822-B11888B35DBCbusinessRuleTask" transform="scale(0.7,0.7) translate(8,8)" display="none"> 		<rect id="_00345433-C740-4CCF-A822-B11888B35DBCframe6" oryx:anchors="top left" x="0" y="0" width="22" height="4" style="opacity:1;fill:#B3B1B3;fill-opacity:1;" stroke="#000000"/> 		<rect id="_00345433-C740-4CCF-A822-B11888B35DBCframe7" oryx:anchors="top left" x="0" y="4" style="opacity:1;fill:none;" width="22" height="12" stroke="#000000"/> 		<path id="_00345433-C740-4CCF-A822-B11888B35DBCframe8" oryx:anchors="top left" style="opacity:1;fill:none;" d="M 0 10 L 22 10" stroke="#000000"/> 		<path id="_00345433-C740-4CCF-A822-B11888B35DBCframe9" oryx:anchors="top left" style="opacity:1; fill:none;" d="M 7 4 L 7 16" stroke="#000000"/> 	</g> 	 	<g id="_00345433-C740-4CCF-A822-B11888B35DBCscriptTask" transform="scale(0.7,0.7) translate(8,8)" display="none"> 		<path oryx:anchors="top left" id="_00345433-C740-4CCF-A822-B11888B35DBCframe10" style="opacity:1;fill:none;" stroke="#000000" d="M6.402,0.5h14.5c0,0-5.833,2.833-5.833,5.583s4.417,6,4.417,9.167    s-4.167,5.083-4.167,5.083H0.235c0,0,5-2.667,5-5s-4.583-6.75-4.583-9.25S6.402,0.5,6.402,0.5z"/> 		<path oryx:anchors="top left" id="_00345433-C740-4CCF-A822-B11888B35DBCframe11" style="opacity:1;fill:none;stroke-width:1.5" d="M 3.5 4.5 L 13.5 4.5" stroke="#000000"/> 		<path oryx:anchors="top left" id="_00345433-C740-4CCF-A822-B11888B35DBCframe12" style="opacity:1;fill:none;stroke-width:1.5" d="M 3.8 8.5 L 13.8 8.5" stroke="#000000"/> 		<path oryx:anchors="top left" id="_00345433-C740-4CCF-A822-B11888B35DBCframe13" style="opacity:1;fill:none;stroke-width:1.5" d="M 6.3 12.5 L 16.3 12.5" stroke="#000000"/> 		<path oryx:anchors="top left" id="_00345433-C740-4CCF-A822-B11888B35DBCframe14" style="opacity:1;fill:none;stroke-width:1.5" d="M 6.5 16.5 L 16.5 16.5" stroke="#000000"/> 	</g> 	 	<g id="_00345433-C740-4CCF-A822-B11888B35DBCuserTask" transform="scale(0.7,0.7) translate(8,8)" display="inherit"> 		<path id="_00345433-C740-4CCF-A822-B11888B35DBCframe15" oryx:anchors="top left" style="opacity:1;fill:#F4F6F7" stroke="#000000" d="M0.585,24.167h24.083v-7.833c0,0-2.333-3.917-7.083-5.167h-9.25    c-4.417,1.333-7.833,5.75-7.833,5.75L0.585,24.167z"/> 		<path id="_00345433-C740-4CCF-A822-B11888B35DBCframe16" oryx:anchors="top left" style="opacity:1;fill:none" d="M 6 20 L 6 24" stroke="#000000"/> 		<path id="_00345433-C740-4CCF-A822-B11888B35DBCframe17" oryx:anchors="top left" style="opacity:1;fill:none" d="M 20 20 L 20 24" stroke="#000000"/> 		<circle id="_00345433-C740-4CCF-A822-B11888B35DBCframe18" oryx:anchors="top left" fill="black" cx="13.002" cy="5.916" r="5.417" stroke="#000000"/> 		<path id="_00345433-C740-4CCF-A822-B11888B35DBCframe19" oryx:anchors="top left" style="opacity:1;fill:#F0EFF0;" stroke="#000000" d="M8.043,7.083c0,0,2.814-2.426,5.376-1.807s4.624-0.693,4.624-0.693    c0.25,1.688,0.042,3.75-1.458,5.584c0,0,1.083,0.75,1.083,1.5s0.125,1.875-1,3s-5.5,1.25-6.75,0S8.668,12.834,8.668,12    s0.583-1.25,1.25-1.917C8.835,9.5,7.419,7.708,8.043,7.083z"/> 	</g> 	 	<g id="_00345433-C740-4CCF-A822-B11888B35DBCserviceTask" transform="scale(0.7,0.7) translate(8,8)" display="none"> 		<polygon oryx:anchors="top left" id="_00345433-C740-4CCF-A822-B11888B35DBCframe20" style="opacity:1;fill:#ffffff" stroke="#000000" points="15.392,5.064 17.954,2.502 20.347,4.895 17.786,7.455     18.729,9.732 22.353,9.732 22.353,13.115 18.731,13.115 17.788,15.392 20.351,17.955 17.958,20.347 15.397,17.786 13.12,18.729     13.12,22.353 9.737,22.353 9.737,18.731 7.46,17.788 4.897,20.35 2.506,17.958 5.066,15.397 4.124,13.12 0.5,13.12 0.5,9.737     4.121,9.737 5.065,7.461 2.503,4.898 4.895,2.506 7.455,5.066 9.732,4.125 9.732,0.5 13.116,0.5 13.116,4.121 "/> 		<circle oryx:anchors="top left" id="_00345433-C740-4CCF-A822-B11888B35DBCframe21" style="opacity:1;fill:none" stroke="#000000" cx="11.427" cy="11.426" r="3.714"/> 		<polygon oryx:anchors="top left" id="_00345433-C740-4CCF-A822-B11888B35DBCframe22" style="opacity:1;fill:#ffffff" stroke="#000000" points="21.392,11.064 23.954,8.502 26.347,10.895 23.786,13.455     24.729,15.732 28.353,15.732 28.353,19.115 24.731,19.115 23.788,21.392 26.351,23.955 23.958,26.347 21.397,23.786 19.12,24.729     19.12,28.353 15.737,28.353 15.737,24.731 13.46,23.788 10.897,26.35 8.506,23.958 11.066,21.397 10.124,19.12 6.5,19.12     6.5,15.737 10.121,15.737 11.065,13.461 8.503,10.898 10.895,8.506 13.455,11.066 15.732,10.125 15.732,6.5 19.116,6.5     19.116,10.121 "/> 		<circle oryx:anchors="top left" id="_00345433-C740-4CCF-A822-B11888B35DBCframe23" style="opacity:1;fill:none;" stroke="#000000" cx="17.427" cy="17.426" r="3.714"/> 	</g> 	 	<g id="_00345433-C740-4CCF-A822-B11888B35DBCsendTask" display="none"> 		<path id="_00345433-C740-4CCF-A822-B11888B35DBCstframe24" oryx:anchors="left top" stroke="#FFFFFF" fill="black" stroke-width="1" d="M8,11 L8,21 L24,21 L24,11 L16,17z"/> 		<path id="_00345433-C740-4CCF-A822-B11888B35DBCstframe25" oryx:anchors="left top" stroke="#FFFFFF" fill="black" stroke-width="1" d="M7,10 L16,17 L25 10z"/> 	</g> 	 	<g id="_00345433-C740-4CCF-A822-B11888B35DBCreceiveTask" display="none"> 		<path id="_00345433-C740-4CCF-A822-B11888B35DBCframe26" oryx:anchors="left top" stroke="#000000" fill="none" stroke-width="1" d="M8,11 L8,21 L24,21 L24,11z M8,11 L16,17 L24,11"/> 	</g> 	 	<g id="_00345433-C740-4CCF-A822-B11888B35DBCnone" display="inherit"/>  	<g id="_00345433-C740-4CCF-A822-B11888B35DBCsequential" display="none">         <path oryx:anchors="bottom" fill="none" stroke="#000000" stroke-width="2" d="M46,76h10M46,72h10 M46,68h10" id="_00345433-C740-4CCF-A822-B11888B35DBC__00345433-C740-4CCF-A822-B11888B35DBC_20"/>     </g>   </g></g><g class="children" style="overflow:hidden"/><g class="edge"/></g><g class="controls"><g class="dockers"/><g class="magnets" transform="translate(645, 140)"><g pointer-events="all" display="none" transform="translate(-7, 12)"><circle cx="8" cy="8" r="4" stroke="none" fill="red" fill-opacity="0.3"/></g><g pointer-events="all" display="none" transform="translate(-7, 32)"><circle cx="8" cy="8" r="4" stroke="none" fill="red" fill-opacity="0.3"/></g><g pointer-events="all" display="none" transform="translate(-7, 52)"><circle cx="8" cy="8" r="4" stroke="none" fill="red" fill-opacity="0.3"/></g><g pointer-events="all" display="none" transform="translate(17, 71)"><circle cx="8" cy="8" r="4" stroke="none" fill="red" fill-opacity="0.3"/></g><g pointer-events="all" display="none" transform="translate(42, 71)"><circle cx="8" cy="8" r="4" stroke="none" fill="red" fill-opacity="0.3"/></g><g pointer-events="all" display="none" transform="translate(67, 71)"><circle cx="8" cy="8" r="4" stroke="none" fill="red" fill-opacity="0.3"/></g><g pointer-events="all" display="none" transform="translate(91, 12)"><circle cx="8" cy="8" r="4" stroke="none" fill="red" fill-opacity="0.3"/></g><g pointer-events="all" display="none" transform="translate(91, 32)"><circle cx="8" cy="8" r="4" stroke="none" fill="red" fill-opacity="0.3"/></g><g pointer-events="all" display="none" transform="translate(91, 52)"><circle cx="8" cy="8" r="4" stroke="none" fill="red" fill-opacity="0.3"/></g><g pointer-events="all" display="none" transform="translate(17, -7)"><circle cx="8" cy="8" r="4" stroke="none" fill="red" fill-opacity="0.3"/></g><g pointer-events="all" display="none" transform="translate(42, -7)"><circle cx="8" cy="8" r="4" stroke="none" fill="red" fill-opacity="0.3"/></g><g pointer-events="all" display="none" transform="translate(67, -7)"><circle cx="8" cy="8" r="4" stroke="none" fill="red" fill-opacity="0.3"/></g><g pointer-events="all" display="none" transform="translate(42, 32)"><circle cx="8" cy="8" r="4" stroke="none" fill="red" fill-opacity="0.3"/></g></g></g></g><g id="_CE128922-7919-4C19-8EE9-483313BB083C" bpmn2nodeid="_CBFC161B-320F-482F-B6F5-AE005116DC36"><g class="stencils" transform="translate(795, 291)"><g class="me"><g pointer-events="fill" id="_CE128922-7919-4C19-8EE9-483313BB083C">      <defs id="_CE128922-7919-4C19-8EE9-483313BB083C__CE128922-7919-4C19-8EE9-483313BB083C_5"> 		<radialGradient id="_CE128922-7919-4C19-8EE9-483313BB083Cbackground" cx="10%" cy="10%" r="100%" fx="10%" fy="10%"> 			<stop offset="0%" stop-color="#ffffff" stop-opacity="1" id="_CE128922-7919-4C19-8EE9-483313BB083C__CE128922-7919-4C19-8EE9-483313BB083C_6"/> 			<stop id="_CE128922-7919-4C19-8EE9-483313BB083Cfill_el" offset="100%" stop-color="#ff6347" stop-opacity="1"/> 		</radialGradient> 	</defs> 	     <circle id="_CE128922-7919-4C19-8EE9-483313BB083Cbg_frame" cx="14" cy="14" r="14" stroke="#000000" fill="url(#_CE128922-7919-4C19-8EE9-483313BB083Cbackground) white" stroke-width="3"/> 	<text font-size="11" id="_CE128922-7919-4C19-8EE9-483313BB083Ctext_name" x="14" y="30" oryx:align="top center" stroke="black" stroke-width="0pt" letter-spacing="-0.01px" fill="#000000" text-anchor="middle" transform="rotate(0 14 30)" visibility="inherit" oryx:fontSize="11"/>   </g></g><g class="children" style="overflow:hidden"/><g class="edge"/></g><g class="controls"><g class="dockers"/><g class="magnets" transform="translate(795, 291)"><g pointer-events="all" display="none" transform="translate(6, 6)"><circle cx="8" cy="8" r="4" stroke="none" fill="red" fill-opacity="0.3"/></g></g></g></g><g id="_E404AED3-013D-41D4-A815-B6C57144A195" bpmn2nodeid="_BBD2A2C3-A38C-4514-B0C2-500153F452AC"><g class="stencils" transform="translate(675, 285)"><g class="me"><g id="_E404AED3-013D-41D4-A815-B6C57144A195">        <defs id="_E404AED3-013D-41D4-A815-B6C57144A195__E404AED3-013D-41D4-A815-B6C57144A195_4"> 		<radialGradient id="_E404AED3-013D-41D4-A815-B6C57144A195background" cx="10%" cy="10%" r="100%" fx="10%" fy="10%"> 			<stop offset="0%" stop-color="#ffffff" stop-opacity="1" id="_E404AED3-013D-41D4-A815-B6C57144A195__E404AED3-013D-41D4-A815-B6C57144A195_5"/> 			<stop id="_E404AED3-013D-41D4-A815-B6C57144A195fill_el" offset="100%" stop-color="#f0e68c" stop-opacity="1"/> 		</radialGradient> 		<radialGradient id="_E404AED3-013D-41D4-A815-B6C57144A195borderbackground" cx="10%" cy="10%" r="100%" fx="10%" fy="10%"> 			<stop offset="0%" stop-color="#ffffff" stop-opacity="1" id="_E404AED3-013D-41D4-A815-B6C57144A195__E404AED3-013D-41D4-A815-B6C57144A195_6"/> 			<stop id="_E404AED3-013D-41D4-A815-B6C57144A195fill_border" offset="100%" stop-color="#a67f00" stop-opacity="1" stroke="#a67f00"/> 		</radialGradient> 	</defs> 	     <path d=" M0 20.5  L20.5 0  L40 20.5  L20.5 40  z" id="_E404AED3-013D-41D4-A815-B6C57144A195bg_frame" fill="url(#_E404AED3-013D-41D4-A815-B6C57144A195background) white" style="stroke-width:1" stroke="#a67f00"/>     <g id="_E404AED3-013D-41D4-A815-B6C57144A195frame" stroke="#a67f00">       <path id="_E404AED3-013D-41D4-A815-B6C57144A195frame2" d=" M13.25 12.05  L17.25 12.05  L27.65 28.95  L23.75 28.95  z" style="stroke-width:1" stroke="#a67f00" fill="url(#_E404AED3-013D-41D4-A815-B6C57144A195borderbackground)"/>       <path id="_E404AED3-013D-41D4-A815-B6C57144A195frame3" d=" M13.25 28.95  L23.75 12.05  L27.65 12.05  L17.25 28.95  z" style="stroke-width:1" stroke="#a67f00" fill="url(#_E404AED3-013D-41D4-A815-B6C57144A195borderbackground)"/>     </g> 	 	<text id="_E404AED3-013D-41D4-A815-B6C57144A195text_name" x="30.5" y="30.5" oryx:align="left top" stroke-width="0pt" letter-spacing="-0.01px" fill="#000000" text-anchor="start" transform="rotate(0 30.5 30.5)" visibility="inherit" oryx:fontSize="12"/> 	   </g></g><g class="children" style="overflow:hidden"/><g class="edge"/></g><g class="controls"><g class="dockers"/><g class="magnets" transform="translate(675, 285)"><g pointer-events="all" display="none" transform="translate(12.5, 12.5)"><circle cx="8" cy="8" r="4" stroke="none" fill="red" fill-opacity="0.3"/></g></g></g></g></g><g class="edge"><g id="_9CCD9A8C-563E-4377-83CC-C5C23E9849A9" bpmn2nodeid="_47E0CD74-EA15-4F67-A1C8-EC151953F4FC"><g class="stencils"><g class="me"><g pointer-events="painted" bpmn2nodeid="_DD8A9321-38A0-4158-8871-2D7A761F9F18"><path id="_9CCD9A8C-563E-4377-83CC-C5C23E9849A9_1" d="M150.609375 180L254.859375 180 " stroke="#000000" fill="none" stroke-width="2" stroke-linecap="round" stroke-linejoin="round" marker-start="url(#_9CCD9A8C-563E-4377-83CC-C5C23E9849A9start)" marker-end="url(#_9CCD9A8C-563E-4377-83CC-C5C23E9849A9end)"/></g><text id="_9CCD9A8C-563E-4377-83CC-C5C23E9849A9text_name" font-size="12" x="164.609375" y="166" oryx:edgePosition="startTop" stroke-width="0pt" letter-spacing="-0.01px" fill="#000000" text-anchor="start" transform="rotate(360 150.609375 180)" visibility="inherit" oryx:fontSize="12"/></g><g class="children" style="overflow:hidden"/><g class="edge"/></g><g class="controls"><g class="dockers"/><g class="magnets"/></g></g><g id="_E34914D1-15B5-452F-AA8B-B8A8D605DF5F" bpmn2nodeid="_56478F1A-7511-4159-8766-3D3AC5BC7D02"><g class="stencils"><g class="me"><g pointer-events="painted" bpmn2nodeid="_9E536A27-DAB6-4EA2-BE6D-73568BCA7613"><path id="_E34914D1-15B5-452F-AA8B-B8A8D605DF5F_1" d="M355.62890625 180L449.6640625 180 " stroke="#000000" fill="none" stroke-width="2" stroke-linecap="round" stroke-linejoin="round" marker-start="url(#_E34914D1-15B5-452F-AA8B-B8A8D605DF5Fstart)" marker-end="url(#_E34914D1-15B5-452F-AA8B-B8A8D605DF5Fend)"/></g><text id="_E34914D1-15B5-452F-AA8B-B8A8D605DF5Ftext_name" font-size="12" x="369.62890625" y="166" oryx:edgePosition="startTop" stroke-width="0pt" letter-spacing="-0.01px" fill="#000000" text-anchor="start" transform="rotate(360 355.62890625 180)" visibility="inherit" oryx:fontSize="12"/></g><g class="children" style="overflow:hidden"/><g class="edge"/></g><g class="controls"><g class="dockers"/><g class="magnets"/></g></g><g id="_CCD9E9BA-8797-4B3B-AC35-1C79B5CB3DA1" bpmn2nodeid="_309FFC99-3DFA-4B43-839A-D393262D45CF"><g class="stencils"><g class="me"><g pointer-events="painted" bpmn2nodeid="_CC28E2B1-3724-4A23-870C-09B1C2444D91"><path id="_CCD9E9BA-8797-4B3B-AC35-1C79B5CB3DA1_1" d="M490.3359375 180L644.78125 180 " stroke="#000000" fill="none" stroke-width="2" stroke-linecap="round" stroke-linejoin="round" marker-start="url(#_CCD9E9BA-8797-4B3B-AC35-1C79B5CB3DA1start)" marker-end="url(#_CCD9E9BA-8797-4B3B-AC35-1C79B5CB3DA1end)"/></g><text id="_CCD9E9BA-8797-4B3B-AC35-1C79B5CB3DA1text_name" font-size="12" x="504.3359375" y="166" oryx:edgePosition="startTop" stroke-width="0pt" letter-spacing="-0.01px" fill="#000000" text-anchor="start" transform="rotate(360 490.3359375 180)" visibility="inherit" oryx:fontSize="12"><tspan x="504.3359375" y="166" dy="0" id="ext-gen605">Outward Approved</tspan></text></g><g class="children" style="overflow:hidden"/><g class="edge"/></g><g class="controls"><g class="dockers"/><g class="magnets"/></g></g><g id="_212D9734-C37A-4E2F-885A-21F6C36CFE22" bpmn2nodeid="_8907285B-91AE-4941-88F6-5AA5827B032D"><g class="stencils"><g class="me"><g pointer-events="painted" bpmn2nodeid="_5F28E172-87F5-4F0D-9773-C10355CB4CA9"><path id="_212D9734-C37A-4E2F-885A-21F6C36CFE22_1" d="M714.703125 305L794.640625 305 " stroke="#000000" fill="none" stroke-width="2" stroke-linecap="round" stroke-linejoin="round" marker-start="url(#_212D9734-C37A-4E2F-885A-21F6C36CFE22start)" marker-end="url(#_212D9734-C37A-4E2F-885A-21F6C36CFE22end)"/></g><text id="_212D9734-C37A-4E2F-885A-21F6C36CFE22text_name" font-size="12" x="728.703125" y="291" oryx:edgePosition="startTop" stroke-width="0pt" letter-spacing="-0.01px" fill="#000000" text-anchor="start" transform="rotate(360 714.703125 305)" visibility="inherit" oryx:fontSize="12"/></g><g class="children" style="overflow:hidden"/><g class="edge"/></g><g class="controls"><g class="dockers"/><g class="magnets"/></g></g><g id="_8C0DAC72-A7B4-4571-AB8E-095B448608EC" bpmn2nodeid="_8D2E7FB3-395A-4360-BB01-932B7319C59B"><g class="stencils"><g class="me"><g pointer-events="painted" bpmn2nodeid="_9A2A96FF-F023-49F0-B704-20C7EC4199C0"><path id="_8C0DAC72-A7B4-4571-AB8E-095B448608EC_1" d="M695 220.0625L695 285.4453125 " stroke="#000000" fill="none" stroke-width="2" stroke-linecap="round" stroke-linejoin="round" marker-start="url(#_8C0DAC72-A7B4-4571-AB8E-095B448608ECstart)" marker-end="url(#_8C0DAC72-A7B4-4571-AB8E-095B448608ECend)"/></g><text id="_8C0DAC72-A7B4-4571-AB8E-095B448608ECtext_name" font-size="12" x="681" y="206.0625" oryx:edgePosition="startTop" stroke-width="0pt" letter-spacing="-0.01px" fill="#000000" text-anchor="end" transform="rotate(-90 695 220.0625)" visibility="inherit" oryx:fontSize="12"/></g><g class="children" style="overflow:hidden"/><g class="edge"/></g><g class="controls"><g class="dockers"/><g class="magnets"/></g></g><g id="_F2C689B0-368F-42C5-AFE5-6BFC84E8A7EF" bpmn2nodeid="_B37EEC13-1034-4029-A2BB-A7420999EE1C"><g class="stencils"><g class="me"><g pointer-events="painted" bpmn2nodeid="_A444C42F-907E-4D2F-AE25-4D768DBABD97"><path id="_F2C689B0-368F-42C5-AFE5-6BFC84E8A7EF_1" d="M470 199.5546875L470 305 L674.6640625 305 " stroke="#000000" fill="none" stroke-width="2" stroke-linecap="round" stroke-linejoin="round" marker-start="url(#_F2C689B0-368F-42C5-AFE5-6BFC84E8A7EFstart)" marker-end="url(#_F2C689B0-368F-42C5-AFE5-6BFC84E8A7EFend)"/></g><text id="_F2C689B0-368F-42C5-AFE5-6BFC84E8A7EFtext_name" font-size="12" x="456" y="185.5546875" oryx:edgePosition="startTop" stroke-width="0pt" letter-spacing="-0.01px" fill="#000000" text-anchor="end" transform="rotate(-90 470 199.5546875)" visibility="inherit" oryx:fontSize="12"><tspan x="456" y="185.5546875" dy="0" id="ext-gen801">Outward Rejected</tspan></text></g><g class="children" style="overflow:hidden"/><g class="edge"/></g><g class="controls"><g class="dockers"/><g class="magnets"/></g></g></g><text id="_8FBD4CDD-A6FB-4D8B-813E-4A65C47E3474" style="stroke-width:1;fill:rgb(177,194,214);font-family:arial;font-weight:bold" font-size="12" onclick="ORYX.Plugins.CanvasTitle.openTextualAnalysis()" onmouseover="ORYX.Plugins.CanvasTitle.addToolTip('_8FBD4CDD-A6FB-4D8B-813E-4A65C47E3474')" transform="translate(10, 20)">asset-service-process v.1.0 (procurement.asset-service-process)</text></g></g></svg>