<svg xmlns="http://www.w3.org/2000/svg" xmlns:oryx="http://oryx-editor.org" id="_33B7375E-CC99-4652-A1E5-BA5AF182B134" width="738" height="301" xmlns:xlink="http://www.w3.org/1999/xlink" xmlns:svg="http://www.w3.org/2000/svg"><defs><marker id="_47869C26-38F5-449D-9F0C-3E72563F5908start" refX="1" refY="5" markerUnits="userSpaceOnUse" markerWidth="17" markerHeight="11" orient="auto" fill="#000000" stroke="#000000"> 	  		<path id="_47869C26-38F5-449D-9F0C-3E72563F5908conditional" d="M 0 5 L 8 0 L 16 5 L 8 10 L 0 5" fill="white" stroke="#000000" stroke-width="1" display="none"/> 			<path id="_47869C26-38F5-449D-9F0C-3E72563F5908default" d="M 5 0 L 11 10" fill="white" stroke="#000000" stroke-width="1" display="none"/> 	  	</marker><marker id="_47869C26-38F5-449D-9F0C-3E72563F5908end" refX="15" refY="6" markerUnits="userSpaceOnUse" markerWidth="15" markerHeight="12" orient="auto" fill="#000000" stroke="#000000"> 	  		<path id="_47869C26-38F5-449D-9F0C-3E72563F5908frame2" d="M 0 1 L 15 6 L 0 11z" fill="#000000" stroke="#000000" stroke-linejoin="round" stroke-width="2"/> 	  	</marker><marker id="_DBE00767-3578-4F25-8748-7A46FD825075start" refX="1" refY="5" markerUnits="userSpaceOnUse" markerWidth="17" markerHeight="11" orient="auto" fill="#000000" stroke="#000000"> 	  		<path id="_DBE00767-3578-4F25-8748-7A46FD825075conditional" d="M 0 5 L 8 0 L 16 5 L 8 10 L 0 5" fill="white" stroke="#000000" stroke-width="1" display="none"/> 			<path id="_DBE00767-3578-4F25-8748-7A46FD825075default" d="M 5 0 L 11 10" fill="white" stroke="#000000" stroke-width="1" display="none"/> 	  	</marker><marker id="_DBE00767-3578-4F25-8748-7A46FD825075end" refX="15" refY="6" markerUnits="userSpaceOnUse" markerWidth="15" markerHeight="12" orient="auto" fill="#000000" stroke="#000000"> 	  		<path id="_DBE00767-3578-4F25-8748-7A46FD825075frame2" d="M 0 1 L 15 6 L 0 11z" fill="#000000" stroke="#000000" stroke-linejoin="round" stroke-width="2"/> 	  	</marker><marker id="_281C341A-E3DD-4FE7-8C93-4C03AA7DBD44start" refX="1" refY="5" markerUnits="userSpaceOnUse" markerWidth="17" markerHeight="11" orient="auto" fill="#000000" stroke="#000000"> 	  		<path id="_281C341A-E3DD-4FE7-8C93-4C03AA7DBD44conditional" d="M 0 5 L 8 0 L 16 5 L 8 10 L 0 5" fill="white" stroke="#000000" stroke-width="1" display="none"/> 			<path id="_281C341A-E3DD-4FE7-8C93-4C03AA7DBD44default" d="M 5 0 L 11 10" fill="white" stroke="#000000" stroke-width="1" display="none"/> 	  	</marker><marker id="_281C341A-E3DD-4FE7-8C93-4C03AA7DBD44end" refX="15" refY="6" markerUnits="userSpaceOnUse" markerWidth="15" markerHeight="12" orient="auto" fill="#000000" stroke="#000000"> 	  		<path id="_281C341A-E3DD-4FE7-8C93-4C03AA7DBD44frame2" d="M 0 1 L 15 6 L 0 11z" fill="#000000" stroke="#000000" stroke-linejoin="round" stroke-width="2"/> 	  	</marker><marker id="_E773ECDE-010E-4F63-B048-074904C30741start" refX="1" refY="5" markerUnits="userSpaceOnUse" markerWidth="17" markerHeight="11" orient="auto" fill="#000000" stroke="#000000"> 	  		<path id="_E773ECDE-010E-4F63-B048-074904C30741conditional" d="M 0 5 L 8 0 L 16 5 L 8 10 L 0 5" fill="white" stroke="#000000" stroke-width="1" display="none"/> 			<path id="_E773ECDE-010E-4F63-B048-074904C30741default" d="M 5 0 L 11 10" fill="white" stroke="#000000" stroke-width="1" display="none"/> 	  	</marker><marker id="_E773ECDE-010E-4F63-B048-074904C30741end" refX="15" refY="6" markerUnits="userSpaceOnUse" markerWidth="15" markerHeight="12" orient="auto" fill="#000000" stroke="#000000"> 	  		<path id="_E773ECDE-010E-4F63-B048-074904C30741frame2" d="M 0 1 L 15 6 L 0 11z" fill="#000000" stroke="#000000" stroke-linejoin="round" stroke-width="2"/> 	  	</marker><marker id="_42197A90-EEB2-45F0-A83F-B51FF7750EA2start" refX="1" refY="5" markerUnits="userSpaceOnUse" markerWidth="17" markerHeight="11" orient="auto" fill="#000000" stroke="#000000"> 	  		<path id="_42197A90-EEB2-45F0-A83F-B51FF7750EA2conditional" d="M 0 5 L 8 0 L 16 5 L 8 10 L 0 5" fill="white" stroke="#000000" stroke-width="1" display="none"/> 			<path id="_42197A90-EEB2-45F0-A83F-B51FF7750EA2default" d="M 5 0 L 11 10" fill="white" stroke="#000000" stroke-width="1" display="none"/> 	  	</marker><marker id="_42197A90-EEB2-45F0-A83F-B51FF7750EA2end" refX="15" refY="6" markerUnits="userSpaceOnUse" markerWidth="15" markerHeight="12" orient="auto" fill="#000000" stroke="#000000"> 	  		<path id="_42197A90-EEB2-45F0-A83F-B51FF7750EA2frame2" d="M 0 1 L 15 6 L 0 11z" fill="#000000" stroke="#000000" stroke-linejoin="round" stroke-width="2"/> 	  	</marker></defs><g stroke="none" font-family="Verdana, sans-serif" font-size-adjust="none" font-style="normal" font-variant="normal" font-weight="normal" line-heigth="normal" font-size="12"><g class="stencils" transform="translate(15, 16)"><g class="me"/><g class="children"><g id="_D7B5E59E-820C-4072-A043-7DF9739735C4" bpmn2nodeid="processStartEvent"><g class="stencils" transform="translate(120, 205)"><g class="me"><g pointer-events="fill" id="_D7B5E59E-820C-4072-A043-7DF9739735C4">        <defs id="_D7B5E59E-820C-4072-A043-7DF9739735C4__D7B5E59E-820C-4072-A043-7DF9739735C4_5"> 		<radialGradient id="_D7B5E59E-820C-4072-A043-7DF9739735C4background" cx="10%" cy="10%" r="100%" fx="10%" fy="10%"> 			<stop offset="0%" stop-color="#ffffff" stop-opacity="1" id="_D7B5E59E-820C-4072-A043-7DF9739735C4__D7B5E59E-820C-4072-A043-7DF9739735C4_6"/> 			<stop id="_D7B5E59E-820C-4072-A043-7DF9739735C4fill_el" offset="100%" stop-color="#9acd32" stop-opacity="1"/> 		</radialGradient> 	</defs> 	     <circle id="_D7B5E59E-820C-4072-A043-7DF9739735C4bg_frame" cx="15" cy="15" r="15" stroke="#000000" fill="url(#_D7B5E59E-820C-4072-A043-7DF9739735C4background) white" stroke-width="1" style="stroke-dasharray: 5.5, 3"/>      <circle id="_D7B5E59E-820C-4072-A043-7DF9739735C4frame" cx="15" cy="15" r="15" stroke="#000000" fill="none" stroke-width="1" display="inherit"/>  	<text font-size="11" id="_D7B5E59E-820C-4072-A043-7DF9739735C4text_name" x="15" y="32" oryx:align="top center" stroke="black" stroke-width="0pt" letter-spacing="-0.01px" fill="#000000" text-anchor="middle" transform="rotate(0 15 32)" visibility="inherit" oryx:fontSize="11"/>   </g></g><g class="children" style="overflow:hidden"/><g class="edge"/></g><g class="controls"><g class="dockers"/><g class="magnets" transform="translate(120, 205)"><g pointer-events="all" display="none" transform="translate(7, 7)"><circle cx="8" cy="8" r="4" stroke="none" fill="red" fill-opacity="0.3"/></g></g></g></g><g id="_03D853BB-62D0-4408-A218-7702DA7F0B82" bpmn2nodeid="_EB416D90-DC06-40D3-89D5-E31126554895"><g class="stencils" transform="translate(210, 180)"><g class="me"><g pointer-events="fill" oryx:minimumSize="50 40" id="_03D853BB-62D0-4408-A218-7702DA7F0B82">   	<defs id="_03D853BB-62D0-4408-A218-7702DA7F0B82__03D853BB-62D0-4408-A218-7702DA7F0B82_17"> 		<radialGradient id="_03D853BB-62D0-4408-A218-7702DA7F0B82background" cx="10%" cy="10%" r="100%" fx="10%" fy="10%"> 			<stop offset="0%" stop-color="#ffffff" stop-opacity="1" id="_03D853BB-62D0-4408-A218-7702DA7F0B82__03D853BB-62D0-4408-A218-7702DA7F0B82_18"/> 			<stop id="_03D853BB-62D0-4408-A218-7702DA7F0B82fill_el" offset="100%" stop-color="#fafad2" stop-opacity="1"/> 		</radialGradient> 		<radialGradient id="_03D853BB-62D0-4408-A218-7702DA7F0B82borderbackground" cx="10%" cy="10%" r="100%" fx="10%" fy="10%"> 			<stop offset="0%" stop-color="#ffffff" stop-opacity="1" id="_03D853BB-62D0-4408-A218-7702DA7F0B82__03D853BB-62D0-4408-A218-7702DA7F0B82_19"/> 			<stop id="_03D853BB-62D0-4408-A218-7702DA7F0B82fill_border" offset="100%" stop-color="#000000" stop-opacity="1" stroke="#000000"/> 		</radialGradient> 	</defs> 	 	<rect id="_03D853BB-62D0-4408-A218-7702DA7F0B82text_frame" oryx:anchors="bottom top right left" x="1" y="1" width="94" height="79" rx="10" ry="10" stroke="none" stroke-width="0" fill="none"/> 	<rect id="_03D853BB-62D0-4408-A218-7702DA7F0B82bg_frame" oryx:resize="vertical horizontal" x="0" y="0" width="100" height="80" rx="10" ry="10" stroke="#000000" stroke-width="1" fill="url(#_03D853BB-62D0-4408-A218-7702DA7F0B82background) #ffffcc"/> 		<text font-size="12" id="_03D853BB-62D0-4408-A218-7702DA7F0B82text_name" x="50" y="40" oryx:align="middle center" oryx:fittoelem="text_frame" stroke="black" text-anchor="middle" stroke-width="0pt" letter-spacing="-0.01px" fill="#000000" transform="rotate(0 50 40)" visibility="inherit" oryx:fontSize="12"><tspan x="50" y="40" dy="5">New PR</tspan></text>     <g id="_03D853BB-62D0-4408-A218-7702DA7F0B82manualTask" transform="scale(0.7,0.7) translate(8,8)" display="none">     	<path oryx:anchors="top left" id="_03D853BB-62D0-4408-A218-7702DA7F0B82frame" style="opacity:1;fill:none;fill-opacity:1;stroke-width:1" d="M0.5,3.751l4.083-3.25c0,0,11.166,0.083,12.083,0.083s-2.417,2.917-1.5,2.917     s11.667,0,12.584,0c1.166,1.708-0.168,3.167-0.834,3.667s0.875,1.917-1,4.417c-0.75,0.25,0.75,1.875-1.333,3.333     c-1.167,0.583,0.583,1.542-1.25,2.833c-1.167,0-20.833,0.083-20.833,0.083l-2-1.333V3.751z" stroke="#000000"/> 		<path id="_03D853BB-62D0-4408-A218-7702DA7F0B82frame2" oryx:anchors="top left" style="opacity:1;fill:none;stroke-width:2" d="M 13.5 7 L 27 7" stroke="#000000"/> 		<path id="_03D853BB-62D0-4408-A218-7702DA7F0B82frame3" oryx:anchors="top left" style="opacity:1;fill:none;stroke-width:2" d="M 13.5 11 L 26 11" stroke="#000000"/> 		<path id="_03D853BB-62D0-4408-A218-7702DA7F0B82frame4" oryx:anchors="top left" style="opacity:1;fill:none;stroke-width:1.5" d="M 14 14.5 L 25 14.5" stroke="#000000"/> 		<path id="_03D853BB-62D0-4408-A218-7702DA7F0B82frame5" oryx:anchors="top left" style="opacity:1;fill:none;stroke-width:1.5" d="M 8.2 3.1 L 15 3.1" stroke="#000000"/> 	</g> 	 	<g id="_03D853BB-62D0-4408-A218-7702DA7F0B82businessRuleTask" transform="scale(0.7,0.7) translate(8,8)" display="none"> 		<rect id="_03D853BB-62D0-4408-A218-7702DA7F0B82frame6" oryx:anchors="top left" x="0" y="0" width="22" height="4" style="opacity:1;fill:#B3B1B3;fill-opacity:1;" stroke="#000000"/> 		<rect id="_03D853BB-62D0-4408-A218-7702DA7F0B82frame7" oryx:anchors="top left" x="0" y="4" style="opacity:1;fill:none;" width="22" height="12" stroke="#000000"/> 		<path id="_03D853BB-62D0-4408-A218-7702DA7F0B82frame8" oryx:anchors="top left" style="opacity:1;fill:none;" d="M 0 10 L 22 10" stroke="#000000"/> 		<path id="_03D853BB-62D0-4408-A218-7702DA7F0B82frame9" oryx:anchors="top left" style="opacity:1; fill:none;" d="M 7 4 L 7 16" stroke="#000000"/> 	</g> 	 	<g id="_03D853BB-62D0-4408-A218-7702DA7F0B82scriptTask" transform="scale(0.7,0.7) translate(8,8)" display="none"> 		<path oryx:anchors="top left" id="_03D853BB-62D0-4408-A218-7702DA7F0B82frame10" style="opacity:1;fill:none;" stroke="#000000" d="M6.402,0.5h14.5c0,0-5.833,2.833-5.833,5.583s4.417,6,4.417,9.167    s-4.167,5.083-4.167,5.083H0.235c0,0,5-2.667,5-5s-4.583-6.75-4.583-9.25S6.402,0.5,6.402,0.5z"/> 		<path oryx:anchors="top left" id="_03D853BB-62D0-4408-A218-7702DA7F0B82frame11" style="opacity:1;fill:none;stroke-width:1.5" d="M 3.5 4.5 L 13.5 4.5" stroke="#000000"/> 		<path oryx:anchors="top left" id="_03D853BB-62D0-4408-A218-7702DA7F0B82frame12" style="opacity:1;fill:none;stroke-width:1.5" d="M 3.8 8.5 L 13.8 8.5" stroke="#000000"/> 		<path oryx:anchors="top left" id="_03D853BB-62D0-4408-A218-7702DA7F0B82frame13" style="opacity:1;fill:none;stroke-width:1.5" d="M 6.3 12.5 L 16.3 12.5" stroke="#000000"/> 		<path oryx:anchors="top left" id="_03D853BB-62D0-4408-A218-7702DA7F0B82frame14" style="opacity:1;fill:none;stroke-width:1.5" d="M 6.5 16.5 L 16.5 16.5" stroke="#000000"/> 	</g> 	 	<g id="_03D853BB-62D0-4408-A218-7702DA7F0B82userTask" transform="scale(0.7,0.7) translate(8,8)" display="inherit"> 		<path id="_03D853BB-62D0-4408-A218-7702DA7F0B82frame15" oryx:anchors="top left" style="opacity:1;fill:#F4F6F7" stroke="#000000" d="M0.585,24.167h24.083v-7.833c0,0-2.333-3.917-7.083-5.167h-9.25    c-4.417,1.333-7.833,5.75-7.833,5.75L0.585,24.167z"/> 		<path id="_03D853BB-62D0-4408-A218-7702DA7F0B82frame16" oryx:anchors="top left" style="opacity:1;fill:none" d="M 6 20 L 6 24" stroke="#000000"/> 		<path id="_03D853BB-62D0-4408-A218-7702DA7F0B82frame17" oryx:anchors="top left" style="opacity:1;fill:none" d="M 20 20 L 20 24" stroke="#000000"/> 		<circle id="_03D853BB-62D0-4408-A218-7702DA7F0B82frame18" oryx:anchors="top left" fill="black" cx="13.002" cy="5.916" r="5.417" stroke="#000000"/> 		<path id="_03D853BB-62D0-4408-A218-7702DA7F0B82frame19" oryx:anchors="top left" style="opacity:1;fill:#F0EFF0;" stroke="#000000" d="M8.043,7.083c0,0,2.814-2.426,5.376-1.807s4.624-0.693,4.624-0.693    c0.25,1.688,0.042,3.75-1.458,5.584c0,0,1.083,0.75,1.083,1.5s0.125,1.875-1,3s-5.5,1.25-6.75,0S8.668,12.834,8.668,12    s0.583-1.25,1.25-1.917C8.835,9.5,7.419,7.708,8.043,7.083z"/> 	</g> 	 	<g id="_03D853BB-62D0-4408-A218-7702DA7F0B82serviceTask" transform="scale(0.7,0.7) translate(8,8)" display="none"> 		<polygon oryx:anchors="top left" id="_03D853BB-62D0-4408-A218-7702DA7F0B82frame20" style="opacity:1;fill:#ffffff" stroke="#000000" points="15.392,5.064 17.954,2.502 20.347,4.895 17.786,7.455     18.729,9.732 22.353,9.732 22.353,13.115 18.731,13.115 17.788,15.392 20.351,17.955 17.958,20.347 15.397,17.786 13.12,18.729     13.12,22.353 9.737,22.353 9.737,18.731 7.46,17.788 4.897,20.35 2.506,17.958 5.066,15.397 4.124,13.12 0.5,13.12 0.5,9.737     4.121,9.737 5.065,7.461 2.503,4.898 4.895,2.506 7.455,5.066 9.732,4.125 9.732,0.5 13.116,0.5 13.116,4.121 "/> 		<circle oryx:anchors="top left" id="_03D853BB-62D0-4408-A218-7702DA7F0B82frame21" style="opacity:1;fill:none" stroke="#000000" cx="11.427" cy="11.426" r="3.714"/> 		<polygon oryx:anchors="top left" id="_03D853BB-62D0-4408-A218-7702DA7F0B82frame22" style="opacity:1;fill:#ffffff" stroke="#000000" points="21.392,11.064 23.954,8.502 26.347,10.895 23.786,13.455     24.729,15.732 28.353,15.732 28.353,19.115 24.731,19.115 23.788,21.392 26.351,23.955 23.958,26.347 21.397,23.786 19.12,24.729     19.12,28.353 15.737,28.353 15.737,24.731 13.46,23.788 10.897,26.35 8.506,23.958 11.066,21.397 10.124,19.12 6.5,19.12     6.5,15.737 10.121,15.737 11.065,13.461 8.503,10.898 10.895,8.506 13.455,11.066 15.732,10.125 15.732,6.5 19.116,6.5     19.116,10.121 "/> 		<circle oryx:anchors="top left" id="_03D853BB-62D0-4408-A218-7702DA7F0B82frame23" style="opacity:1;fill:none;" stroke="#000000" cx="17.427" cy="17.426" r="3.714"/> 	</g> 	 	<g id="_03D853BB-62D0-4408-A218-7702DA7F0B82sendTask" display="none"> 		<path id="_03D853BB-62D0-4408-A218-7702DA7F0B82stframe24" oryx:anchors="left top" stroke="#FFFFFF" fill="black" stroke-width="1" d="M8,11 L8,21 L24,21 L24,11 L16,17z"/> 		<path id="_03D853BB-62D0-4408-A218-7702DA7F0B82stframe25" oryx:anchors="left top" stroke="#FFFFFF" fill="black" stroke-width="1" d="M7,10 L16,17 L25 10z"/> 	</g> 	 	<g id="_03D853BB-62D0-4408-A218-7702DA7F0B82receiveTask" display="none"> 		<path id="_03D853BB-62D0-4408-A218-7702DA7F0B82frame26" oryx:anchors="left top" stroke="#000000" fill="none" stroke-width="1" d="M8,11 L8,21 L24,21 L24,11z M8,11 L16,17 L24,11"/> 	</g> 	 	<g id="_03D853BB-62D0-4408-A218-7702DA7F0B82none" display="none"/>  	<g id="_03D853BB-62D0-4408-A218-7702DA7F0B82sequential" display="none">         <path oryx:anchors="bottom" fill="none" stroke="#000000" stroke-width="2" d="M46,76h10M46,72h10 M46,68h10" id="_03D853BB-62D0-4408-A218-7702DA7F0B82__03D853BB-62D0-4408-A218-7702DA7F0B82_20"/>     </g>   </g></g><g class="children" style="overflow:hidden"/><g class="edge"/></g><g class="controls"><g class="dockers"/><g class="magnets" transform="translate(210, 180)"><g pointer-events="all" display="none" transform="translate(-7, 12)"><circle cx="8" cy="8" r="4" stroke="none" fill="red" fill-opacity="0.3"/></g><g pointer-events="all" display="none" transform="translate(-7, 32)"><circle cx="8" cy="8" r="4" stroke="none" fill="red" fill-opacity="0.3"/></g><g pointer-events="all" display="none" transform="translate(-7, 52)"><circle cx="8" cy="8" r="4" stroke="none" fill="red" fill-opacity="0.3"/></g><g pointer-events="all" display="none" transform="translate(17, 71)"><circle cx="8" cy="8" r="4" stroke="none" fill="red" fill-opacity="0.3"/></g><g pointer-events="all" display="none" transform="translate(42, 71)"><circle cx="8" cy="8" r="4" stroke="none" fill="red" fill-opacity="0.3"/></g><g pointer-events="all" display="none" transform="translate(67, 71)"><circle cx="8" cy="8" r="4" stroke="none" fill="red" fill-opacity="0.3"/></g><g pointer-events="all" display="none" transform="translate(91, 12)"><circle cx="8" cy="8" r="4" stroke="none" fill="red" fill-opacity="0.3"/></g><g pointer-events="all" display="none" transform="translate(91, 32)"><circle cx="8" cy="8" r="4" stroke="none" fill="red" fill-opacity="0.3"/></g><g pointer-events="all" display="none" transform="translate(91, 52)"><circle cx="8" cy="8" r="4" stroke="none" fill="red" fill-opacity="0.3"/></g><g pointer-events="all" display="none" transform="translate(17, -7)"><circle cx="8" cy="8" r="4" stroke="none" fill="red" fill-opacity="0.3"/></g><g pointer-events="all" display="none" transform="translate(42, -7)"><circle cx="8" cy="8" r="4" stroke="none" fill="red" fill-opacity="0.3"/></g><g pointer-events="all" display="none" transform="translate(67, -7)"><circle cx="8" cy="8" r="4" stroke="none" fill="red" fill-opacity="0.3"/></g><g pointer-events="all" display="none" transform="translate(42, 32)"><circle cx="8" cy="8" r="4" stroke="none" fill="red" fill-opacity="0.3"/></g></g></g></g><g id="_E492C38A-2364-4888-89FD-CB82E05CD9AF" bpmn2nodeid="_3D61B10E-B2B2-4202-8337-41E703A913B9"><g class="stencils" transform="translate(355, 200)"><g class="me"><g id="_E492C38A-2364-4888-89FD-CB82E05CD9AF">        <defs id="_E492C38A-2364-4888-89FD-CB82E05CD9AF__E492C38A-2364-4888-89FD-CB82E05CD9AF_4"> 		<radialGradient id="_E492C38A-2364-4888-89FD-CB82E05CD9AFbackground" cx="10%" cy="10%" r="100%" fx="10%" fy="10%"> 			<stop offset="0%" stop-color="#ffffff" stop-opacity="1" id="_E492C38A-2364-4888-89FD-CB82E05CD9AF__E492C38A-2364-4888-89FD-CB82E05CD9AF_5"/> 			<stop id="_E492C38A-2364-4888-89FD-CB82E05CD9AFfill_el" offset="100%" stop-color="#f0e68c" stop-opacity="1"/> 		</radialGradient> 		<radialGradient id="_E492C38A-2364-4888-89FD-CB82E05CD9AFborderbackground" cx="10%" cy="10%" r="100%" fx="10%" fy="10%"> 			<stop offset="0%" stop-color="#ffffff" stop-opacity="1" id="_E492C38A-2364-4888-89FD-CB82E05CD9AF__E492C38A-2364-4888-89FD-CB82E05CD9AF_6"/> 			<stop id="_E492C38A-2364-4888-89FD-CB82E05CD9AFfill_border" offset="100%" stop-color="#a67f00" stop-opacity="1" stroke="#a67f00"/> 		</radialGradient> 	</defs> 	     <path d=" M0 20.5  L20.5 0  L40 20.5  L20.5 40  z" id="_E492C38A-2364-4888-89FD-CB82E05CD9AFbg_frame" fill="url(#_E492C38A-2364-4888-89FD-CB82E05CD9AFbackground) white" style="stroke-width:1" stroke="#a67f00"/>     <g id="_E492C38A-2364-4888-89FD-CB82E05CD9AFframe" stroke="#a67f00">       <path id="_E492C38A-2364-4888-89FD-CB82E05CD9AFframe2" d=" M13.25 12.05  L17.25 12.05  L27.65 28.95  L23.75 28.95  z" style="stroke-width:1" stroke="#a67f00" fill="url(#_E492C38A-2364-4888-89FD-CB82E05CD9AFborderbackground)"/>       <path id="_E492C38A-2364-4888-89FD-CB82E05CD9AFframe3" d=" M13.25 28.95  L23.75 12.05  L27.65 12.05  L17.25 28.95  z" style="stroke-width:1" stroke="#a67f00" fill="url(#_E492C38A-2364-4888-89FD-CB82E05CD9AFborderbackground)"/>     </g> 	 	<text id="_E492C38A-2364-4888-89FD-CB82E05CD9AFtext_name" x="30.5" y="30.5" oryx:align="left top" stroke-width="0pt" letter-spacing="-0.01px" fill="#000000" text-anchor="start" transform="rotate(0 30.5 30.5)" visibility="inherit" oryx:fontSize="12"/> 	   </g></g><g class="children" style="overflow:hidden"/><g class="edge"/></g><g class="controls"><g class="dockers"/><g class="magnets" transform="translate(355, 200)"><g pointer-events="all" display="none" transform="translate(12.5, 12.5)"><circle cx="8" cy="8" r="4" stroke="none" fill="red" fill-opacity="0.3"/></g></g></g></g><g id="_6D122B81-B579-4EE9-8904-966F6B0878AA" bpmn2nodeid="_0B19A3DF-C02A-4D63-A63F-F8D824ADB50D"><g class="stencils" transform="translate(440, 180)"><g class="me"><g pointer-events="fill" oryx:minimumSize="50 40" id="_6D122B81-B579-4EE9-8904-966F6B0878AA">   	<defs id="_6D122B81-B579-4EE9-8904-966F6B0878AA__6D122B81-B579-4EE9-8904-966F6B0878AA_17"> 		<radialGradient id="_6D122B81-B579-4EE9-8904-966F6B0878AAbackground" cx="10%" cy="10%" r="100%" fx="10%" fy="10%"> 			<stop offset="0%" stop-color="#ffffff" stop-opacity="1" id="_6D122B81-B579-4EE9-8904-966F6B0878AA__6D122B81-B579-4EE9-8904-966F6B0878AA_18"/> 			<stop id="_6D122B81-B579-4EE9-8904-966F6B0878AAfill_el" offset="100%" stop-color="#fafad2" stop-opacity="1"/> 		</radialGradient> 		<radialGradient id="_6D122B81-B579-4EE9-8904-966F6B0878AAborderbackground" cx="10%" cy="10%" r="100%" fx="10%" fy="10%"> 			<stop offset="0%" stop-color="#ffffff" stop-opacity="1" id="_6D122B81-B579-4EE9-8904-966F6B0878AA__6D122B81-B579-4EE9-8904-966F6B0878AA_19"/> 			<stop id="_6D122B81-B579-4EE9-8904-966F6B0878AAfill_border" offset="100%" stop-color="#000000" stop-opacity="1" stroke="#000000"/> 		</radialGradient> 	</defs> 	 	<rect id="_6D122B81-B579-4EE9-8904-966F6B0878AAtext_frame" oryx:anchors="bottom top right left" x="1" y="1" width="94" height="79" rx="10" ry="10" stroke="none" stroke-width="0" fill="none"/> 	<rect id="_6D122B81-B579-4EE9-8904-966F6B0878AAbg_frame" oryx:resize="vertical horizontal" x="0" y="0" width="100" height="80" rx="10" ry="10" stroke="#000000" stroke-width="1" fill="url(#_6D122B81-B579-4EE9-8904-966F6B0878AAbackground) #ffffcc"/> 		<text font-size="12" id="_6D122B81-B579-4EE9-8904-966F6B0878AAtext_name" x="50" y="40" oryx:align="middle center" oryx:fittoelem="text_frame" stroke="black" text-anchor="middle" stroke-width="0pt" letter-spacing="-0.01px" fill="#000000" transform="rotate(0 50 40)" visibility="inherit" oryx:fontSize="12"><tspan x="50" y="40" dy="5" id="ext-gen2029">Approve PR</tspan></text>     <g id="_6D122B81-B579-4EE9-8904-966F6B0878AAmanualTask" transform="scale(0.7,0.7) translate(8,8)" display="none">     	<path oryx:anchors="top left" id="_6D122B81-B579-4EE9-8904-966F6B0878AAframe" style="opacity:1;fill:none;fill-opacity:1;stroke-width:1" d="M0.5,3.751l4.083-3.25c0,0,11.166,0.083,12.083,0.083s-2.417,2.917-1.5,2.917     s11.667,0,12.584,0c1.166,1.708-0.168,3.167-0.834,3.667s0.875,1.917-1,4.417c-0.75,0.25,0.75,1.875-1.333,3.333     c-1.167,0.583,0.583,1.542-1.25,2.833c-1.167,0-20.833,0.083-20.833,0.083l-2-1.333V3.751z" stroke="#000000"/> 		<path id="_6D122B81-B579-4EE9-8904-966F6B0878AAframe2" oryx:anchors="top left" style="opacity:1;fill:none;stroke-width:2" d="M 13.5 7 L 27 7" stroke="#000000"/> 		<path id="_6D122B81-B579-4EE9-8904-966F6B0878AAframe3" oryx:anchors="top left" style="opacity:1;fill:none;stroke-width:2" d="M 13.5 11 L 26 11" stroke="#000000"/> 		<path id="_6D122B81-B579-4EE9-8904-966F6B0878AAframe4" oryx:anchors="top left" style="opacity:1;fill:none;stroke-width:1.5" d="M 14 14.5 L 25 14.5" stroke="#000000"/> 		<path id="_6D122B81-B579-4EE9-8904-966F6B0878AAframe5" oryx:anchors="top left" style="opacity:1;fill:none;stroke-width:1.5" d="M 8.2 3.1 L 15 3.1" stroke="#000000"/> 	</g> 	 	<g id="_6D122B81-B579-4EE9-8904-966F6B0878AAbusinessRuleTask" transform="scale(0.7,0.7) translate(8,8)" display="none"> 		<rect id="_6D122B81-B579-4EE9-8904-966F6B0878AAframe6" oryx:anchors="top left" x="0" y="0" width="22" height="4" style="opacity:1;fill:#B3B1B3;fill-opacity:1;" stroke="#000000"/> 		<rect id="_6D122B81-B579-4EE9-8904-966F6B0878AAframe7" oryx:anchors="top left" x="0" y="4" style="opacity:1;fill:none;" width="22" height="12" stroke="#000000"/> 		<path id="_6D122B81-B579-4EE9-8904-966F6B0878AAframe8" oryx:anchors="top left" style="opacity:1;fill:none;" d="M 0 10 L 22 10" stroke="#000000"/> 		<path id="_6D122B81-B579-4EE9-8904-966F6B0878AAframe9" oryx:anchors="top left" style="opacity:1; fill:none;" d="M 7 4 L 7 16" stroke="#000000"/> 	</g> 	 	<g id="_6D122B81-B579-4EE9-8904-966F6B0878AAscriptTask" transform="scale(0.7,0.7) translate(8,8)" display="none"> 		<path oryx:anchors="top left" id="_6D122B81-B579-4EE9-8904-966F6B0878AAframe10" style="opacity:1;fill:none;" stroke="#000000" d="M6.402,0.5h14.5c0,0-5.833,2.833-5.833,5.583s4.417,6,4.417,9.167    s-4.167,5.083-4.167,5.083H0.235c0,0,5-2.667,5-5s-4.583-6.75-4.583-9.25S6.402,0.5,6.402,0.5z"/> 		<path oryx:anchors="top left" id="_6D122B81-B579-4EE9-8904-966F6B0878AAframe11" style="opacity:1;fill:none;stroke-width:1.5" d="M 3.5 4.5 L 13.5 4.5" stroke="#000000"/> 		<path oryx:anchors="top left" id="_6D122B81-B579-4EE9-8904-966F6B0878AAframe12" style="opacity:1;fill:none;stroke-width:1.5" d="M 3.8 8.5 L 13.8 8.5" stroke="#000000"/> 		<path oryx:anchors="top left" id="_6D122B81-B579-4EE9-8904-966F6B0878AAframe13" style="opacity:1;fill:none;stroke-width:1.5" d="M 6.3 12.5 L 16.3 12.5" stroke="#000000"/> 		<path oryx:anchors="top left" id="_6D122B81-B579-4EE9-8904-966F6B0878AAframe14" style="opacity:1;fill:none;stroke-width:1.5" d="M 6.5 16.5 L 16.5 16.5" stroke="#000000"/> 	</g> 	 	<g id="_6D122B81-B579-4EE9-8904-966F6B0878AAuserTask" transform="scale(0.7,0.7) translate(8,8)" display="inherit"> 		<path id="_6D122B81-B579-4EE9-8904-966F6B0878AAframe15" oryx:anchors="top left" style="opacity:1;fill:#F4F6F7" stroke="#000000" d="M0.585,24.167h24.083v-7.833c0,0-2.333-3.917-7.083-5.167h-9.25    c-4.417,1.333-7.833,5.75-7.833,5.75L0.585,24.167z"/> 		<path id="_6D122B81-B579-4EE9-8904-966F6B0878AAframe16" oryx:anchors="top left" style="opacity:1;fill:none" d="M 6 20 L 6 24" stroke="#000000"/> 		<path id="_6D122B81-B579-4EE9-8904-966F6B0878AAframe17" oryx:anchors="top left" style="opacity:1;fill:none" d="M 20 20 L 20 24" stroke="#000000"/> 		<circle id="_6D122B81-B579-4EE9-8904-966F6B0878AAframe18" oryx:anchors="top left" fill="black" cx="13.002" cy="5.916" r="5.417" stroke="#000000"/> 		<path id="_6D122B81-B579-4EE9-8904-966F6B0878AAframe19" oryx:anchors="top left" style="opacity:1;fill:#F0EFF0;" stroke="#000000" d="M8.043,7.083c0,0,2.814-2.426,5.376-1.807s4.624-0.693,4.624-0.693    c0.25,1.688,0.042,3.75-1.458,5.584c0,0,1.083,0.75,1.083,1.5s0.125,1.875-1,3s-5.5,1.25-6.75,0S8.668,12.834,8.668,12    s0.583-1.25,1.25-1.917C8.835,9.5,7.419,7.708,8.043,7.083z"/> 	</g> 	 	<g id="_6D122B81-B579-4EE9-8904-966F6B0878AAserviceTask" transform="scale(0.7,0.7) translate(8,8)" display="none"> 		<polygon oryx:anchors="top left" id="_6D122B81-B579-4EE9-8904-966F6B0878AAframe20" style="opacity:1;fill:#ffffff" stroke="#000000" points="15.392,5.064 17.954,2.502 20.347,4.895 17.786,7.455     18.729,9.732 22.353,9.732 22.353,13.115 18.731,13.115 17.788,15.392 20.351,17.955 17.958,20.347 15.397,17.786 13.12,18.729     13.12,22.353 9.737,22.353 9.737,18.731 7.46,17.788 4.897,20.35 2.506,17.958 5.066,15.397 4.124,13.12 0.5,13.12 0.5,9.737     4.121,9.737 5.065,7.461 2.503,4.898 4.895,2.506 7.455,5.066 9.732,4.125 9.732,0.5 13.116,0.5 13.116,4.121 "/> 		<circle oryx:anchors="top left" id="_6D122B81-B579-4EE9-8904-966F6B0878AAframe21" style="opacity:1;fill:none" stroke="#000000" cx="11.427" cy="11.426" r="3.714"/> 		<polygon oryx:anchors="top left" id="_6D122B81-B579-4EE9-8904-966F6B0878AAframe22" style="opacity:1;fill:#ffffff" stroke="#000000" points="21.392,11.064 23.954,8.502 26.347,10.895 23.786,13.455     24.729,15.732 28.353,15.732 28.353,19.115 24.731,19.115 23.788,21.392 26.351,23.955 23.958,26.347 21.397,23.786 19.12,24.729     19.12,28.353 15.737,28.353 15.737,24.731 13.46,23.788 10.897,26.35 8.506,23.958 11.066,21.397 10.124,19.12 6.5,19.12     6.5,15.737 10.121,15.737 11.065,13.461 8.503,10.898 10.895,8.506 13.455,11.066 15.732,10.125 15.732,6.5 19.116,6.5     19.116,10.121 "/> 		<circle oryx:anchors="top left" id="_6D122B81-B579-4EE9-8904-966F6B0878AAframe23" style="opacity:1;fill:none;" stroke="#000000" cx="17.427" cy="17.426" r="3.714"/> 	</g> 	 	<g id="_6D122B81-B579-4EE9-8904-966F6B0878AAsendTask" display="none"> 		<path id="_6D122B81-B579-4EE9-8904-966F6B0878AAstframe24" oryx:anchors="left top" stroke="#FFFFFF" fill="black" stroke-width="1" d="M8,11 L8,21 L24,21 L24,11 L16,17z"/> 		<path id="_6D122B81-B579-4EE9-8904-966F6B0878AAstframe25" oryx:anchors="left top" stroke="#FFFFFF" fill="black" stroke-width="1" d="M7,10 L16,17 L25 10z"/> 	</g> 	 	<g id="_6D122B81-B579-4EE9-8904-966F6B0878AAreceiveTask" display="none"> 		<path id="_6D122B81-B579-4EE9-8904-966F6B0878AAframe26" oryx:anchors="left top" stroke="#000000" fill="none" stroke-width="1" d="M8,11 L8,21 L24,21 L24,11z M8,11 L16,17 L24,11"/> 	</g> 	 	<g id="_6D122B81-B579-4EE9-8904-966F6B0878AAnone" display="none"/>  	<g id="_6D122B81-B579-4EE9-8904-966F6B0878AAsequential" display="none">         <path oryx:anchors="bottom" fill="none" stroke="#000000" stroke-width="2" d="M46,76h10M46,72h10 M46,68h10" id="_6D122B81-B579-4EE9-8904-966F6B0878AA__6D122B81-B579-4EE9-8904-966F6B0878AA_20"/>     </g>   </g></g><g class="children" style="overflow:hidden"/><g class="edge"/></g><g class="controls"><g class="dockers"/><g class="magnets" transform="translate(440, 180)"><g pointer-events="all" display="none" transform="translate(-7, 12)"><circle cx="8" cy="8" r="4" stroke="none" fill="red" fill-opacity="0.3"/></g><g pointer-events="all" display="none" transform="translate(-7, 32)"><circle cx="8" cy="8" r="4" stroke="none" fill="red" fill-opacity="0.3"/></g><g pointer-events="all" display="none" transform="translate(-7, 52)"><circle cx="8" cy="8" r="4" stroke="none" fill="red" fill-opacity="0.3"/></g><g pointer-events="all" display="none" transform="translate(17, 71)"><circle cx="8" cy="8" r="4" stroke="none" fill="red" fill-opacity="0.3"/></g><g pointer-events="all" display="none" transform="translate(42, 71)"><circle cx="8" cy="8" r="4" stroke="none" fill="red" fill-opacity="0.3"/></g><g pointer-events="all" display="none" transform="translate(67, 71)"><circle cx="8" cy="8" r="4" stroke="none" fill="red" fill-opacity="0.3"/></g><g pointer-events="all" display="none" transform="translate(91, 12)"><circle cx="8" cy="8" r="4" stroke="none" fill="red" fill-opacity="0.3"/></g><g pointer-events="all" display="none" transform="translate(91, 32)"><circle cx="8" cy="8" r="4" stroke="none" fill="red" fill-opacity="0.3"/></g><g pointer-events="all" display="none" transform="translate(91, 52)"><circle cx="8" cy="8" r="4" stroke="none" fill="red" fill-opacity="0.3"/></g><g pointer-events="all" display="none" transform="translate(17, -7)"><circle cx="8" cy="8" r="4" stroke="none" fill="red" fill-opacity="0.3"/></g><g pointer-events="all" display="none" transform="translate(42, -7)"><circle cx="8" cy="8" r="4" stroke="none" fill="red" fill-opacity="0.3"/></g><g pointer-events="all" display="none" transform="translate(67, -7)"><circle cx="8" cy="8" r="4" stroke="none" fill="red" fill-opacity="0.3"/></g><g pointer-events="all" display="none" transform="translate(42, 32)"><circle cx="8" cy="8" r="4" stroke="none" fill="red" fill-opacity="0.3"/></g></g></g></g><g id="_5C92BF66-1628-4347-A3D2-4A5D6955CF5B" bpmn2nodeid="_B3C5C400-BE21-4DAC-BAF2-C07CC1F406E6"><g class="stencils" transform="translate(585, 200)"><g class="me"><g id="_5C92BF66-1628-4347-A3D2-4A5D6955CF5B">        <defs id="_5C92BF66-1628-4347-A3D2-4A5D6955CF5B__5C92BF66-1628-4347-A3D2-4A5D6955CF5B_4"> 		<radialGradient id="_5C92BF66-1628-4347-A3D2-4A5D6955CF5Bbackground" cx="10%" cy="10%" r="100%" fx="10%" fy="10%"> 			<stop offset="0%" stop-color="#ffffff" stop-opacity="1" id="_5C92BF66-1628-4347-A3D2-4A5D6955CF5B__5C92BF66-1628-4347-A3D2-4A5D6955CF5B_5"/> 			<stop id="_5C92BF66-1628-4347-A3D2-4A5D6955CF5Bfill_el" offset="100%" stop-color="#f0e68c" stop-opacity="1"/> 		</radialGradient> 		<radialGradient id="_5C92BF66-1628-4347-A3D2-4A5D6955CF5Bborderbackground" cx="10%" cy="10%" r="100%" fx="10%" fy="10%"> 			<stop offset="0%" stop-color="#ffffff" stop-opacity="1" id="_5C92BF66-1628-4347-A3D2-4A5D6955CF5B__5C92BF66-1628-4347-A3D2-4A5D6955CF5B_6"/> 			<stop id="_5C92BF66-1628-4347-A3D2-4A5D6955CF5Bfill_border" offset="100%" stop-color="#a67f00" stop-opacity="1" stroke="#a67f00"/> 		</radialGradient> 	</defs> 	     <path d=" M0 20.5  L20.5 0  L40 20.5  L20.5 40  z" id="_5C92BF66-1628-4347-A3D2-4A5D6955CF5Bbg_frame" fill="url(#_5C92BF66-1628-4347-A3D2-4A5D6955CF5Bbackground) white" style="stroke-width:1" stroke="#a67f00"/>     <g id="_5C92BF66-1628-4347-A3D2-4A5D6955CF5Bframe" stroke="#a67f00">       <path id="_5C92BF66-1628-4347-A3D2-4A5D6955CF5Bframe2" d=" M13.25 12.05  L17.25 12.05  L27.65 28.95  L23.75 28.95  z" style="stroke-width:1" stroke="#a67f00" fill="url(#_5C92BF66-1628-4347-A3D2-4A5D6955CF5Bborderbackground)"/>       <path id="_5C92BF66-1628-4347-A3D2-4A5D6955CF5Bframe3" d=" M13.25 28.95  L23.75 12.05  L27.65 12.05  L17.25 28.95  z" style="stroke-width:1" stroke="#a67f00" fill="url(#_5C92BF66-1628-4347-A3D2-4A5D6955CF5Bborderbackground)"/>     </g> 	 	<text id="_5C92BF66-1628-4347-A3D2-4A5D6955CF5Btext_name" x="30.5" y="30.5" oryx:align="left top" stroke-width="0pt" letter-spacing="-0.01px" fill="#000000" text-anchor="start" transform="rotate(0 30.5 30.5)" visibility="inherit" oryx:fontSize="12"/> 	   </g></g><g class="children" style="overflow:hidden"/><g class="edge"/></g><g class="controls"><g class="dockers"/><g class="magnets" transform="translate(585, 200)"><g pointer-events="all" display="none" transform="translate(12.5, 12.5)"><circle cx="8" cy="8" r="4" stroke="none" fill="red" fill-opacity="0.3"/></g></g></g></g><g id="_C9094B88-34D7-4511-91CA-B27B9A1585A2" bpmn2nodeid="_72CBE8D6-A713-40E8-BC37-410B8957D7F1"><g class="stencils" transform="translate(670, 206)"><g class="me"><g pointer-events="fill" id="_C9094B88-34D7-4511-91CA-B27B9A1585A2">      <defs id="_C9094B88-34D7-4511-91CA-B27B9A1585A2__C9094B88-34D7-4511-91CA-B27B9A1585A2_5"> 		<radialGradient id="_C9094B88-34D7-4511-91CA-B27B9A1585A2background" cx="10%" cy="10%" r="100%" fx="10%" fy="10%"> 			<stop offset="0%" stop-color="#ffffff" stop-opacity="1" id="_C9094B88-34D7-4511-91CA-B27B9A1585A2__C9094B88-34D7-4511-91CA-B27B9A1585A2_6"/> 			<stop id="_C9094B88-34D7-4511-91CA-B27B9A1585A2fill_el" offset="100%" stop-color="#ff6347" stop-opacity="1"/> 		</radialGradient> 	</defs> 	     <circle id="_C9094B88-34D7-4511-91CA-B27B9A1585A2bg_frame" cx="14" cy="14" r="14" stroke="#000000" fill="url(#_C9094B88-34D7-4511-91CA-B27B9A1585A2background) white" stroke-width="3"/> 	<text font-size="11" id="_C9094B88-34D7-4511-91CA-B27B9A1585A2text_name" x="14" y="30" oryx:align="top center" stroke="black" stroke-width="0pt" letter-spacing="-0.01px" fill="#000000" text-anchor="middle" transform="rotate(0 14 30)" visibility="inherit" oryx:fontSize="11"/>   </g></g><g class="children" style="overflow:hidden"/><g class="edge"/></g><g class="controls"><g class="dockers"/><g class="magnets" transform="translate(670, 206)"><g pointer-events="all" display="none" transform="translate(6, 6)"><circle cx="8" cy="8" r="4" stroke="none" fill="red" fill-opacity="0.3"/></g></g></g></g></g><g class="edge"><g id="_47869C26-38F5-449D-9F0C-3E72563F5908" bpmn2nodeid="_B2E60F79-C1FF-44D4-A206-5FBBB4753AF8"><g class="stencils"><g class="me"><g pointer-events="painted" bpmn2nodeid="_09C87B0E-B981-4A7C-A349-1B44D886D066"><path id="_47869C26-38F5-449D-9F0C-3E72563F5908_1" d="M150.6484375 220L209.1953125 220 " stroke="#000000" fill="none" stroke-width="2" stroke-linecap="round" stroke-linejoin="round" marker-start="url(#_47869C26-38F5-449D-9F0C-3E72563F5908start)" marker-end="url(#_47869C26-38F5-449D-9F0C-3E72563F5908end)"/></g><text id="_47869C26-38F5-449D-9F0C-3E72563F5908text_name" font-size="12" x="164.6484375" y="206" oryx:edgePosition="startTop" stroke-width="0pt" letter-spacing="-0.01px" fill="#000000" text-anchor="start" transform="rotate(360 150.6484375 220)" visibility="inherit" oryx:fontSize="12"/></g><g class="children" style="overflow:hidden"/><g class="edge"/></g><g class="controls"><g class="dockers"/><g class="magnets"/></g></g><g id="_DBE00767-3578-4F25-8748-7A46FD825075" bpmn2nodeid="_F8D9F4F8-5F33-4CB5-8E48-6A623917B689"><g class="stencils"><g class="me"><g pointer-events="painted" bpmn2nodeid="_ABADDA44-F377-4AA2-AD41-FD1D867DB81E"><path id="_DBE00767-3578-4F25-8748-7A46FD825075_1" d="M310.4140625 220L355.1328125 220 " stroke="#000000" fill="none" stroke-width="2" stroke-linecap="round" stroke-linejoin="round" marker-start="url(#_DBE00767-3578-4F25-8748-7A46FD825075start)" marker-end="url(#_DBE00767-3578-4F25-8748-7A46FD825075end)"/></g><text id="_DBE00767-3578-4F25-8748-7A46FD825075text_name" font-size="12" x="324.4140625" y="206" oryx:edgePosition="startTop" stroke-width="0pt" letter-spacing="-0.01px" fill="#000000" text-anchor="start" transform="rotate(360 310.4140625 220)" visibility="inherit" oryx:fontSize="12"/></g><g class="children" style="overflow:hidden"/><g class="edge"/></g><g class="controls"><g class="dockers"/><g class="magnets"/></g></g><g id="_281C341A-E3DD-4FE7-8C93-4C03AA7DBD44" bpmn2nodeid="_A52EA515-0FD3-4B71-A82B-47D935918FBB"><g class="stencils"><g class="me"><g pointer-events="painted" bpmn2nodeid="_3791DD44-2ED2-4B94-B37D-92725F7FE6E2"><path id="_281C341A-E3DD-4FE7-8C93-4C03AA7DBD44_1" d="M394.8671875 220L439.5859375 220 " stroke="#000000" fill="none" stroke-width="2" stroke-linecap="round" stroke-linejoin="round" marker-start="url(#_281C341A-E3DD-4FE7-8C93-4C03AA7DBD44start)" marker-end="url(#_281C341A-E3DD-4FE7-8C93-4C03AA7DBD44end)"/></g><text id="_281C341A-E3DD-4FE7-8C93-4C03AA7DBD44text_name" font-size="12" x="408.8671875" y="206" oryx:edgePosition="startTop" stroke-width="0pt" letter-spacing="-0.01px" fill="#000000" text-anchor="start" transform="rotate(360 394.8671875 220)" visibility="inherit" oryx:fontSize="12"/></g><g class="children" style="overflow:hidden"/><g class="edge"/></g><g class="controls"><g class="dockers"/><g class="magnets"/></g></g><g id="_E773ECDE-010E-4F63-B048-074904C30741" bpmn2nodeid="_7B19B6B3-4112-4827-B02A-35DB972C9CDF"><g class="stencils"><g class="me"><g pointer-events="painted" bpmn2nodeid="_E869B96C-A1B9-4D2C-95B1-05FD5FD3AA5A"><path id="_E773ECDE-010E-4F63-B048-074904C30741_1" d="M540.4140625 220L585.1328125 220 " stroke="#000000" fill="none" stroke-width="2" stroke-linecap="round" stroke-linejoin="round" marker-start="url(#_E773ECDE-010E-4F63-B048-074904C30741start)" marker-end="url(#_E773ECDE-010E-4F63-B048-074904C30741end)"/></g><text id="_E773ECDE-010E-4F63-B048-074904C30741text_name" font-size="12" x="554.4140625" y="206" oryx:edgePosition="startTop" stroke-width="0pt" letter-spacing="-0.01px" fill="#000000" text-anchor="start" transform="rotate(360 540.4140625 220)" visibility="inherit" oryx:fontSize="12"/></g><g class="children" style="overflow:hidden"/><g class="edge"/></g><g class="controls"><g class="dockers"/><g class="magnets"/></g></g><g id="_42197A90-EEB2-45F0-A83F-B51FF7750EA2" bpmn2nodeid="_CC1645ED-59C6-4981-8B05-6E9B23D21237"><g class="stencils"><g class="me"><g pointer-events="painted" bpmn2nodeid="_FADB2B2B-107D-4ED8-ADC0-A2067F87AF05"><path id="_42197A90-EEB2-45F0-A83F-B51FF7750EA2_1" d="M625.1328125 220L669.421875 220 " stroke="#000000" fill="none" stroke-width="2" stroke-linecap="round" stroke-linejoin="round" marker-start="url(#_42197A90-EEB2-45F0-A83F-B51FF7750EA2start)" marker-end="url(#_42197A90-EEB2-45F0-A83F-B51FF7750EA2end)"/></g><text id="_42197A90-EEB2-45F0-A83F-B51FF7750EA2text_name" font-size="12" x="639.1328125" y="206" oryx:edgePosition="startTop" stroke-width="0pt" letter-spacing="-0.01px" fill="#000000" text-anchor="start" transform="rotate(360 625.1328125 220)" visibility="inherit" oryx:fontSize="12"/></g><g class="children" style="overflow:hidden"/><g class="edge"/></g><g class="controls"><g class="dockers"/><g class="magnets"/></g></g></g><text id="_82086D55-9236-4F24-90F5-A09C02F325A9" style="stroke-width:1;fill:rgb(177,194,214);font-family:arial;font-weight:bold" font-size="12" onclick="ORYX.Plugins.CanvasTitle.openTextualAnalysis()" onmouseover="ORYX.Plugins.CanvasTitle.addToolTip('_82086D55-9236-4F24-90F5-A09C02F325A9')" transform="translate(10, 20)">procurement v.1.0 (procurement.procurement)</text></g></g></svg>