<svg xmlns="http://www.w3.org/2000/svg" xmlns:oryx="http://oryx-editor.org" id="_35642964-9D97-476C-AA8F-47623EE3270F" width="863" height="366" xmlns:xlink="http://www.w3.org/1999/xlink" xmlns:svg="http://www.w3.org/2000/svg"><defs><marker id="_F876C1D3-F8D2-4DC4-927A-359EA7DD667Astart" refX="1" refY="5" markerUnits="userSpaceOnUse" markerWidth="17" markerHeight="11" orient="auto" fill="#000000" stroke="#000000"> 	  		<path id="_F876C1D3-F8D2-4DC4-927A-359EA7DD667Aconditional" d="M 0 5 L 8 0 L 16 5 L 8 10 L 0 5" fill="white" stroke="#000000" stroke-width="1" display="none"/> 			<path id="_F876C1D3-F8D2-4DC4-927A-359EA7DD667Adefault" d="M 5 0 L 11 10" fill="white" stroke="#000000" stroke-width="1" display="none"/> 	  	</marker><marker id="_F876C1D3-F8D2-4DC4-927A-359EA7DD667Aend" refX="15" refY="6" markerUnits="userSpaceOnUse" markerWidth="15" markerHeight="12" orient="auto" fill="#000000" stroke="#000000"> 	  		<path id="_F876C1D3-F8D2-4DC4-927A-359EA7DD667Aframe2" d="M 0 1 L 15 6 L 0 11z" fill="#000000" stroke="#000000" stroke-linejoin="round" stroke-width="2"/> 	  	</marker><marker id="_2D37159F-3A20-4087-8D13-14C8DB517666start" refX="1" refY="5" markerUnits="userSpaceOnUse" markerWidth="17" markerHeight="11" orient="auto" fill="#000000" stroke="#000000"> 	  		<path id="_2D37159F-3A20-4087-8D13-14C8DB517666conditional" d="M 0 5 L 8 0 L 16 5 L 8 10 L 0 5" fill="white" stroke="#000000" stroke-width="1" display="none"/> 			<path id="_2D37159F-3A20-4087-8D13-14C8DB517666default" d="M 5 0 L 11 10" fill="white" stroke="#000000" stroke-width="1" display="none"/> 	  	</marker><marker id="_2D37159F-3A20-4087-8D13-14C8DB517666end" refX="15" refY="6" markerUnits="userSpaceOnUse" markerWidth="15" markerHeight="12" orient="auto" fill="#000000" stroke="#000000"> 	  		<path id="_2D37159F-3A20-4087-8D13-14C8DB517666frame2" d="M 0 1 L 15 6 L 0 11z" fill="#000000" stroke="#000000" stroke-linejoin="round" stroke-width="2"/> 	  	</marker><marker id="_63E46319-B9AC-4D66-B0BB-412539DDAF08start" refX="1" refY="5" markerUnits="userSpaceOnUse" markerWidth="17" markerHeight="11" orient="auto" fill="#000000" stroke="#000000"> 	  		<path id="_63E46319-B9AC-4D66-B0BB-412539DDAF08conditional" d="M 0 5 L 8 0 L 16 5 L 8 10 L 0 5" fill="white" stroke="#000000" stroke-width="1" display="none"/> 			<path id="_63E46319-B9AC-4D66-B0BB-412539DDAF08default" d="M 5 0 L 11 10" fill="white" stroke="#000000" stroke-width="1" display="none"/> 	  	</marker><marker id="_63E46319-B9AC-4D66-B0BB-412539DDAF08end" refX="15" refY="6" markerUnits="userSpaceOnUse" markerWidth="15" markerHeight="12" orient="auto" fill="#000000" stroke="#000000"> 	  		<path id="_63E46319-B9AC-4D66-B0BB-412539DDAF08frame2" d="M 0 1 L 15 6 L 0 11z" fill="#000000" stroke="#000000" stroke-linejoin="round" stroke-width="2"/> 	  	</marker><marker id="_4176E16C-98CE-4368-A661-B5D4EE78B561start" refX="1" refY="5" markerUnits="userSpaceOnUse" markerWidth="17" markerHeight="11" orient="auto" fill="#000000" stroke="#000000"> 	  		<path id="_4176E16C-98CE-4368-A661-B5D4EE78B561conditional" d="M 0 5 L 8 0 L 16 5 L 8 10 L 0 5" fill="white" stroke="#000000" stroke-width="1" display="none"/> 			<path id="_4176E16C-98CE-4368-A661-B5D4EE78B561default" d="M 5 0 L 11 10" fill="white" stroke="#000000" stroke-width="1" display="none"/> 	  	</marker><marker id="_4176E16C-98CE-4368-A661-B5D4EE78B561end" refX="15" refY="6" markerUnits="userSpaceOnUse" markerWidth="15" markerHeight="12" orient="auto" fill="#000000" stroke="#000000"> 	  		<path id="_4176E16C-98CE-4368-A661-B5D4EE78B561frame2" d="M 0 1 L 15 6 L 0 11z" fill="#000000" stroke="#000000" stroke-linejoin="round" stroke-width="2"/> 	  	</marker><marker id="_4905C357-D04A-4360-9734-FF0586E7F18Astart" refX="1" refY="5" markerUnits="userSpaceOnUse" markerWidth="17" markerHeight="11" orient="auto" fill="#000000" stroke="#000000"> 	  		<path id="_4905C357-D04A-4360-9734-FF0586E7F18Aconditional" d="M 0 5 L 8 0 L 16 5 L 8 10 L 0 5" fill="white" stroke="#000000" stroke-width="1" display="none"/> 			<path id="_4905C357-D04A-4360-9734-FF0586E7F18Adefault" d="M 5 0 L 11 10" fill="white" stroke="#000000" stroke-width="1" display="none"/> 	  	</marker><marker id="_4905C357-D04A-4360-9734-FF0586E7F18Aend" refX="15" refY="6" markerUnits="userSpaceOnUse" markerWidth="15" markerHeight="12" orient="auto" fill="#000000" stroke="#000000"> 	  		<path id="_4905C357-D04A-4360-9734-FF0586E7F18Aframe2" d="M 0 1 L 15 6 L 0 11z" fill="#000000" stroke="#000000" stroke-linejoin="round" stroke-width="2"/> 	  	</marker><marker id="_815A072A-71A2-447C-8731-4720144F9951start" refX="1" refY="5" markerUnits="userSpaceOnUse" markerWidth="17" markerHeight="11" orient="auto" fill="#000000" stroke="#000000"> 	  		<path id="_815A072A-71A2-447C-8731-4720144F9951conditional" d="M 0 5 L 8 0 L 16 5 L 8 10 L 0 5" fill="white" stroke="#000000" stroke-width="1" display="none"/> 			<path id="_815A072A-71A2-447C-8731-4720144F9951default" d="M 5 0 L 11 10" fill="white" stroke="#000000" stroke-width="1" display="none"/> 	  	</marker><marker id="_815A072A-71A2-447C-8731-4720144F9951end" refX="15" refY="6" markerUnits="userSpaceOnUse" markerWidth="15" markerHeight="12" orient="auto" fill="#000000" stroke="#000000"> 	  		<path id="_815A072A-71A2-447C-8731-4720144F9951frame2" d="M 0 1 L 15 6 L 0 11z" fill="#000000" stroke="#000000" stroke-linejoin="round" stroke-width="2"/> 	  	</marker></defs><g stroke="none" font-family="Verdana, sans-serif" font-size-adjust="none" font-style="normal" font-variant="normal" font-weight="normal" line-heigth="normal" font-size="12"><g class="stencils" transform="translate(15, 16)"><g class="me"/><g class="children"><g id="_73F14C51-1EB0-42A1-9C36-A005314AA56B" bpmn2nodeid="processStartEvent"><g class="stencils" transform="translate(120, 165)"><g class="me"><g pointer-events="fill" id="_73F14C51-1EB0-42A1-9C36-A005314AA56B">        <defs id="_73F14C51-1EB0-42A1-9C36-A005314AA56B__73F14C51-1EB0-42A1-9C36-A005314AA56B_5"> 		<radialGradient id="_73F14C51-1EB0-42A1-9C36-A005314AA56Bbackground" cx="10%" cy="10%" r="100%" fx="10%" fy="10%"> 			<stop offset="0%" stop-color="#ffffff" stop-opacity="1" id="_73F14C51-1EB0-42A1-9C36-A005314AA56B__73F14C51-1EB0-42A1-9C36-A005314AA56B_6"/> 			<stop id="_73F14C51-1EB0-42A1-9C36-A005314AA56Bfill_el" offset="100%" stop-color="#9acd32" stop-opacity="1"/> 		</radialGradient> 	</defs> 	     <circle id="_73F14C51-1EB0-42A1-9C36-A005314AA56Bbg_frame" cx="15" cy="15" r="15" stroke="#000000" fill="url(#_73F14C51-1EB0-42A1-9C36-A005314AA56Bbackground) white" stroke-width="1" style="stroke-dasharray: 5.5, 3"/>      <circle id="_73F14C51-1EB0-42A1-9C36-A005314AA56Bframe" cx="15" cy="15" r="15" stroke="#000000" fill="none" stroke-width="1" display="inherit"/>  	<text font-size="11" id="_73F14C51-1EB0-42A1-9C36-A005314AA56Btext_name" x="15" y="32" oryx:align="top center" stroke="black" stroke-width="0pt" letter-spacing="-0.01px" fill="#000000" text-anchor="middle" transform="rotate(0 15 32)" visibility="inherit" oryx:fontSize="11"/>   </g></g><g class="children" style="overflow:hidden"/><g class="edge"/></g><g class="controls"><g class="dockers"/><g class="magnets" transform="translate(120, 165)"><g pointer-events="all" display="none" transform="translate(7, 7)"><circle cx="8" cy="8" r="4" stroke="none" fill="red" fill-opacity="0.3"/></g></g></g></g><g id="_0404EB04-A17E-4715-953D-1BF40129BAFA" bpmn2nodeid="_2DF7FDA4-BCCB-4BF8-85E5-2724DFD0EC76"><g class="stencils" transform="translate(255, 140)"><g class="me"><g pointer-events="fill" oryx:minimumSize="50 40" id="_0404EB04-A17E-4715-953D-1BF40129BAFA">   	<defs id="_0404EB04-A17E-4715-953D-1BF40129BAFA__0404EB04-A17E-4715-953D-1BF40129BAFA_17"> 		<radialGradient id="_0404EB04-A17E-4715-953D-1BF40129BAFAbackground" cx="10%" cy="10%" r="100%" fx="10%" fy="10%"> 			<stop offset="0%" stop-color="#ffffff" stop-opacity="1" id="_0404EB04-A17E-4715-953D-1BF40129BAFA__0404EB04-A17E-4715-953D-1BF40129BAFA_18"/> 			<stop id="_0404EB04-A17E-4715-953D-1BF40129BAFAfill_el" offset="100%" stop-color="#fafad2" stop-opacity="1"/> 		</radialGradient> 		<radialGradient id="_0404EB04-A17E-4715-953D-1BF40129BAFAborderbackground" cx="10%" cy="10%" r="100%" fx="10%" fy="10%"> 			<stop offset="0%" stop-color="#ffffff" stop-opacity="1" id="_0404EB04-A17E-4715-953D-1BF40129BAFA__0404EB04-A17E-4715-953D-1BF40129BAFA_19"/> 			<stop id="_0404EB04-A17E-4715-953D-1BF40129BAFAfill_border" offset="100%" stop-color="#000000" stop-opacity="1" stroke="#000000"/> 		</radialGradient> 	</defs> 	 	<rect id="_0404EB04-A17E-4715-953D-1BF40129BAFAtext_frame" oryx:anchors="bottom top right left" x="1" y="1" width="94" height="79" rx="10" ry="10" stroke="none" stroke-width="0" fill="none"/> 	<rect id="_0404EB04-A17E-4715-953D-1BF40129BAFAbg_frame" oryx:resize="vertical horizontal" x="0" y="0" width="100" height="80" rx="10" ry="10" stroke="#000000" stroke-width="1" fill="url(#_0404EB04-A17E-4715-953D-1BF40129BAFAbackground) #ffffcc"/> 		<text font-size="12" id="_0404EB04-A17E-4715-953D-1BF40129BAFAtext_name" x="50" y="40" oryx:align="middle center" oryx:fittoelem="text_frame" stroke="black" text-anchor="middle" stroke-width="0pt" letter-spacing="-0.01px" fill="#000000" transform="rotate(0 50 40)" visibility="inherit" oryx:fontSize="12"><tspan x="50" y="40" dy="-13">Asset </tspan><tspan x="50" y="40" dy="-1" id="ext-gen1235">Service/Repair </tspan><tspan x="50" y="40" dy="11" id="ext-gen1234">Outward </tspan><tspan x="50" y="40" dy="23" id="ext-gen1221">Approval</tspan></text>     <g id="_0404EB04-A17E-4715-953D-1BF40129BAFAmanualTask" transform="scale(0.7,0.7) translate(8,8)" display="none">     	<path oryx:anchors="top left" id="_0404EB04-A17E-4715-953D-1BF40129BAFAframe" style="opacity:1;fill:none;fill-opacity:1;stroke-width:1" d="M0.5,3.751l4.083-3.25c0,0,11.166,0.083,12.083,0.083s-2.417,2.917-1.5,2.917     s11.667,0,12.584,0c1.166,1.708-0.168,3.167-0.834,3.667s0.875,1.917-1,4.417c-0.75,0.25,0.75,1.875-1.333,3.333     c-1.167,0.583,0.583,1.542-1.25,2.833c-1.167,0-20.833,0.083-20.833,0.083l-2-1.333V3.751z" stroke="#000000"/> 		<path id="_0404EB04-A17E-4715-953D-1BF40129BAFAframe2" oryx:anchors="top left" style="opacity:1;fill:none;stroke-width:2" d="M 13.5 7 L 27 7" stroke="#000000"/> 		<path id="_0404EB04-A17E-4715-953D-1BF40129BAFAframe3" oryx:anchors="top left" style="opacity:1;fill:none;stroke-width:2" d="M 13.5 11 L 26 11" stroke="#000000"/> 		<path id="_0404EB04-A17E-4715-953D-1BF40129BAFAframe4" oryx:anchors="top left" style="opacity:1;fill:none;stroke-width:1.5" d="M 14 14.5 L 25 14.5" stroke="#000000"/> 		<path id="_0404EB04-A17E-4715-953D-1BF40129BAFAframe5" oryx:anchors="top left" style="opacity:1;fill:none;stroke-width:1.5" d="M 8.2 3.1 L 15 3.1" stroke="#000000"/> 	</g> 	 	<g id="_0404EB04-A17E-4715-953D-1BF40129BAFAbusinessRuleTask" transform="scale(0.7,0.7) translate(8,8)" display="none"> 		<rect id="_0404EB04-A17E-4715-953D-1BF40129BAFAframe6" oryx:anchors="top left" x="0" y="0" width="22" height="4" style="opacity:1;fill:#B3B1B3;fill-opacity:1;" stroke="#000000"/> 		<rect id="_0404EB04-A17E-4715-953D-1BF40129BAFAframe7" oryx:anchors="top left" x="0" y="4" style="opacity:1;fill:none;" width="22" height="12" stroke="#000000"/> 		<path id="_0404EB04-A17E-4715-953D-1BF40129BAFAframe8" oryx:anchors="top left" style="opacity:1;fill:none;" d="M 0 10 L 22 10" stroke="#000000"/> 		<path id="_0404EB04-A17E-4715-953D-1BF40129BAFAframe9" oryx:anchors="top left" style="opacity:1; fill:none;" d="M 7 4 L 7 16" stroke="#000000"/> 	</g> 	 	<g id="_0404EB04-A17E-4715-953D-1BF40129BAFAscriptTask" transform="scale(0.7,0.7) translate(8,8)" display="none"> 		<path oryx:anchors="top left" id="_0404EB04-A17E-4715-953D-1BF40129BAFAframe10" style="opacity:1;fill:none;" stroke="#000000" d="M6.402,0.5h14.5c0,0-5.833,2.833-5.833,5.583s4.417,6,4.417,9.167    s-4.167,5.083-4.167,5.083H0.235c0,0,5-2.667,5-5s-4.583-6.75-4.583-9.25S6.402,0.5,6.402,0.5z"/> 		<path oryx:anchors="top left" id="_0404EB04-A17E-4715-953D-1BF40129BAFAframe11" style="opacity:1;fill:none;stroke-width:1.5" d="M 3.5 4.5 L 13.5 4.5" stroke="#000000"/> 		<path oryx:anchors="top left" id="_0404EB04-A17E-4715-953D-1BF40129BAFAframe12" style="opacity:1;fill:none;stroke-width:1.5" d="M 3.8 8.5 L 13.8 8.5" stroke="#000000"/> 		<path oryx:anchors="top left" id="_0404EB04-A17E-4715-953D-1BF40129BAFAframe13" style="opacity:1;fill:none;stroke-width:1.5" d="M 6.3 12.5 L 16.3 12.5" stroke="#000000"/> 		<path oryx:anchors="top left" id="_0404EB04-A17E-4715-953D-1BF40129BAFAframe14" style="opacity:1;fill:none;stroke-width:1.5" d="M 6.5 16.5 L 16.5 16.5" stroke="#000000"/> 	</g> 	 	<g id="_0404EB04-A17E-4715-953D-1BF40129BAFAuserTask" transform="scale(0.7,0.7) translate(8,8)" display="inherit"> 		<path id="_0404EB04-A17E-4715-953D-1BF40129BAFAframe15" oryx:anchors="top left" style="opacity:1;fill:#F4F6F7" stroke="#000000" d="M0.585,24.167h24.083v-7.833c0,0-2.333-3.917-7.083-5.167h-9.25    c-4.417,1.333-7.833,5.75-7.833,5.75L0.585,24.167z"/> 		<path id="_0404EB04-A17E-4715-953D-1BF40129BAFAframe16" oryx:anchors="top left" style="opacity:1;fill:none" d="M 6 20 L 6 24" stroke="#000000"/> 		<path id="_0404EB04-A17E-4715-953D-1BF40129BAFAframe17" oryx:anchors="top left" style="opacity:1;fill:none" d="M 20 20 L 20 24" stroke="#000000"/> 		<circle id="_0404EB04-A17E-4715-953D-1BF40129BAFAframe18" oryx:anchors="top left" fill="black" cx="13.002" cy="5.916" r="5.417" stroke="#000000"/> 		<path id="_0404EB04-A17E-4715-953D-1BF40129BAFAframe19" oryx:anchors="top left" style="opacity:1;fill:#F0EFF0;" stroke="#000000" d="M8.043,7.083c0,0,2.814-2.426,5.376-1.807s4.624-0.693,4.624-0.693    c0.25,1.688,0.042,3.75-1.458,5.584c0,0,1.083,0.75,1.083,1.5s0.125,1.875-1,3s-5.5,1.25-6.75,0S8.668,12.834,8.668,12    s0.583-1.25,1.25-1.917C8.835,9.5,7.419,7.708,8.043,7.083z"/> 	</g> 	 	<g id="_0404EB04-A17E-4715-953D-1BF40129BAFAserviceTask" transform="scale(0.7,0.7) translate(8,8)" display="none"> 		<polygon oryx:anchors="top left" id="_0404EB04-A17E-4715-953D-1BF40129BAFAframe20" style="opacity:1;fill:#ffffff" stroke="#000000" points="15.392,5.064 17.954,2.502 20.347,4.895 17.786,7.455     18.729,9.732 22.353,9.732 22.353,13.115 18.731,13.115 17.788,15.392 20.351,17.955 17.958,20.347 15.397,17.786 13.12,18.729     13.12,22.353 9.737,22.353 9.737,18.731 7.46,17.788 4.897,20.35 2.506,17.958 5.066,15.397 4.124,13.12 0.5,13.12 0.5,9.737     4.121,9.737 5.065,7.461 2.503,4.898 4.895,2.506 7.455,5.066 9.732,4.125 9.732,0.5 13.116,0.5 13.116,4.121 "/> 		<circle oryx:anchors="top left" id="_0404EB04-A17E-4715-953D-1BF40129BAFAframe21" style="opacity:1;fill:none" stroke="#000000" cx="11.427" cy="11.426" r="3.714"/> 		<polygon oryx:anchors="top left" id="_0404EB04-A17E-4715-953D-1BF40129BAFAframe22" style="opacity:1;fill:#ffffff" stroke="#000000" points="21.392,11.064 23.954,8.502 26.347,10.895 23.786,13.455     24.729,15.732 28.353,15.732 28.353,19.115 24.731,19.115 23.788,21.392 26.351,23.955 23.958,26.347 21.397,23.786 19.12,24.729     19.12,28.353 15.737,28.353 15.737,24.731 13.46,23.788 10.897,26.35 8.506,23.958 11.066,21.397 10.124,19.12 6.5,19.12     6.5,15.737 10.121,15.737 11.065,13.461 8.503,10.898 10.895,8.506 13.455,11.066 15.732,10.125 15.732,6.5 19.116,6.5     19.116,10.121 "/> 		<circle oryx:anchors="top left" id="_0404EB04-A17E-4715-953D-1BF40129BAFAframe23" style="opacity:1;fill:none;" stroke="#000000" cx="17.427" cy="17.426" r="3.714"/> 	</g> 	 	<g id="_0404EB04-A17E-4715-953D-1BF40129BAFAsendTask" display="none"> 		<path id="_0404EB04-A17E-4715-953D-1BF40129BAFAstframe24" oryx:anchors="left top" stroke="#FFFFFF" fill="black" stroke-width="1" d="M8,11 L8,21 L24,21 L24,11 L16,17z"/> 		<path id="_0404EB04-A17E-4715-953D-1BF40129BAFAstframe25" oryx:anchors="left top" stroke="#FFFFFF" fill="black" stroke-width="1" d="M7,10 L16,17 L25 10z"/> 	</g> 	 	<g id="_0404EB04-A17E-4715-953D-1BF40129BAFAreceiveTask" display="none"> 		<path id="_0404EB04-A17E-4715-953D-1BF40129BAFAframe26" oryx:anchors="left top" stroke="#000000" fill="none" stroke-width="1" d="M8,11 L8,21 L24,21 L24,11z M8,11 L16,17 L24,11"/> 	</g> 	 	<g id="_0404EB04-A17E-4715-953D-1BF40129BAFAnone" display="inherit"/>  	<g id="_0404EB04-A17E-4715-953D-1BF40129BAFAsequential" display="none">         <path oryx:anchors="bottom" fill="none" stroke="#000000" stroke-width="2" d="M46,76h10M46,72h10 M46,68h10" id="_0404EB04-A17E-4715-953D-1BF40129BAFA__0404EB04-A17E-4715-953D-1BF40129BAFA_20"/>     </g>   </g></g><g class="children" style="overflow:hidden"/><g class="edge"/></g><g class="controls"><g class="dockers"/><g class="magnets" transform="translate(255, 140)"><g pointer-events="all" display="none" transform="translate(-7, 12)"><circle cx="8" cy="8" r="4" stroke="none" fill="red" fill-opacity="0.3"/></g><g pointer-events="all" display="none" transform="translate(-7, 32)"><circle cx="8" cy="8" r="4" stroke="none" fill="red" fill-opacity="0.3"/></g><g pointer-events="all" display="none" transform="translate(-7, 52)"><circle cx="8" cy="8" r="4" stroke="none" fill="red" fill-opacity="0.3"/></g><g pointer-events="all" display="none" transform="translate(17, 71)"><circle cx="8" cy="8" r="4" stroke="none" fill="red" fill-opacity="0.3"/></g><g pointer-events="all" display="none" transform="translate(42, 71)"><circle cx="8" cy="8" r="4" stroke="none" fill="red" fill-opacity="0.3"/></g><g pointer-events="all" display="none" transform="translate(67, 71)"><circle cx="8" cy="8" r="4" stroke="none" fill="red" fill-opacity="0.3"/></g><g pointer-events="all" display="none" transform="translate(91, 12)"><circle cx="8" cy="8" r="4" stroke="none" fill="red" fill-opacity="0.3"/></g><g pointer-events="all" display="none" transform="translate(91, 32)"><circle cx="8" cy="8" r="4" stroke="none" fill="red" fill-opacity="0.3"/></g><g pointer-events="all" display="none" transform="translate(91, 52)"><circle cx="8" cy="8" r="4" stroke="none" fill="red" fill-opacity="0.3"/></g><g pointer-events="all" display="none" transform="translate(17, -7)"><circle cx="8" cy="8" r="4" stroke="none" fill="red" fill-opacity="0.3"/></g><g pointer-events="all" display="none" transform="translate(42, -7)"><circle cx="8" cy="8" r="4" stroke="none" fill="red" fill-opacity="0.3"/></g><g pointer-events="all" display="none" transform="translate(67, -7)"><circle cx="8" cy="8" r="4" stroke="none" fill="red" fill-opacity="0.3"/></g><g pointer-events="all" display="none" transform="translate(42, 32)"><circle cx="8" cy="8" r="4" stroke="none" fill="red" fill-opacity="0.3"/></g></g></g></g><g id="_DB13F1DA-EA6F-4411-B582-45D54AC0CBAF" bpmn2nodeid="_4572FDCB-24B7-436D-A70A-507BEEBA852E"><g class="stencils" transform="translate(450, 160)"><g class="me"><g id="_DB13F1DA-EA6F-4411-B582-45D54AC0CBAF">        <defs id="_DB13F1DA-EA6F-4411-B582-45D54AC0CBAF__DB13F1DA-EA6F-4411-B582-45D54AC0CBAF_4"> 		<radialGradient id="_DB13F1DA-EA6F-4411-B582-45D54AC0CBAFbackground" cx="10%" cy="10%" r="100%" fx="10%" fy="10%"> 			<stop offset="0%" stop-color="#ffffff" stop-opacity="1" id="_DB13F1DA-EA6F-4411-B582-45D54AC0CBAF__DB13F1DA-EA6F-4411-B582-45D54AC0CBAF_5"/> 			<stop id="_DB13F1DA-EA6F-4411-B582-45D54AC0CBAFfill_el" offset="100%" stop-color="#f0e68c" stop-opacity="1"/> 		</radialGradient> 		<radialGradient id="_DB13F1DA-EA6F-4411-B582-45D54AC0CBAFborderbackground" cx="10%" cy="10%" r="100%" fx="10%" fy="10%"> 			<stop offset="0%" stop-color="#ffffff" stop-opacity="1" id="_DB13F1DA-EA6F-4411-B582-45D54AC0CBAF__DB13F1DA-EA6F-4411-B582-45D54AC0CBAF_6"/> 			<stop id="_DB13F1DA-EA6F-4411-B582-45D54AC0CBAFfill_border" offset="100%" stop-color="#a67f00" stop-opacity="1" stroke="#a67f00"/> 		</radialGradient> 	</defs> 	     <path d=" M0 20.5  L20.5 0  L40 20.5  L20.5 40  z" id="_DB13F1DA-EA6F-4411-B582-45D54AC0CBAFbg_frame" fill="url(#_DB13F1DA-EA6F-4411-B582-45D54AC0CBAFbackground) white" style="stroke-width:1" stroke="#a67f00"/>     <g id="_DB13F1DA-EA6F-4411-B582-45D54AC0CBAFframe" stroke="#a67f00">       <path id="_DB13F1DA-EA6F-4411-B582-45D54AC0CBAFframe2" d=" M13.25 12.05  L17.25 12.05  L27.65 28.95  L23.75 28.95  z" style="stroke-width:1" stroke="#a67f00" fill="url(#_DB13F1DA-EA6F-4411-B582-45D54AC0CBAFborderbackground)"/>       <path id="_DB13F1DA-EA6F-4411-B582-45D54AC0CBAFframe3" d=" M13.25 28.95  L23.75 12.05  L27.65 12.05  L17.25 28.95  z" style="stroke-width:1" stroke="#a67f00" fill="url(#_DB13F1DA-EA6F-4411-B582-45D54AC0CBAFborderbackground)"/>     </g> 	 	<text id="_DB13F1DA-EA6F-4411-B582-45D54AC0CBAFtext_name" x="30.5" y="30.5" oryx:align="left top" stroke-width="0pt" letter-spacing="-0.01px" fill="#000000" text-anchor="start" transform="rotate(0 30.5 30.5)" visibility="inherit" oryx:fontSize="12"/> 	   </g></g><g class="children" style="overflow:hidden"/><g class="edge"/></g><g class="controls"><g class="dockers"/><g class="magnets" transform="translate(450, 160)"><g pointer-events="all" display="none" transform="translate(12.5, 12.5)"><circle cx="8" cy="8" r="4" stroke="none" fill="red" fill-opacity="0.3"/></g></g></g></g><g id="_061F5CFE-3743-48A3-A033-F207D5339636" bpmn2nodeid="_CFB99525-4258-4246-B862-9651086D994B"><g class="stencils" transform="translate(645, 140)"><g class="me"><g pointer-events="fill" oryx:minimumSize="50 40" id="_061F5CFE-3743-48A3-A033-F207D5339636">   	<defs id="_061F5CFE-3743-48A3-A033-F207D5339636__061F5CFE-3743-48A3-A033-F207D5339636_17"> 		<radialGradient id="_061F5CFE-3743-48A3-A033-F207D5339636background" cx="10%" cy="10%" r="100%" fx="10%" fy="10%"> 			<stop offset="0%" stop-color="#ffffff" stop-opacity="1" id="_061F5CFE-3743-48A3-A033-F207D5339636__061F5CFE-3743-48A3-A033-F207D5339636_18"/> 			<stop id="_061F5CFE-3743-48A3-A033-F207D5339636fill_el" offset="100%" stop-color="#fafad2" stop-opacity="1"/> 		</radialGradient> 		<radialGradient id="_061F5CFE-3743-48A3-A033-F207D5339636borderbackground" cx="10%" cy="10%" r="100%" fx="10%" fy="10%"> 			<stop offset="0%" stop-color="#ffffff" stop-opacity="1" id="_061F5CFE-3743-48A3-A033-F207D5339636__061F5CFE-3743-48A3-A033-F207D5339636_19"/> 			<stop id="_061F5CFE-3743-48A3-A033-F207D5339636fill_border" offset="100%" stop-color="#000000" stop-opacity="1" stroke="#000000"/> 		</radialGradient> 	</defs> 	 	<rect id="_061F5CFE-3743-48A3-A033-F207D5339636text_frame" oryx:anchors="bottom top right left" x="1" y="1" width="94" height="79" rx="10" ry="10" stroke="none" stroke-width="0" fill="none"/> 	<rect id="_061F5CFE-3743-48A3-A033-F207D5339636bg_frame" oryx:resize="vertical horizontal" x="0" y="0" width="100" height="80" rx="10" ry="10" stroke="#000000" stroke-width="1" fill="url(#_061F5CFE-3743-48A3-A033-F207D5339636background) #ffffcc"/> 		<text font-size="12" id="_061F5CFE-3743-48A3-A033-F207D5339636text_name" x="50" y="40" oryx:align="middle center" oryx:fittoelem="text_frame" stroke="black" text-anchor="middle" stroke-width="0pt" letter-spacing="-0.01px" fill="#000000" transform="rotate(0 50 40)" visibility="inherit" oryx:fontSize="12"><tspan x="50" y="40" dy="-1" id="ext-gen1103">Asset Service </tspan><tspan x="50" y="40" dy="11" id="ext-gen1139">Inward</tspan></text>     <g id="_061F5CFE-3743-48A3-A033-F207D5339636manualTask" transform="scale(0.7,0.7) translate(8,8)" display="none">     	<path oryx:anchors="top left" id="_061F5CFE-3743-48A3-A033-F207D5339636frame" style="opacity:1;fill:none;fill-opacity:1;stroke-width:1" d="M0.5,3.751l4.083-3.25c0,0,11.166,0.083,12.083,0.083s-2.417,2.917-1.5,2.917     s11.667,0,12.584,0c1.166,1.708-0.168,3.167-0.834,3.667s0.875,1.917-1,4.417c-0.75,0.25,0.75,1.875-1.333,3.333     c-1.167,0.583,0.583,1.542-1.25,2.833c-1.167,0-20.833,0.083-20.833,0.083l-2-1.333V3.751z" stroke="#000000"/> 		<path id="_061F5CFE-3743-48A3-A033-F207D5339636frame2" oryx:anchors="top left" style="opacity:1;fill:none;stroke-width:2" d="M 13.5 7 L 27 7" stroke="#000000"/> 		<path id="_061F5CFE-3743-48A3-A033-F207D5339636frame3" oryx:anchors="top left" style="opacity:1;fill:none;stroke-width:2" d="M 13.5 11 L 26 11" stroke="#000000"/> 		<path id="_061F5CFE-3743-48A3-A033-F207D5339636frame4" oryx:anchors="top left" style="opacity:1;fill:none;stroke-width:1.5" d="M 14 14.5 L 25 14.5" stroke="#000000"/> 		<path id="_061F5CFE-3743-48A3-A033-F207D5339636frame5" oryx:anchors="top left" style="opacity:1;fill:none;stroke-width:1.5" d="M 8.2 3.1 L 15 3.1" stroke="#000000"/> 	</g> 	 	<g id="_061F5CFE-3743-48A3-A033-F207D5339636businessRuleTask" transform="scale(0.7,0.7) translate(8,8)" display="none"> 		<rect id="_061F5CFE-3743-48A3-A033-F207D5339636frame6" oryx:anchors="top left" x="0" y="0" width="22" height="4" style="opacity:1;fill:#B3B1B3;fill-opacity:1;" stroke="#000000"/> 		<rect id="_061F5CFE-3743-48A3-A033-F207D5339636frame7" oryx:anchors="top left" x="0" y="4" style="opacity:1;fill:none;" width="22" height="12" stroke="#000000"/> 		<path id="_061F5CFE-3743-48A3-A033-F207D5339636frame8" oryx:anchors="top left" style="opacity:1;fill:none;" d="M 0 10 L 22 10" stroke="#000000"/> 		<path id="_061F5CFE-3743-48A3-A033-F207D5339636frame9" oryx:anchors="top left" style="opacity:1; fill:none;" d="M 7 4 L 7 16" stroke="#000000"/> 	</g> 	 	<g id="_061F5CFE-3743-48A3-A033-F207D5339636scriptTask" transform="scale(0.7,0.7) translate(8,8)" display="none"> 		<path oryx:anchors="top left" id="_061F5CFE-3743-48A3-A033-F207D5339636frame10" style="opacity:1;fill:none;" stroke="#000000" d="M6.402,0.5h14.5c0,0-5.833,2.833-5.833,5.583s4.417,6,4.417,9.167    s-4.167,5.083-4.167,5.083H0.235c0,0,5-2.667,5-5s-4.583-6.75-4.583-9.25S6.402,0.5,6.402,0.5z"/> 		<path oryx:anchors="top left" id="_061F5CFE-3743-48A3-A033-F207D5339636frame11" style="opacity:1;fill:none;stroke-width:1.5" d="M 3.5 4.5 L 13.5 4.5" stroke="#000000"/> 		<path oryx:anchors="top left" id="_061F5CFE-3743-48A3-A033-F207D5339636frame12" style="opacity:1;fill:none;stroke-width:1.5" d="M 3.8 8.5 L 13.8 8.5" stroke="#000000"/> 		<path oryx:anchors="top left" id="_061F5CFE-3743-48A3-A033-F207D5339636frame13" style="opacity:1;fill:none;stroke-width:1.5" d="M 6.3 12.5 L 16.3 12.5" stroke="#000000"/> 		<path oryx:anchors="top left" id="_061F5CFE-3743-48A3-A033-F207D5339636frame14" style="opacity:1;fill:none;stroke-width:1.5" d="M 6.5 16.5 L 16.5 16.5" stroke="#000000"/> 	</g> 	 	<g id="_061F5CFE-3743-48A3-A033-F207D5339636userTask" transform="scale(0.7,0.7) translate(8,8)" display="inherit"> 		<path id="_061F5CFE-3743-48A3-A033-F207D5339636frame15" oryx:anchors="top left" style="opacity:1;fill:#F4F6F7" stroke="#000000" d="M0.585,24.167h24.083v-7.833c0,0-2.333-3.917-7.083-5.167h-9.25    c-4.417,1.333-7.833,5.75-7.833,5.75L0.585,24.167z"/> 		<path id="_061F5CFE-3743-48A3-A033-F207D5339636frame16" oryx:anchors="top left" style="opacity:1;fill:none" d="M 6 20 L 6 24" stroke="#000000"/> 		<path id="_061F5CFE-3743-48A3-A033-F207D5339636frame17" oryx:anchors="top left" style="opacity:1;fill:none" d="M 20 20 L 20 24" stroke="#000000"/> 		<circle id="_061F5CFE-3743-48A3-A033-F207D5339636frame18" oryx:anchors="top left" fill="black" cx="13.002" cy="5.916" r="5.417" stroke="#000000"/> 		<path id="_061F5CFE-3743-48A3-A033-F207D5339636frame19" oryx:anchors="top left" style="opacity:1;fill:#F0EFF0;" stroke="#000000" d="M8.043,7.083c0,0,2.814-2.426,5.376-1.807s4.624-0.693,4.624-0.693    c0.25,1.688,0.042,3.75-1.458,5.584c0,0,1.083,0.75,1.083,1.5s0.125,1.875-1,3s-5.5,1.25-6.75,0S8.668,12.834,8.668,12    s0.583-1.25,1.25-1.917C8.835,9.5,7.419,7.708,8.043,7.083z"/> 	</g> 	 	<g id="_061F5CFE-3743-48A3-A033-F207D5339636serviceTask" transform="scale(0.7,0.7) translate(8,8)" display="none"> 		<polygon oryx:anchors="top left" id="_061F5CFE-3743-48A3-A033-F207D5339636frame20" style="opacity:1;fill:#ffffff" stroke="#000000" points="15.392,5.064 17.954,2.502 20.347,4.895 17.786,7.455     18.729,9.732 22.353,9.732 22.353,13.115 18.731,13.115 17.788,15.392 20.351,17.955 17.958,20.347 15.397,17.786 13.12,18.729     13.12,22.353 9.737,22.353 9.737,18.731 7.46,17.788 4.897,20.35 2.506,17.958 5.066,15.397 4.124,13.12 0.5,13.12 0.5,9.737     4.121,9.737 5.065,7.461 2.503,4.898 4.895,2.506 7.455,5.066 9.732,4.125 9.732,0.5 13.116,0.5 13.116,4.121 "/> 		<circle oryx:anchors="top left" id="_061F5CFE-3743-48A3-A033-F207D5339636frame21" style="opacity:1;fill:none" stroke="#000000" cx="11.427" cy="11.426" r="3.714"/> 		<polygon oryx:anchors="top left" id="_061F5CFE-3743-48A3-A033-F207D5339636frame22" style="opacity:1;fill:#ffffff" stroke="#000000" points="21.392,11.064 23.954,8.502 26.347,10.895 23.786,13.455     24.729,15.732 28.353,15.732 28.353,19.115 24.731,19.115 23.788,21.392 26.351,23.955 23.958,26.347 21.397,23.786 19.12,24.729     19.12,28.353 15.737,28.353 15.737,24.731 13.46,23.788 10.897,26.35 8.506,23.958 11.066,21.397 10.124,19.12 6.5,19.12     6.5,15.737 10.121,15.737 11.065,13.461 8.503,10.898 10.895,8.506 13.455,11.066 15.732,10.125 15.732,6.5 19.116,6.5     19.116,10.121 "/> 		<circle oryx:anchors="top left" id="_061F5CFE-3743-48A3-A033-F207D5339636frame23" style="opacity:1;fill:none;" stroke="#000000" cx="17.427" cy="17.426" r="3.714"/> 	</g> 	 	<g id="_061F5CFE-3743-48A3-A033-F207D5339636sendTask" display="none"> 		<path id="_061F5CFE-3743-48A3-A033-F207D5339636stframe24" oryx:anchors="left top" stroke="#FFFFFF" fill="black" stroke-width="1" d="M8,11 L8,21 L24,21 L24,11 L16,17z"/> 		<path id="_061F5CFE-3743-48A3-A033-F207D5339636stframe25" oryx:anchors="left top" stroke="#FFFFFF" fill="black" stroke-width="1" d="M7,10 L16,17 L25 10z"/> 	</g> 	 	<g id="_061F5CFE-3743-48A3-A033-F207D5339636receiveTask" display="none"> 		<path id="_061F5CFE-3743-48A3-A033-F207D5339636frame26" oryx:anchors="left top" stroke="#000000" fill="none" stroke-width="1" d="M8,11 L8,21 L24,21 L24,11z M8,11 L16,17 L24,11"/> 	</g> 	 	<g id="_061F5CFE-3743-48A3-A033-F207D5339636none" display="inherit"/>  	<g id="_061F5CFE-3743-48A3-A033-F207D5339636sequential" display="none">         <path oryx:anchors="bottom" fill="none" stroke="#000000" stroke-width="2" d="M46,76h10M46,72h10 M46,68h10" id="_061F5CFE-3743-48A3-A033-F207D5339636__061F5CFE-3743-48A3-A033-F207D5339636_20"/>     </g>   </g></g><g class="children" style="overflow:hidden"/><g class="edge"/></g><g class="controls"><g class="dockers"/><g class="magnets" transform="translate(645, 140)"><g pointer-events="all" display="none" transform="translate(-7, 12)"><circle cx="8" cy="8" r="4" stroke="none" fill="red" fill-opacity="0.3"/></g><g pointer-events="all" display="none" transform="translate(-7, 32)"><circle cx="8" cy="8" r="4" stroke="none" fill="red" fill-opacity="0.3"/></g><g pointer-events="all" display="none" transform="translate(-7, 52)"><circle cx="8" cy="8" r="4" stroke="none" fill="red" fill-opacity="0.3"/></g><g pointer-events="all" display="none" transform="translate(17, 71)"><circle cx="8" cy="8" r="4" stroke="none" fill="red" fill-opacity="0.3"/></g><g pointer-events="all" display="none" transform="translate(42, 71)"><circle cx="8" cy="8" r="4" stroke="none" fill="red" fill-opacity="0.3"/></g><g pointer-events="all" display="none" transform="translate(67, 71)"><circle cx="8" cy="8" r="4" stroke="none" fill="red" fill-opacity="0.3"/></g><g pointer-events="all" display="none" transform="translate(91, 12)"><circle cx="8" cy="8" r="4" stroke="none" fill="red" fill-opacity="0.3"/></g><g pointer-events="all" display="none" transform="translate(91, 32)"><circle cx="8" cy="8" r="4" stroke="none" fill="red" fill-opacity="0.3"/></g><g pointer-events="all" display="none" transform="translate(91, 52)"><circle cx="8" cy="8" r="4" stroke="none" fill="red" fill-opacity="0.3"/></g><g pointer-events="all" display="none" transform="translate(17, -7)"><circle cx="8" cy="8" r="4" stroke="none" fill="red" fill-opacity="0.3"/></g><g pointer-events="all" display="none" transform="translate(42, -7)"><circle cx="8" cy="8" r="4" stroke="none" fill="red" fill-opacity="0.3"/></g><g pointer-events="all" display="none" transform="translate(67, -7)"><circle cx="8" cy="8" r="4" stroke="none" fill="red" fill-opacity="0.3"/></g><g pointer-events="all" display="none" transform="translate(42, 32)"><circle cx="8" cy="8" r="4" stroke="none" fill="red" fill-opacity="0.3"/></g></g></g></g><g id="_FAE59B4A-8E7C-4632-BCC4-45615CAFF66F" bpmn2nodeid="_CBFC161B-320F-482F-B6F5-AE005116DC36"><g class="stencils" transform="translate(795, 291)"><g class="me"><g pointer-events="fill" id="_FAE59B4A-8E7C-4632-BCC4-45615CAFF66F">      <defs id="_FAE59B4A-8E7C-4632-BCC4-45615CAFF66F__FAE59B4A-8E7C-4632-BCC4-45615CAFF66F_5"> 		<radialGradient id="_FAE59B4A-8E7C-4632-BCC4-45615CAFF66Fbackground" cx="10%" cy="10%" r="100%" fx="10%" fy="10%"> 			<stop offset="0%" stop-color="#ffffff" stop-opacity="1" id="_FAE59B4A-8E7C-4632-BCC4-45615CAFF66F__FAE59B4A-8E7C-4632-BCC4-45615CAFF66F_6"/> 			<stop id="_FAE59B4A-8E7C-4632-BCC4-45615CAFF66Ffill_el" offset="100%" stop-color="#ff6347" stop-opacity="1"/> 		</radialGradient> 	</defs> 	     <circle id="_FAE59B4A-8E7C-4632-BCC4-45615CAFF66Fbg_frame" cx="14" cy="14" r="14" stroke="#000000" fill="url(#_FAE59B4A-8E7C-4632-BCC4-45615CAFF66Fbackground) white" stroke-width="3"/> 	<text font-size="11" id="_FAE59B4A-8E7C-4632-BCC4-45615CAFF66Ftext_name" x="14" y="30" oryx:align="top center" stroke="black" stroke-width="0pt" letter-spacing="-0.01px" fill="#000000" text-anchor="middle" transform="rotate(0 14 30)" visibility="inherit" oryx:fontSize="11"/>   </g></g><g class="children" style="overflow:hidden"/><g class="edge"/></g><g class="controls"><g class="dockers"/><g class="magnets" transform="translate(795, 291)"><g pointer-events="all" display="none" transform="translate(6, 6)"><circle cx="8" cy="8" r="4" stroke="none" fill="red" fill-opacity="0.3"/></g></g></g></g><g id="_4CE127BF-CDB8-43FA-ABA6-C342CDC94D91" bpmn2nodeid="_BBD2A2C3-A38C-4514-B0C2-500153F452AC"><g class="stencils" transform="translate(675, 285)"><g class="me"><g id="_4CE127BF-CDB8-43FA-ABA6-C342CDC94D91">        <defs id="_4CE127BF-CDB8-43FA-ABA6-C342CDC94D91__4CE127BF-CDB8-43FA-ABA6-C342CDC94D91_4"> 		<radialGradient id="_4CE127BF-CDB8-43FA-ABA6-C342CDC94D91background" cx="10%" cy="10%" r="100%" fx="10%" fy="10%"> 			<stop offset="0%" stop-color="#ffffff" stop-opacity="1" id="_4CE127BF-CDB8-43FA-ABA6-C342CDC94D91__4CE127BF-CDB8-43FA-ABA6-C342CDC94D91_5"/> 			<stop id="_4CE127BF-CDB8-43FA-ABA6-C342CDC94D91fill_el" offset="100%" stop-color="#f0e68c" stop-opacity="1"/> 		</radialGradient> 		<radialGradient id="_4CE127BF-CDB8-43FA-ABA6-C342CDC94D91borderbackground" cx="10%" cy="10%" r="100%" fx="10%" fy="10%"> 			<stop offset="0%" stop-color="#ffffff" stop-opacity="1" id="_4CE127BF-CDB8-43FA-ABA6-C342CDC94D91__4CE127BF-CDB8-43FA-ABA6-C342CDC94D91_6"/> 			<stop id="_4CE127BF-CDB8-43FA-ABA6-C342CDC94D91fill_border" offset="100%" stop-color="#a67f00" stop-opacity="1" stroke="#a67f00"/> 		</radialGradient> 	</defs> 	     <path d=" M0 20.5  L20.5 0  L40 20.5  L20.5 40  z" id="_4CE127BF-CDB8-43FA-ABA6-C342CDC94D91bg_frame" fill="url(#_4CE127BF-CDB8-43FA-ABA6-C342CDC94D91background) white" style="stroke-width:1" stroke="#a67f00"/>     <g id="_4CE127BF-CDB8-43FA-ABA6-C342CDC94D91frame" stroke="#a67f00">       <path id="_4CE127BF-CDB8-43FA-ABA6-C342CDC94D91frame2" d=" M13.25 12.05  L17.25 12.05  L27.65 28.95  L23.75 28.95  z" style="stroke-width:1" stroke="#a67f00" fill="url(#_4CE127BF-CDB8-43FA-ABA6-C342CDC94D91borderbackground)"/>       <path id="_4CE127BF-CDB8-43FA-ABA6-C342CDC94D91frame3" d=" M13.25 28.95  L23.75 12.05  L27.65 12.05  L17.25 28.95  z" style="stroke-width:1" stroke="#a67f00" fill="url(#_4CE127BF-CDB8-43FA-ABA6-C342CDC94D91borderbackground)"/>     </g> 	 	<text id="_4CE127BF-CDB8-43FA-ABA6-C342CDC94D91text_name" x="30.5" y="30.5" oryx:align="left top" stroke-width="0pt" letter-spacing="-0.01px" fill="#000000" text-anchor="start" transform="rotate(0 30.5 30.5)" visibility="inherit" oryx:fontSize="12"/> 	   </g></g><g class="children" style="overflow:hidden"/><g class="edge"/></g><g class="controls"><g class="dockers"/><g class="magnets" transform="translate(675, 285)"><g pointer-events="all" display="none" transform="translate(12.5, 12.5)"><circle cx="8" cy="8" r="4" stroke="none" fill="red" fill-opacity="0.3"/></g></g></g></g></g><g class="edge"><g id="_F876C1D3-F8D2-4DC4-927A-359EA7DD667A" bpmn2nodeid="_47E0CD74-EA15-4F67-A1C8-EC151953F4FC"><g class="stencils"><g class="me"><g pointer-events="painted" bpmn2nodeid="_EAD8AE0B-C23F-4E22-921F-FD70BD39BE0A"><path id="_F876C1D3-F8D2-4DC4-927A-359EA7DD667A_1" d="M150.609375 180L254.859375 180 " stroke="#000000" fill="none" stroke-width="2" stroke-linecap="round" stroke-linejoin="round" marker-start="url(#_F876C1D3-F8D2-4DC4-927A-359EA7DD667Astart)" marker-end="url(#_F876C1D3-F8D2-4DC4-927A-359EA7DD667Aend)"/></g><text id="_F876C1D3-F8D2-4DC4-927A-359EA7DD667Atext_name" font-size="12" x="164.609375" y="166" oryx:edgePosition="startTop" stroke-width="0pt" letter-spacing="-0.01px" fill="#000000" text-anchor="start" transform="rotate(360 150.609375 180)" visibility="inherit" oryx:fontSize="12"/></g><g class="children" style="overflow:hidden"/><g class="edge"/></g><g class="controls"><g class="dockers"/><g class="magnets"/></g></g><g id="_2D37159F-3A20-4087-8D13-14C8DB517666" bpmn2nodeid="_56478F1A-7511-4159-8766-3D3AC5BC7D02"><g class="stencils"><g class="me"><g pointer-events="painted" bpmn2nodeid="_04929DDD-8439-45AB-A5DE-1A04EF89F8BA"><path id="_2D37159F-3A20-4087-8D13-14C8DB517666_1" d="M355.62890625 180L449.6640625 180 " stroke="#000000" fill="none" stroke-width="2" stroke-linecap="round" stroke-linejoin="round" marker-start="url(#_2D37159F-3A20-4087-8D13-14C8DB517666start)" marker-end="url(#_2D37159F-3A20-4087-8D13-14C8DB517666end)"/></g><text id="_2D37159F-3A20-4087-8D13-14C8DB517666text_name" font-size="12" x="369.62890625" y="166" oryx:edgePosition="startTop" stroke-width="0pt" letter-spacing="-0.01px" fill="#000000" text-anchor="start" transform="rotate(360 355.62890625 180)" visibility="inherit" oryx:fontSize="12"/></g><g class="children" style="overflow:hidden"/><g class="edge"/></g><g class="controls"><g class="dockers"/><g class="magnets"/></g></g><g id="_63E46319-B9AC-4D66-B0BB-412539DDAF08" bpmn2nodeid="_309FFC99-3DFA-4B43-839A-D393262D45CF"><g class="stencils"><g class="me"><g pointer-events="painted" bpmn2nodeid="_0B23EC30-5D47-4BF1-8BF4-E312E34DC38C"><path id="_63E46319-B9AC-4D66-B0BB-412539DDAF08_1" d="M490.3359375 180L644.78125 180 " stroke="#000000" fill="none" stroke-width="2" stroke-linecap="round" stroke-linejoin="round" marker-start="url(#_63E46319-B9AC-4D66-B0BB-412539DDAF08start)" marker-end="url(#_63E46319-B9AC-4D66-B0BB-412539DDAF08end)"/></g><text id="_63E46319-B9AC-4D66-B0BB-412539DDAF08text_name" font-size="12" x="504.3359375" y="166" oryx:edgePosition="startTop" stroke-width="0pt" letter-spacing="-0.01px" fill="#000000" text-anchor="start" transform="rotate(360 490.3359375 180)" visibility="inherit" oryx:fontSize="12"><tspan x="504.3359375" y="166" dy="0" id="ext-gen1220">Outward Approved</tspan></text></g><g class="children" style="overflow:hidden"/><g class="edge"/></g><g class="controls"><g class="dockers"/><g class="magnets"/></g></g><g id="_4176E16C-98CE-4368-A661-B5D4EE78B561" bpmn2nodeid="_8907285B-91AE-4941-88F6-5AA5827B032D"><g class="stencils"><g class="me"><g pointer-events="painted" bpmn2nodeid="_BFED2810-A4ED-4C34-9097-8502BE6F7133"><path id="_4176E16C-98CE-4368-A661-B5D4EE78B561_1" d="M714.703125 305L794.640625 305 " stroke="#000000" fill="none" stroke-width="2" stroke-linecap="round" stroke-linejoin="round" marker-start="url(#_4176E16C-98CE-4368-A661-B5D4EE78B561start)" marker-end="url(#_4176E16C-98CE-4368-A661-B5D4EE78B561end)"/></g><text id="_4176E16C-98CE-4368-A661-B5D4EE78B561text_name" font-size="12" x="728.703125" y="291" oryx:edgePosition="startTop" stroke-width="0pt" letter-spacing="-0.01px" fill="#000000" text-anchor="start" transform="rotate(360 714.703125 305)" visibility="inherit" oryx:fontSize="12"/></g><g class="children" style="overflow:hidden"/><g class="edge"/></g><g class="controls"><g class="dockers"/><g class="magnets"/></g></g><g id="_4905C357-D04A-4360-9734-FF0586E7F18A" bpmn2nodeid="_8D2E7FB3-395A-4360-BB01-932B7319C59B"><g class="stencils"><g class="me"><g pointer-events="painted" bpmn2nodeid="_EDE9FF5F-E82C-4CA8-AA47-B198CC56A7BB"><path id="_4905C357-D04A-4360-9734-FF0586E7F18A_1" d="M695 220.0625L695 285.4453125 " stroke="#000000" fill="none" stroke-width="2" stroke-linecap="round" stroke-linejoin="round" marker-start="url(#_4905C357-D04A-4360-9734-FF0586E7F18Astart)" marker-end="url(#_4905C357-D04A-4360-9734-FF0586E7F18Aend)"/></g><text id="_4905C357-D04A-4360-9734-FF0586E7F18Atext_name" font-size="12" x="681" y="206.0625" oryx:edgePosition="startTop" stroke-width="0pt" letter-spacing="-0.01px" fill="#000000" text-anchor="end" transform="rotate(-90 695 220.0625)" visibility="inherit" oryx:fontSize="12"/></g><g class="children" style="overflow:hidden"/><g class="edge"/></g><g class="controls"><g class="dockers"/><g class="magnets"/></g></g><g id="_815A072A-71A2-447C-8731-4720144F9951" bpmn2nodeid="_B37EEC13-1034-4029-A2BB-A7420999EE1C"><g class="stencils"><g class="me"><g pointer-events="painted" bpmn2nodeid="_4C664DD4-814E-4964-8BB4-355331F882DA"><path id="_815A072A-71A2-447C-8731-4720144F9951_1" d="M470 199.5546875L470 305 L674.6640625 305 " stroke="#000000" fill="none" stroke-width="2" stroke-linecap="round" stroke-linejoin="round" marker-start="url(#_815A072A-71A2-447C-8731-4720144F9951start)" marker-end="url(#_815A072A-71A2-447C-8731-4720144F9951end)"/></g><text id="_815A072A-71A2-447C-8731-4720144F9951text_name" font-size="12" x="456" y="185.5546875" oryx:edgePosition="startTop" stroke-width="0pt" letter-spacing="-0.01px" fill="#000000" text-anchor="end" transform="rotate(-90 470 199.5546875)" visibility="inherit" oryx:fontSize="12"><tspan x="456" y="185.5546875" dy="0">Outward Rejected</tspan></text></g><g class="children" style="overflow:hidden"/><g class="edge"/></g><g class="controls"><g class="dockers"/><g class="magnets"/></g></g></g><text id="_6C27A151-9A36-4231-8F91-8763C3A2ABD2" style="stroke-width:1;fill:rgb(177,194,214);font-family:arial;font-weight:bold" font-size="12" onclick="ORYX.Plugins.CanvasTitle.openTextualAnalysis()" onmouseover="ORYX.Plugins.CanvasTitle.addToolTip('_6C27A151-9A36-4231-8F91-8763C3A2ABD2')" transform="translate(10, 20)">asset-service-process v.1.0 (procurement.asset-service-process)</text></g></g></svg>